<?xml version="1.0" encoding="utf-8"?>
<!-- Generator: Adobe Illustrator 26.0.2, SVG Export Plug-In . SVG Version: 6.00 Build 0)  -->
<svg version="1.1" id="Livello_1" xmlns="http://www.w3.org/2000/svg" xmlns:xlink="http://www.w3.org/1999/xlink" x="0px" y="0px"
	 viewBox="0 0 566.93 286.02" style="enable-background:new 0 0 566.93 286.02;" xml:space="preserve">
<style type="text/css">
	.st0{fill:#7FBA3C;}
	.st1{fill:#E42320;}
	.st2{fill:#9477B3;}
	.st3{fill:#1D1D1B;}
</style>
<g>
	<g>
		<path class="st0" d="M-3.94,92.51c51.32-10.1,108.39-4.46,155.33,19.26c11.84,6.11,23.04,13.41,33.37,21.76
			c8.71,7.12,21,18.76,29.54,26.43c24.46,22.05,48.44,44.72,74.76,64.51c20.32,15.18,44.76,29.41,70.88,24.58
			c33.13-5.39,56.45-33.78,88.8-41.57c13.17-3.26,27.14-2.72,40.21,0.56c6.55,1.71,12.7,3.7,19.06,5.38
			c4.4,1.12,9.88,2.43,14.36,3.21c0,0,2.41,0.47,2.41,0.47l2.42,0.33c4.53,0.66,10,1.26,14.6,1.19c2.21,0.08,5.08-0.2,7.29-0.41
			c0,0,2.38-0.45,2.38-0.45l1.19-0.22c1.16-0.31,2.32-0.68,3.46-1.07c2.79-1.17,6.02-2.94,7.28-5.84c0,0,0.48,0.13,0.48,0.13
			c-1.92,4.81-7.43,7.13-12.11,8.33c0,0-2.45,0.59-2.45,0.59c-1.62,0.22-3.41,0.5-4.98,0.68c-2.38,0.11-5.15,0.34-7.51,0.23
			c-3.81,0.02-8.64-0.5-12.46-0.9c-3.85-0.61-8.51-1.23-12.28-2.08c-8.03-1.54-16.29-3.88-24.06-5.73
			c-19.05-4.44-38.84-1.84-56.05,7.24c-17.73,8.92-32.92,21.75-51.72,29.3c-12.54,5.12-26.45,7.69-39.97,5.65
			c-32.47-4.96-59.61-31.9-83.28-52.9c-24.12-22.09-48.32-45.22-73.99-65.44c-36.83-27.45-82.36-41.25-127.9-44.39
			C35.5,90.07,15.7,90.3-3.84,93C-3.84,93-3.94,92.51-3.94,92.51L-3.94,92.51z"/>
	</g>
	<g>
		<path class="st1" d="M-13.6,159.02c46.27,5.55,93.38,3.17,139.26-4.52c10.37-1.89,21.39-4.06,31.56-6.48c0,0,5.24-1.18,5.24-1.18
			l5.19-1.38c7.32-1.9,16.32-4.5,23.58-6.09c16.88-3.6,35.43-2.4,50.35,6.89c25.04,15.64,36.84,44.43,50.29,69.37
			c6.71,12.41,13.46,25.26,24.01,34.8c10.16,9.12,20.68,9.75,33.53,7.34c31.04-5.95,48.31-34.32,71.6-53.18
			c20.5-16.72,40.67-22.37,66.9-20.64c28.93,1.35,58.03,10.07,81.46,27.36c4.33,3.21,8.57,6.74,12.2,10.75c0,0-0.37,0.34-0.37,0.34
			c-4.46-4.35-9.64-8.05-14.84-11.46c-9.78-6.15-20.45-11.13-31.43-14.72c0,0-2.53-0.87-2.53-0.87l-2.58-0.71l-5.15-1.41
			c-2.84-0.79-7.47-1.61-10.43-2.26c0,0-1.31-0.27-1.31-0.27l-1.32-0.18c-1.47-0.22-6.33-0.91-7.92-1.15
			c-4.01-0.56-9.21-0.76-13.28-1.14c-5.91-0.05-12.68-0.28-18.59,0.21c-56.33,4.91-68.62,59.14-116.11,72.66
			c-15.76,3.93-29.99,4.01-42.48-7.71c-10.87-10.15-17.28-23.54-23.8-36.52c-11.08-22.22-20.79-46.47-40.02-63.03
			c-16.34-14.21-37.03-16.57-57.53-11.49c-7.2,1.79-16.08,4.76-23.23,6.82c-2.22,0.74-7.97,2.34-10.45,2.88
			c-7.03,1.66-14.01,3.61-21.14,4.82l-10.65,2.05c-3.94,0.7-6.96,1.06-10.72,1.63c-14.29,2.22-28.72,3.4-43.14,4.21
			c-28.85,1.17-57.9,0.15-86.26-5.24L-13.6,159.02L-13.6,159.02z"/>
	</g>
	<g>
		<path class="st2" d="M-3.77-0.57c31.55,16.14,61.11,36.12,88.91,58.1c27.75,22.08,53.45,47.04,75.51,74.81
			c8.58,10.69,17.41,22.95,24.96,34.45c5.78,8.88,11.16,18.09,17.23,26.75c9.95,14.5,21.5,28.07,34.25,40.11
			c28,26.24,68.28,48.62,107.65,43.98c36.97-8.65,77.63-49.12,108.42-72.48c16.85-12.9,34.26-26.24,54.76-32.72
			c6.83-2.05,14.13-3.06,21.19-1.88l-0.07,0.5c-7.02-0.72-14.04,0.61-20.62,2.92c-6.61,2.31-12.83,5.62-18.84,9.21
			c-36.05,22.67-64.8,54.37-100.03,78.62c-13.35,9.07-27.72,17.5-43.76,20.86c-26.78,3.37-54.67-6.54-77.24-20.33
			c-24.27-15.04-44.2-36.27-60.89-59.21c-2.84-3.8-6.45-9.18-9.11-13.1c-2.03-3.07-6.5-10.29-8.55-13.45
			c-9.29-15.01-19.99-29.11-31.49-42.47c-27.64-31.94-59.24-60.59-92.59-86.45C43.5,30.49,20.3,14.27-4.01-0.13
			C-4.01-0.13-3.77-0.57-3.77-0.57L-3.77-0.57z"/>
	</g>
	<g>
		<g>
			<path class="st3" d="M63.2,215.12h4.95l17.01,40.37h0.16l17.01-40.37h4.98v45.8h-4.06v-37.67h-2.06l4.86-7.14l-18.92,44.81h-3.78
				L64.44,216.1l4.86,7.14h-2.06v37.67H63.2V215.12z"/>
			<path class="st3" d="M127.88,219.02h-15.14v-3.9h34.59v3.9H132.2v41.89h-4.32V219.02z"/>
			<path class="st3" d="M158.97,260.09c-2.46-1.04-4.42-2.51-5.87-4.41c-1.45-1.9-2.27-4.14-2.46-6.7l-0.03-0.44h4.32l0.06,0.44
				c0.21,1.76,0.87,3.29,1.97,4.59c1.1,1.3,2.57,2.31,4.41,3.02s3.97,1.06,6.38,1.06c2.39,0,4.47-0.35,6.24-1.06
				c1.77-0.71,3.14-1.72,4.13-3.05c0.98-1.32,1.48-2.86,1.48-4.62v-0.03c0-2.24-0.77-4.04-2.32-5.38c-1.54-1.34-4.08-2.42-7.62-3.22
				l-5.01-1.11c-4.42-1.02-7.68-2.51-9.76-4.49c-2.08-1.98-3.13-4.6-3.13-7.86v-0.03c0.02-2.43,0.7-4.58,2.03-6.44
				c1.33-1.86,3.17-3.32,5.52-4.38c2.35-1.06,5.02-1.59,8.03-1.59c2.96,0,5.6,0.53,7.9,1.6c2.31,1.07,4.15,2.55,5.54,4.44
				c1.39,1.89,2.16,4.1,2.33,6.62l0.03,0.45h-4.32l-0.03-0.41c-0.23-1.8-0.85-3.34-1.86-4.63c-1-1.29-2.33-2.29-3.98-3
				s-3.55-1.06-5.71-1.06c-2.2,0-4.14,0.35-5.81,1.05c-1.67,0.7-2.97,1.67-3.89,2.9c-0.92,1.24-1.38,2.68-1.38,4.33v0.06
				c0,2.12,0.77,3.85,2.32,5.19c1.54,1.34,3.98,2.4,7.3,3.16l5.01,1.11c4.68,1.06,8.04,2.56,10.09,4.51c2.05,1.95,3.08,4.61,3.08,8
				v0.03c0,2.62-0.67,4.9-2.02,6.84c-1.34,1.94-3.25,3.43-5.71,4.49c-2.46,1.06-5.37,1.59-8.71,1.59
				C164.29,261.64,161.44,261.12,158.97,260.09z"/>
		</g>
	</g>
</g>
</svg>
