<svg class="main-svg" xmlns="http://www.w3.org/2000/svg" xmlns:xlink="http://www.w3.org/1999/xlink" width="800" height="250" viewBox="0 0 800 250"><rect x="0" y="0" width="800" height="250" style="fill: rgb(255, 255, 255); fill-opacity: 1;"/><defs id="defs-a4befc"><g class="clips"><clipPath id="clipa4befcxyplot" class="plotclip"><rect width="653.2272965879265" height="155.9291338582677"/></clipPath><clipPath class="axesclip" id="clipa4befcx"><rect x="41.253018372703416" y="0" width="653.2272965879265" height="250"/></clipPath><clipPath class="axesclip" id="clipa4befcy"><rect x="0" y="48.202099737532805" width="800" height="155.9291338582677"/></clipPath><clipPath class="axesclip" id="clipa4befcxy"><rect x="41.253018372703416" y="48.202099737532805" width="653.2272965879265" height="155.9291338582677"/></clipPath></g><g class="gradients"/></defs><g class="bglayer"/><g class="layer-below"><g class="imagelayer"/><g class="shapelayer"/></g><g class="cartesianlayer"><g class="subplot xy"><g class="layer-subplot"><g class="shapelayer"/><g class="imagelayer"/></g><g class="gridlayer"><g class="x"><path class="xgrid crisp" transform="translate(43.09301837270342,0)" d="M0,48.202099737532805v155.9291338582677" style="stroke: rgb(0, 0, 0); stroke-opacity: 0.1; stroke-width: 0.5px;"/><path class="xgrid crisp" transform="translate(209.66301837270342,0)" d="M0,48.202099737532805v155.9291338582677" style="stroke: rgb(0, 0, 0); stroke-opacity: 0.1; stroke-width: 0.5px;"/><path class="xgrid crisp" transform="translate(376.1930183727034,0)" d="M0,48.202099737532805v155.9291338582677" style="stroke: rgb(0, 0, 0); stroke-opacity: 0.1; stroke-width: 0.5px;"/><path class="xgrid crisp" transform="translate(542.7530183727034,0)" d="M0,48.202099737532805v155.9291338582677" style="stroke: rgb(0, 0, 0); stroke-opacity: 0.1; stroke-width: 0.5px;"/></g><g class="y"><path class="ygrid crisp" transform="translate(0,199.7320997375328)" d="M41.253018372703416,0h653.2272965879265" style="stroke: rgb(0, 0, 0); stroke-opacity: 0.1; stroke-width: 0.5px;"/><path class="ygrid crisp" transform="translate(0,158.0220997375328)" d="M41.253018372703416,0h653.2272965879265" style="stroke: rgb(0, 0, 0); stroke-opacity: 0.1; stroke-width: 0.5px;"/><path class="ygrid crisp" transform="translate(0,116.3120997375328)" d="M41.253018372703416,0h653.2272965879265" style="stroke: rgb(0, 0, 0); stroke-opacity: 0.1; stroke-width: 0.5px;"/><path class="ygrid crisp" transform="translate(0,74.6120997375328)" d="M41.253018372703416,0h653.2272965879265" style="stroke: rgb(0, 0, 0); stroke-opacity: 0.1; stroke-width: 0.5px;"/></g></g><g class="zerolinelayer"/><path class="xlines-below"/><path class="ylines-below"/><g class="overlines-below"/><g class="xaxislayer-below"/><g class="yaxislayer-below"/><g class="overaxes-below"/><g class="plot" transform="translate(41.253018372703416, 48.202099737532805)" clip-path="url('#clipa4befcxyplot')"><g class="scatterlayer mlayer"><g class="trace scatter tracec30748" style="stroke-miterlimit: 2; opacity: 1;"><g class="fills"/><g class="errorbars"/><g class="lines"><path class="js-line" d="M18.49,151.52L26.79,145.93L28.2,145.73L30.98,146.44L32.39,145.62L37.87,144.67L39.28,145.24L42.06,144.79L43.43,146.15L46.26,144.39L47.62,145.26L49.04,144.55L50.41,142.38L51.82,141.42L53.23,142.79L54.51,144.23L55.92,144.17L57.29,143.71L58.7,144.39L60.07,143.23L61.49,143.51L64.27,142.11L65.68,141.17L67.05,139.42L68.46,140.06L69.88,137.35L71.15,137.08L79.54,129.75L80.91,126.73L83.69,124.62L85.11,124.52L89.26,122.02L90.62,122.27L94.82,120.78L96.23,121.35L100.38,118.97L101.79,118.35L103.21,119.3L104.48,118.82L105.9,118.68L107.27,120.07L108.68,119.97L110.05,121.89L111.46,119.98L112.87,120.7L114.24,120.84L115.66,120.16L117.02,118.9L118.44,120.28L121.13,117.23L122.54,117.55L129.52,115.76L130.89,117.33L133.67,121.15L135.08,122.06L137.77,124.62L139.18,124.2L141.97,120.24L143.33,119.99L144.75,119.81L146.16,117.96L150.31,119.39L151.72,120.56L157.24,115.1L158.65,115.07L160.02,113.19L161.44,114.22L162.85,113.73L164.22,112.18L169.83,109.28L171.1,109.57L172.52,108.84L173.88,109.57L179.49,107.8L180.86,106.21L186.47,103.36L187.75,101.27L194.72,96.15L196.14,95.35L200.29,90.14L201.7,89.76L204.39,89.8L205.8,89.93L208.58,88.52L209.95,89.35L211.37,86.73L212.78,85.9L214.15,86.15L215.56,85.63L216.93,84.83L218.34,86.2L219.76,83.01L221.08,83.21L225.27,78.03L226.64,78.31L229.47,75.67L230.84,75.79L233.62,72.61L235.03,72.31L237.72,68.41L239.13,68.36L243.28,64.55L244.7,62.38L250.26,56.29L251.67,55.22L255.78,54.03L257.15,52.71L259.93,54.75L261.34,50.51L262.75,50.92L264.12,49.24L265.54,49.37L266.9,48.6L271.01,46.19L272.42,45.62L273.79,44.19L275.2,44.54L277.98,42.35L279.4,43.23L280.77,40.47L282.18,39.49L283.55,37.88L284.96,37.84L287.7,36.47L289.11,34.97L291.89,34.42L293.26,34.74L294.67,35.34L296.09,34.54L301.65,37.03L303.06,38.37L305.75,39.46L307.12,40.74L309.9,43.19L311.32,43.45L316.88,46.13L318.29,44.82L319.71,44.87L320.98,43.18L323.76,41.44L325.18,39.46L327.96,39.94L329.37,39.65L330.74,40.28L332.15,39.19L333.52,40.22L334.94,38.63L337.63,38.82L339.04,40.32L341.82,39.91L343.19,38.99L344.6,39.29L346.02,38.07L347.38,37.77L348.8,36.17L351.58,35.79L352.99,34.53L354.31,35.57L355.73,34.63L357.1,32.98L358.51,34.71L359.88,33.11L361.29,32.96L362.7,32.78L364.07,30.8L365.49,30.37L366.85,28.84L369.68,26.45L370.96,26.78L375.15,25.36L376.52,26.02L377.93,25.45L379.35,29.38L382.13,24.66L383.5,23.37L387.6,22.69L389.01,21.85L390.38,22.06L391.8,21.26L393.16,21.34L394.58,20.52L398.77,21.26L400.14,19.11L401.55,20.19L402.97,18.1L404.24,17.65L405.66,16.19L411.22,15.64L412.63,14.84L414,15.72L415.42,14.5L418.2,15.03L419.61,15.73L420.93,16.23L422.35,17.81L426.5,20.59L427.91,23.8L429.32,33.05L430.69,31.07L432.1,33.71L433.47,39.9L434.89,44.91L436.3,46.26L438.99,51.27L440.36,53.38L441.77,54.19L443.14,51.91L445.97,48.01L447.33,47.35L450.11,45.89L451.53,43.48L455.63,40.59L457,37.57L459.78,36.35L461.2,35.71L462.61,35.23L463.98,35.78L465.39,35.72L466.76,33.71L469.59,34.9L470.86,32.84L472.28,33.59L473.64,33.11L476.42,31.41L477.84,30.24L479.25,30.29L480.62,28.86L482.03,29.03L483.4,27.87L486.23,26.12L487.55,27.1L490.33,25.14L491.75,25.18L493.11,24.63L494.53,25.63L497.31,25.09L498.72,24.09L500.09,23.35L501.5,23.63L504.19,21.59L505.61,21.95L508.39,21.29L509.76,22.18L512.58,19.74L513.95,20.11L516.73,18.86L518.15,19.73L520.84,15.97L522.25,15.88L526.4,13.94L527.81,14.17L530.59,13.5L532.01,11.88L534.79,13.22L536.2,14.28L538.89,16.1L540.26,17L541.67,17.72L543.04,16.5L545.87,17.6L547.24,18.36L550.02,20.99L551.43,19.26L554.17,22.4L555.58,22.19L556.95,22.37L558.36,21.46L561.15,21.12L562.56,21.1L563.93,20.69L565.34,21.1L566.71,19.31L568.12,19.09L569.54,19.88L570.81,18.47L572.23,16.61L573.59,16.33L576.37,16.07L577.79,17.06L579.2,17.05L580.57,13.91L583.35,12.13L584.76,12.66L587.45,10.73L588.87,8.85L590.24,10.51L591.65,8.95L595.84,6.07L597.21,5.61L598.63,4.5L599.99,4.41L602.82,6.29L604.1,6.06L605.51,7.38L606.88,6.93L609.66,7.2L611.07,5.73L613.86,7.34L615.27,5.51L618.05,6.97" style="vector-effect: non-scaling-stroke; fill: none; stroke: rgb(0, 0, 200); stroke-opacity: 1; stroke-width: 1px; opacity: 1;"/></g><g class="points"/><g class="text"/></g><g class="trace scatter tracee58f9f" style="stroke-miterlimit: 2; opacity: 1;"><g class="fills"/><g class="errorbars"/><g class="lines"><path class="js-line" d="M619.46,6.93L634.74,6.67" style="vector-effect: non-scaling-stroke; fill: none; stroke: rgb(0, 0, 200); stroke-opacity: 1; stroke-width: 1px; opacity: 1; stroke-dasharray: 3px, 3px;"/></g><g class="points"/><g class="text"/></g></g></g><g class="overplot"/><path class="xlines-above crisp" d="M40.253018372703416,204.6312335958005H695.4803149606299M40.253018372703416,47.702099737532805H695.4803149606299" style="fill: none; stroke-width: 1px; stroke: rgb(0, 0, 0); stroke-opacity: 1;"/><path class="ylines-above crisp" d="M40.753018372703416,48.202099737532805V204.1312335958005M694.9803149606299,48.202099737532805V204.1312335958005" style="fill: none; stroke-width: 1px; stroke: rgb(0, 0, 0); stroke-opacity: 1;"/><g class="overlines-above"/><g class="xaxislayer-above"><path class="xtick ticks crisp" d="M0,204.1312335958005v-5" transform="translate(43.09301837270342,0)" style="stroke: rgb(0, 0, 0); stroke-opacity: 1; stroke-width: 1px;"/><path class="xtick ticks crisp" d="M0,204.1312335958005v-5" transform="translate(209.66301837270342,0)" style="stroke: rgb(0, 0, 0); stroke-opacity: 1; stroke-width: 1px;"/><path class="xtick ticks crisp" d="M0,204.1312335958005v-5" transform="translate(376.1930183727034,0)" style="stroke: rgb(0, 0, 0); stroke-opacity: 1; stroke-width: 1px;"/><path class="xtick ticks crisp" d="M0,204.1312335958005v-5" transform="translate(542.7530183727034,0)" style="stroke: rgb(0, 0, 0); stroke-opacity: 1; stroke-width: 1px;"/><g class="xtick"><text text-anchor="middle" x="0" y="218.33123359580048" transform="translate(43.09301837270342,0)" style="font-family: 'Helvetica Neue'; font-size: 11px; fill: rgb(0, 0, 0); fill-opacity: 1; white-space: pre;">1983-01-01</text></g><g class="xtick"><text text-anchor="middle" x="0" y="218.33123359580048" transform="translate(209.66301837270342,0)" style="font-family: 'Helvetica Neue'; font-size: 11px; fill: rgb(0, 0, 0); fill-opacity: 1; white-space: pre;">1993-01-01</text></g><g class="xtick"><text text-anchor="middle" x="0" y="218.33123359580048" transform="translate(376.1930183727034,0)" style="font-family: 'Helvetica Neue'; font-size: 11px; fill: rgb(0, 0, 0); fill-opacity: 1; white-space: pre;">2003-01-01</text></g><g class="xtick"><text text-anchor="middle" x="0" y="218.33123359580048" transform="translate(542.7530183727034,0)" style="font-family: 'Helvetica Neue'; font-size: 11px; fill: rgb(0, 0, 0); fill-opacity: 1; white-space: pre;">2013-01-01</text></g></g><g class="yaxislayer-above"><path class="ytick ticks crisp" d="M41.253018372703416,0h5" transform="translate(0,199.7320997375328)" style="stroke: rgb(0, 0, 0); stroke-opacity: 1; stroke-width: 1px;"/><path class="ytick ticks crisp" d="M41.253018372703416,0h5" transform="translate(0,158.0220997375328)" style="stroke: rgb(0, 0, 0); stroke-opacity: 1; stroke-width: 1px;"/><path class="ytick ticks crisp" d="M41.253018372703416,0h5" transform="translate(0,116.3120997375328)" style="stroke: rgb(0, 0, 0); stroke-opacity: 1; stroke-width: 1px;"/><path class="ytick ticks crisp" d="M41.253018372703416,0h5" transform="translate(0,74.6120997375328)" style="stroke: rgb(0, 0, 0); stroke-opacity: 1; stroke-width: 1px;"/><g class="ytick"><text text-anchor="end" x="38.05301837270341" y="3.8499999999999996" transform="translate(0,199.7320997375328)" style="font-family: 'Helvetica Neue'; font-size: 11px; fill: rgb(0, 0, 0); fill-opacity: 1; white-space: pre;">4.0</text></g><g class="ytick"><text text-anchor="end" x="38.05301837270341" y="3.8499999999999996" transform="translate(0,158.0220997375328)" style="font-family: 'Helvetica Neue'; font-size: 11px; fill: rgb(0, 0, 0); fill-opacity: 1; white-space: pre;">4.2</text></g><g class="ytick"><text text-anchor="end" x="38.05301837270341" y="3.8499999999999996" transform="translate(0,116.3120997375328)" style="font-family: 'Helvetica Neue'; font-size: 11px; fill: rgb(0, 0, 0); fill-opacity: 1; white-space: pre;">4.4</text></g><g class="ytick"><text text-anchor="end" x="38.05301837270341" y="3.8499999999999996" transform="translate(0,74.6120997375328)" style="font-family: 'Helvetica Neue'; font-size: 11px; fill: rgb(0, 0, 0); fill-opacity: 1; white-space: pre;">4.6</text></g></g><g class="overaxes-above"/></g></g><g class="polarlayer"/><g class="ternarylayer"/><g class="geolayer"/><g class="funnelarealayer"/><g class="pielayer"/><g class="treemaplayer"/><g class="sunburstlayer"/><g class="glimages"/><defs id="topdefs-a4befc"><g class="clips"/><clipPath id="legenda4befc"><rect width="88" height="48" x="0" y="0"/></clipPath></defs><g class="layer-above"><g class="imagelayer"/><g class="shapelayer"/></g><g class="infolayer"><g class="legend" pointer-events="all" transform="translate(712, 101)"><rect class="bg" shape-rendering="crispEdges" style="stroke: rgb(0, 0, 0); stroke-opacity: 1; fill: rgb(255, 255, 255); fill-opacity: 1; stroke-width: 0px;" width="88" height="48" x="0" y="0"/><g class="scrollbox" transform="translate(0, 0)" clip-path="url('#legenda4befc')"><g class="groups" transform="translate(0, 0)"><g class="traces" transform="translate(0, 14.5)" style="opacity: 1;"><text class="legendtext user-select-none" text-anchor="start" x="40" y="4.29" style="font-family: sans-serif; font-size: 11px; fill: rgb(0, 0, 0); fill-opacity: 1; white-space: pre;">Data</text><g class="layers" style="opacity: 1;"><g class="legendfill"/><g class="legendlines"><path class="js-line" d="M5,0h30" style="fill: none; stroke: rgb(0, 0, 200); stroke-opacity: 1; stroke-width: 1px;"/></g><g class="legendsymbols"><g class="legendpoints"/></g></g><rect class="legendtoggle" pointer-events="all" x="0" y="-9.5" width="82.78125" height="19" style="cursor: pointer; fill: rgb(0, 0, 0); fill-opacity: 0;"/></g></g><g class="groups" transform="translate(0, 0)"><g class="traces" transform="translate(0, 33.5)" style="opacity: 1;"><text class="legendtext user-select-none" text-anchor="start" x="40" y="4.29" style="font-family: sans-serif; font-size: 11px; fill: rgb(0, 0, 0); fill-opacity: 1; white-space: pre;">Forecast</text><g class="layers" style="opacity: 1;"><g class="legendfill"/><g class="legendlines"><path class="js-line" d="M5,0h30" style="fill: none; stroke: rgb(0, 0, 200); stroke-opacity: 1; stroke-dasharray: 3px, 3px; stroke-width: 1px;"/></g><g class="legendsymbols"><g class="legendpoints"/></g></g><rect class="legendtoggle" pointer-events="all" x="0" y="-9.5" width="82.78125" height="19" style="cursor: pointer; fill: rgb(0, 0, 0); fill-opacity: 0;"/></g></g></g><rect class="scrollbar" rx="20" ry="3" width="0" height="0" style="fill: rgb(128, 139, 164); fill-opacity: 1;" x="0" y="0"/></g><g class="g-gtitle"/><g class="g-xtitle"/><g class="g-ytitle"/><g class="annotation" data-index="0" style="opacity: 1;"><g class="annotation-text-g" transform="rotate(0,367.86666666666673,30.5)"><g class="cursor-pointer" transform="translate(339, 20)"><rect class="bg" x="0.5" y="0.5" width="56" height="20" style="stroke-width: 1px; stroke: rgb(0, 0, 0); stroke-opacity: 0; fill: rgb(0, 0, 0); fill-opacity: 0;"/><text class="annotation-text" text-anchor="middle" x="28.4375" y="15.5" style="font-family: 'Helvetica Neue'; font-size: 14px; fill: rgb(0, 0, 0); fill-opacity: 1; white-space: pre;">INDPRO</text></g></g></g></g></svg>