<svg class="main-svg" xmlns="http://www.w3.org/2000/svg" xmlns:xlink="http://www.w3.org/1999/xlink" width="800" height="250" viewBox="0 0 800 250"><rect x="0" y="0" width="800" height="250" style="fill: rgb(255, 255, 255); fill-opacity: 1;"/><defs id="defs-c248e8"><g class="clips"><clipPath id="clipc248e8xyplot" class="plotclip"><rect width="641.871653543307" height="167.5958005249344"/></clipPath><clipPath class="axesclip" id="clipc248e8x"><rect x="66.26417322834646" y="0" width="641.871653543307" height="250"/></clipPath><clipPath class="axesclip" id="clipc248e8y"><rect x="0" y="36.535433070866134" width="800" height="167.5958005249344"/></clipPath><clipPath class="axesclip" id="clipc248e8xy"><rect x="66.26417322834646" y="36.535433070866134" width="641.871653543307" height="167.5958005249344"/></clipPath></g><g class="gradients"/></defs><g class="bglayer"/><g class="layer-below"><g class="imagelayer"/><g class="shapelayer"/></g><g class="cartesianlayer"><g class="subplot xy"><g class="layer-subplot"><g class="shapelayer"/><g class="imagelayer"/></g><g class="gridlayer"><g class="x"><path class="xgrid crisp" transform="translate(67.62417322834646,0)" d="M0,36.535433070866134v167.5958005249344" style="stroke: rgb(0, 0, 0); stroke-opacity: 0.1; stroke-width: 0.5px;"/><path class="xgrid crisp" transform="translate(235.85417322834647,0)" d="M0,36.535433070866134v167.5958005249344" style="stroke: rgb(0, 0, 0); stroke-opacity: 0.1; stroke-width: 0.5px;"/><path class="xgrid crisp" transform="translate(404.03417322834645,0)" d="M0,36.535433070866134v167.5958005249344" style="stroke: rgb(0, 0, 0); stroke-opacity: 0.1; stroke-width: 0.5px;"/><path class="xgrid crisp" transform="translate(572.2641732283464,0)" d="M0,36.535433070866134v167.5958005249344" style="stroke: rgb(0, 0, 0); stroke-opacity: 0.1; stroke-width: 0.5px;"/></g><g class="y"><path class="ygrid crisp" transform="translate(0,179.65543307086614)" d="M66.26417322834646,0h641.871653543307" style="stroke: rgb(0, 0, 0); stroke-opacity: 0.1; stroke-width: 0.5px;"/><path class="ygrid crisp" transform="translate(0,139.35543307086613)" d="M66.26417322834646,0h641.871653543307" style="stroke: rgb(0, 0, 0); stroke-opacity: 0.1; stroke-width: 0.5px;"/><path class="ygrid crisp" transform="translate(0,99.04543307086612)" d="M66.26417322834646,0h641.871653543307" style="stroke: rgb(0, 0, 0); stroke-opacity: 0.1; stroke-width: 0.5px;"/><path class="ygrid crisp" transform="translate(0,58.73543307086614)" d="M66.26417322834646,0h641.871653543307" style="stroke: rgb(0, 0, 0); stroke-opacity: 0.1; stroke-width: 0.5px;"/></g></g><g class="zerolinelayer"/><path class="xlines-below"/><path class="ylines-below"/><g class="overlines-below"/><g class="xaxislayer-below"/><g class="yaxislayer-below"/><g class="overaxes-below"/><g class="plot" transform="translate(66.26417322834646, 36.535433070866134)" clip-path="url('#clipc248e8xyplot')"><g class="scatterlayer mlayer"><g class="trace scatter trace5ad125" style="stroke-miterlimit: 2; opacity: 1;"><g class="fills"/><g class="errorbars"/><g class="lines"><path class="js-line" d="M18.17,20.48L20.93,26.79L22.36,30.7L27.98,43.87L29.4,45.06L35.02,49.7L36.45,49.22L37.74,51.18L39.17,50.84L41.98,51.8L43.36,51.1L46.21,48.93L47.59,46.36L50.4,43.92L51.83,46.13L53.26,46.52L54.55,44.2L55.97,44.8L57.36,43.57L68.64,23.87L70.07,24.07L71.36,23.76L72.78,21.52L78.4,20.42L79.83,19.3L91.02,40.94L92.45,42.95L93.83,44.9L95.26,45.08L98.07,47.8L99.49,49.73L100.88,52.01L102.3,57.43L103.73,59.35L105.02,59.09L106.45,63.42L107.83,63.5L109.26,63.73L110.64,61.35L112.07,61.31L113.49,60.37L119.11,53.33L120.54,54.34L121.83,57.08L123.26,56.13L126.07,62.33L127.45,66.86L131.68,78.7L133.11,78.06L135.92,72.78L137.35,66.93L138.64,57.58L140.07,52.71L141.45,48.46L142.88,46.69L145.68,46.03L147.11,47.37L148.49,47.52L149.92,45.39L154.16,34.21L155.49,33.89L156.92,32.77L158.3,33.36L159.73,33.91L161.11,36.16L162.54,37.31L163.97,36.25L166.78,37.66L168.16,37.19L171.01,39.12L172.3,38.76L175.11,37.55L176.54,35.48L177.92,34.03L179.35,31.35L182.16,27.13L183.59,25.58L189.11,18.07L190.54,18.48L193.35,18.57L194.73,18.13L197.59,19.75L198.97,21.68L201.78,28.03L203.2,31.74L205.92,35.84L207.35,33.95L208.73,32.54L210.16,32.4L211.54,30.78L212.97,30.47L214.39,32.34L215.78,31.99L218.58,28.84L220.01,24.31L221.44,22.24L222.78,18.91L225.58,13.86L227.01,13.73L229.82,13.52L231.25,15.4L236.87,11.73L238.3,11.99L241.01,13.53L242.39,11.67L245.2,5.62L246.63,4.74L249.44,8.93L250.87,14.3L255.1,29.07L256.39,31.38L257.82,31.27L259.2,32.1L262.01,24.86L263.44,24.52L264.87,22.39L266.25,23.57L267.68,24.83L269.06,27.08L274.63,33.24L276.01,34.07L280.25,30.69L281.68,27.95L284.49,32.08L285.87,35.65L290.06,46.11L291.49,51.37L299.91,72.29L301.34,76.3L302.72,80.42L304.15,82.22L306.87,85.53L308.29,83.61L309.68,82.89L311.1,80.93L315.34,70.95L316.72,66.22L319.53,55.88L320.96,52.89L323.68,47.88L325.1,48.6L326.49,48.45L327.91,50.78L329.29,49.98L330.72,50.86L333.53,53.36L334.96,53.31L336.34,51.32L337.77,52.09L340.48,54.4L341.91,52.74L344.72,48.81L346.1,44.28L347.53,41.7L348.96,41.97L350.34,41.1L351.77,41.94L353.15,40.95L354.58,38.55L357.34,39.53L358.77,38.41L360.15,38.91L361.58,36.68L365.81,33.4L367.2,34.03L370,33.22L371.43,35.18L372.86,37.86L374.15,37.73L376.96,41.81L378.39,43.24L381.2,43.34L382.62,40.93L384,40.77L385.43,41.7L386.81,42.35L388.24,44.41L390.96,45.5L392.39,44.17L393.77,44.26L395.19,45.22L398,46.48L399.43,47.97L402.24,44.81L403.62,46.36L406.48,44.92L407.77,46.97L410.58,54.11L412,58.9L419.05,86.12L420.43,93.73L428.86,140.88L430.24,150.8L431.67,158.58L433.1,160.82L434.48,162.85L435.9,161.38L437.29,154.23L438.71,140.84L441.43,114.03L442.86,98.22L447.05,59.2L448.48,52.21L452.71,37.61L454.1,33.13L455.52,31.13L456.95,27.58L458.24,26.75L459.67,27.9L463.86,37.34L465.29,39.6L468.1,41.49L469.52,40.64L473.76,41.74L475.05,43.18L479.29,40.79L480.67,41.55L483.52,41.73L484.9,42.08L486.33,40.77L487.71,41.46L491.9,48.45L493.33,50.2L497.52,54.54L498.95,54.43L500.38,54.26L501.76,51.89L503.19,50.87L504.57,52.11L507.42,54.7L508.71,54.71L512.95,57.55L514.33,56.67L518.57,57.18L520,56.6L521.38,55.4L522.81,52.21L524.23,51.29L525.52,52.74L528.33,54.88L529.76,56.68L534,60.99L535.38,61.46L538.19,65.48L539.61,66.42L541.04,66.14L542.33,67.06L545.14,68.49L546.57,68.03L549.38,69.81L550.8,68.32L553.61,67.13L555,65.19L556.42,65.57L557.85,64.85L559.19,62.33L560.61,61.77L567.66,52.27L569.04,51.37L571.85,48.85L573.28,49.18L576,48.62L577.42,47.8L580.23,49.79L581.61,49.75L584.47,45.22L585.85,45.92L588.66,46.48L590.09,45.21L592.8,46.98L594.23,49.64L597.04,50.2L598.42,52.25L606.9,63.97L608.32,64.69L609.61,65.48L611.04,64.36L615.23,63.2L616.66,63.85L618.09,63.13L619.47,60.75L623.71,60.03" style="vector-effect: non-scaling-stroke; fill: none; stroke: rgb(0, 0, 200); stroke-opacity: 1; stroke-width: 1px; opacity: 1;"/></g><g class="points"/><g class="text"/></g></g></g><g class="overplot"/><path class="xlines-above crisp" d="M65.26417322834646,204.63123359580052H709.1358267716535M65.26417322834646,36.035433070866134H709.1358267716535" style="fill: none; stroke-width: 1px; stroke: rgb(0, 0, 0); stroke-opacity: 1;"/><path class="ylines-above crisp" d="M65.76417322834646,36.535433070866134V204.13123359580052M708.6358267716535,36.535433070866134V204.13123359580052" style="fill: none; stroke-width: 1px; stroke: rgb(0, 0, 0); stroke-opacity: 1;"/><g class="overlines-above"/><g class="xaxislayer-above"><path class="xtick ticks crisp" d="M0,204.13123359580052v-5" transform="translate(67.62417322834646,0)" style="stroke: rgb(0, 0, 0); stroke-opacity: 1; stroke-width: 1px;"/><path class="xtick ticks crisp" d="M0,204.13123359580052v-5" transform="translate(235.85417322834647,0)" style="stroke: rgb(0, 0, 0); stroke-opacity: 1; stroke-width: 1px;"/><path class="xtick ticks crisp" d="M0,204.13123359580052v-5" transform="translate(404.03417322834645,0)" style="stroke: rgb(0, 0, 0); stroke-opacity: 1; stroke-width: 1px;"/><path class="xtick ticks crisp" d="M0,204.13123359580052v-5" transform="translate(572.2641732283464,0)" style="stroke: rgb(0, 0, 0); stroke-opacity: 1; stroke-width: 1px;"/><g class="xtick"><text text-anchor="middle" x="0" y="218.3312335958005" transform="translate(67.62417322834646,0)" style="font-family: 'Helvetica Neue'; font-size: 11px; fill: rgb(0, 0, 0); fill-opacity: 1; white-space: pre;">1983-01-01</text></g><g class="xtick"><text text-anchor="middle" x="0" y="218.3312335958005" transform="translate(235.85417322834647,0)" style="font-family: 'Helvetica Neue'; font-size: 11px; fill: rgb(0, 0, 0); fill-opacity: 1; white-space: pre;">1993-01-01</text></g><g class="xtick"><text text-anchor="middle" x="0" y="218.3312335958005" transform="translate(404.03417322834645,0)" style="font-family: 'Helvetica Neue'; font-size: 11px; fill: rgb(0, 0, 0); fill-opacity: 1; white-space: pre;">2003-01-01</text></g><g class="xtick"><text text-anchor="middle" x="0" y="218.3312335958005" transform="translate(572.2641732283464,0)" style="font-family: 'Helvetica Neue'; font-size: 11px; fill: rgb(0, 0, 0); fill-opacity: 1; white-space: pre;">2013-01-01</text></g></g><g class="yaxislayer-above"><path class="ytick ticks crisp" d="M66.26417322834646,0h5" transform="translate(0,179.65543307086614)" style="stroke: rgb(0, 0, 0); stroke-opacity: 1; stroke-width: 1px;"/><path class="ytick ticks crisp" d="M66.26417322834646,0h5" transform="translate(0,139.35543307086613)" style="stroke: rgb(0, 0, 0); stroke-opacity: 1; stroke-width: 1px;"/><path class="ytick ticks crisp" d="M66.26417322834646,0h5" transform="translate(0,99.04543307086612)" style="stroke: rgb(0, 0, 0); stroke-opacity: 1; stroke-width: 1px;"/><path class="ytick ticks crisp" d="M66.26417322834646,0h5" transform="translate(0,58.73543307086614)" style="stroke: rgb(0, 0, 0); stroke-opacity: 1; stroke-width: 1px;"/><g class="ytick"><text text-anchor="end" x="63.06417322834646" y="3.8499999999999996" transform="translate(0,179.65543307086614)" style="font-family: 'Helvetica Neue'; font-size: 11px; fill: rgb(0, 0, 0); fill-opacity: 1; white-space: pre;">-0.010</text></g><g class="ytick"><text text-anchor="end" x="63.06417322834646" y="3.8499999999999996" transform="translate(0,139.35543307086613)" style="font-family: 'Helvetica Neue'; font-size: 11px; fill: rgb(0, 0, 0); fill-opacity: 1; white-space: pre;">-0.005</text></g><g class="ytick"><text text-anchor="end" x="63.06417322834646" y="3.8499999999999996" transform="translate(0,99.04543307086612)" style="font-family: 'Helvetica Neue'; font-size: 11px; fill: rgb(0, 0, 0); fill-opacity: 1; white-space: pre;">0.000</text></g><g class="ytick"><text text-anchor="end" x="63.06417322834646" y="3.8499999999999996" transform="translate(0,58.73543307086614)" style="font-family: 'Helvetica Neue'; font-size: 11px; fill: rgb(0, 0, 0); fill-opacity: 1; white-space: pre;">0.005</text></g></g><g class="overaxes-above"/></g></g><g class="polarlayer"/><g class="ternarylayer"/><g class="geolayer"/><g class="funnelarealayer"/><g class="pielayer"/><g class="treemaplayer"/><g class="sunburstlayer"/><g class="glimages"/><defs id="topdefs-c248e8"><g class="clips"/><clipPath id="legendc248e8"><rect width="74" height="29" x="0" y="0"/></clipPath></defs><g class="layer-above"><g class="imagelayer"/><g class="shapelayer"/></g><g class="infolayer"><g class="legend" pointer-events="all" transform="translate(726, 110.5)"><rect class="bg" shape-rendering="crispEdges" width="74" height="29" x="0" y="0" style="stroke: rgb(0, 0, 0); stroke-opacity: 1; fill: rgb(255, 255, 255); fill-opacity: 1; stroke-width: 0px;"/><g class="scrollbox" transform="translate(0, 0)" clip-path="url('#legendc248e8')"><g class="groups" transform="translate(0, 0)"><g class="traces" transform="translate(0, 14.5)" style="opacity: 1;"><text class="legendtext user-select-none" text-anchor="start" x="40" y="4.29" style="font-family: sans-serif; font-size: 11px; fill: rgb(0, 0, 0); fill-opacity: 1; white-space: pre;">Slope</text><g class="layers" style="opacity: 1;"><g class="legendfill"/><g class="legendlines"><path class="js-line" d="M5,0h30" style="fill: none; stroke: rgb(0, 0, 200); stroke-opacity: 1; stroke-width: 1px;"/></g><g class="legendsymbols"><g class="legendpoints"/></g></g><rect class="legendtoggle" pointer-events="all" x="0" y="-9.5" width="68.125" height="19" style="cursor: pointer; fill: rgb(0, 0, 0); fill-opacity: 0;"/></g></g></g><rect class="scrollbar" rx="20" ry="3" width="0" height="0" x="0" y="0" style="fill: rgb(128, 139, 164); fill-opacity: 1;"/></g><g class="g-gtitle"/><g class="g-xtitle"/><g class="g-ytitle"/></g></svg>