<svg class="main-svg" xmlns="http://www.w3.org/2000/svg" xmlns:xlink="http://www.w3.org/1999/xlink" width="800" height="250" viewBox="0 0 800 250"><rect x="0" y="0" width="800" height="250" style="fill: rgb(255, 255, 255); fill-opacity: 1;"/><defs id="defs-ad2f57"><g class="clips"><clipPath id="clipad2f57xyplot" class="plotclip"><rect width="666.0716535433071" height="155.9291338582677"/></clipPath><clipPath class="axesclip" id="clipad2f57x"><rect x="42.06417322834646" y="0" width="666.0716535433071" height="250"/></clipPath><clipPath class="axesclip" id="clipad2f57y"><rect x="0" y="48.202099737532805" width="800" height="155.9291338582677"/></clipPath><clipPath class="axesclip" id="clipad2f57xy"><rect x="42.06417322834646" y="48.202099737532805" width="666.0716535433071" height="155.9291338582677"/></clipPath></g><g class="gradients"/></defs><g class="bglayer"/><g class="layer-below"><g class="imagelayer"/><g class="shapelayer"/></g><g class="cartesianlayer"><g class="subplot xy"><g class="layer-subplot"><g class="shapelayer"/><g class="imagelayer"/></g><g class="gridlayer"><g class="x"><path class="xgrid crisp" transform="translate(43.47417322834646,0)" d="M0,48.202099737532805v155.9291338582677" style="stroke: rgb(0, 0, 0); stroke-opacity: 0.1; stroke-width: 0.5px;"/><path class="xgrid crisp" transform="translate(218.04417322834644,0)" d="M0,48.202099737532805v155.9291338582677" style="stroke: rgb(0, 0, 0); stroke-opacity: 0.1; stroke-width: 0.5px;"/><path class="xgrid crisp" transform="translate(392.5641732283465,0)" d="M0,48.202099737532805v155.9291338582677" style="stroke: rgb(0, 0, 0); stroke-opacity: 0.1; stroke-width: 0.5px;"/><path class="xgrid crisp" transform="translate(567.1341732283465,0)" d="M0,48.202099737532805v155.9291338582677" style="stroke: rgb(0, 0, 0); stroke-opacity: 0.1; stroke-width: 0.5px;"/></g><g class="y"><path class="ygrid crisp" transform="translate(0,177.9020997375328)" d="M42.06417322834646,0h666.0716535433071" style="stroke: rgb(0, 0, 0); stroke-opacity: 0.1; stroke-width: 0.5px;"/><path class="ygrid crisp" transform="translate(0,142.3620997375328)" d="M42.06417322834646,0h666.0716535433071" style="stroke: rgb(0, 0, 0); stroke-opacity: 0.1; stroke-width: 0.5px;"/><path class="ygrid crisp" transform="translate(0,106.83209973753281)" d="M42.06417322834646,0h666.0716535433071" style="stroke: rgb(0, 0, 0); stroke-opacity: 0.1; stroke-width: 0.5px;"/><path class="ygrid crisp" transform="translate(0,71.30209973753281)" d="M42.06417322834646,0h666.0716535433071" style="stroke: rgb(0, 0, 0); stroke-opacity: 0.1; stroke-width: 0.5px;"/></g></g><g class="zerolinelayer"/><path class="xlines-below"/><path class="ylines-below"/><g class="overlines-below"/><g class="xaxislayer-below"/><g class="yaxislayer-below"/><g class="overaxes-below"/><g class="plot" transform="translate(42.06417322834646, 48.202099737532805)" clip-path="url('#clipad2f57xyplot')"><g class="scatterlayer mlayer"><g class="trace scatter tracee27512" style="stroke-miterlimit: 2; opacity: 1;"><g class="fills"/><g class="errorbars"/><g class="lines"><path class="js-line" d="M18.85,151.52L21.72,142.2L23.2,142.27L24.63,141.72L26.11,137.13L27.55,145.89L29.03,141.34L30.51,137.72L31.95,137.34L34.86,144L36.34,144.33L39.16,137.89L40.64,139.95L42.08,139L43.56,134.76L44.99,145.32L46.47,139.62L47.95,135.53L49.39,136.31L52.3,141.95L53.78,139.75L55.27,137.16L56.6,137.1L58.09,135.39L59.52,135.98L61,132.53L62.43,141.97L65.4,131.5L66.83,131.17L69.75,136.38L71.23,136.61L72.71,130.32L74.05,128.58L75.53,129.41L76.96,126.98L78.44,122.59L79.88,131.61L81.36,124.39L82.84,120.91L84.27,117.19L85.75,120L87.19,122.83L88.67,122.68L91.54,116.87L93.02,116.17L94.45,115.88L95.93,111.7L97.37,121.92L98.85,115.92L100.33,111.91L101.76,110.83L104.68,117.65L106.16,115.59L107.64,114.21L108.98,114.34L110.46,111.66L111.9,114.36L113.38,110.06L114.81,122.66L116.29,114.03L117.77,111.6L119.21,111.81L120.69,115.55L122.12,119.24L123.6,119.71L126.42,111.41L127.9,114.37L129.34,111.57L130.82,106.96L132.25,117.25L133.73,110.1L135.22,107.09L136.65,108.76L139.56,120.08L141.05,121.18L142.53,119.54L143.87,120.34L146.78,117.3L148.26,111.47L149.7,121.3L151.18,113.39L152.66,109.14L154.09,109.41L157.01,118.93L158.49,119.25L161.36,110.08L162.84,111.43L164.27,108.89L165.75,104.46L167.19,113.74L168.67,106.29L171.58,102.58L173.06,105.47L174.5,109.7L175.98,108.98L178.8,102.93L180.28,104.16L181.71,103L183.2,99.37L184.63,109.58L186.11,101.85L189.03,96.85L190.51,99.7L191.94,102.87L193.42,103.02L196.24,94.33L197.72,94.79L199.16,92.87L200.64,88.24L202.07,99.02L203.55,88.98L205.03,85.36L206.47,83.91L209.38,87.9L210.86,88.66L213.68,81.87L215.17,86.16L216.6,84.1L218.08,78.57L219.51,90.75L221,80.61L222.48,75.88L223.91,77.03L228.31,85.9L229.79,79.21L231.17,76.68L232.66,77.66L234.09,75.62L235.57,68.95L237.01,79.88L238.49,69.99L239.97,65.12L241.4,66.43L245.8,71.58L247.28,65.28L248.62,61.37L250.1,62.71L251.53,62.09L253.01,57.5L254.45,68.99L255.93,56.91L257.41,51.87L258.84,50.67L260.33,50.51L261.76,52.83L263.24,54.03L264.72,49.58L266.06,47.21L267.54,50.94L268.98,48.07L270.46,46.97L271.89,57.31L273.37,45.48L274.85,44.19L276.29,41.12L280.68,46.63L282.17,41.7L283.5,38.29L284.98,41.23L287.9,35.76L289.33,47.25L290.81,36.87L292.3,35.93L293.73,32.31L295.21,33.99L298.13,37.26L299.61,33.69L300.99,28.85L302.48,31.05L303.91,30.68L305.39,25.81L306.82,38.05L308.31,30.13L309.79,26.93L311.22,27.33L315.62,37.59L317.1,34.54L318.44,31.41L319.92,37.52L322.83,32.78L324.27,45.66L325.75,37.34L327.23,36.19L328.66,37.21L330.14,40.57L331.58,43.54L333.06,43.83L335.88,35.84L337.36,37L338.79,35.93L340.28,29.67L341.71,43.43L343.19,32.95L344.67,30.63L346.11,31.53L347.59,34.36L349.02,38.94L350.5,38.43L351.98,34.49L353.32,30.87L354.8,35.62L356.24,34.32L357.72,29.52L359.15,42.62L360.63,32.05L362.12,28.58L363.55,29.19L365.03,30.21L366.46,34.34L367.95,36.35L369.43,30.04L370.81,27.16L372.29,30.18L375.21,24.4L376.64,34.14L378.12,24.78L379.61,23.69L381.04,21.84L382.52,24.78L383.95,26.91L385.44,26.69L386.92,22.01L388.26,20.53L391.17,19.95L392.65,15.26L394.09,26.23L395.57,17.53L397.05,17.98L398.48,16.17L399.96,17.7L401.4,20.35L402.88,20.78L404.36,18L405.7,14.72L407.18,17.86L408.61,15.53L410.09,10.61L411.53,20.52L413.01,12.02L414.49,10.59L415.92,12.26L417.41,14.92L418.84,15.01L420.32,18.08L421.8,14.53L423.14,9.33L424.62,10.51L426.06,8.99L427.54,4.41L428.97,13.3L430.45,6.63L431.93,4.74L433.37,6.49L434.85,8L436.28,10.69L437.76,13.05L439.25,11.92L440.63,9.63L442.11,11.67L443.55,12.59L445.03,9.66L446.46,19.5L447.94,15.93L452.34,30.21L453.77,38.65L455.25,46.34L456.74,44.34L458.07,44.27L459.56,48.19L460.99,47.68L462.47,44.76L463.9,48.76L465.39,41.32L468.3,39.52L469.78,40.24L471.22,43.16L472.7,42.42L474.18,40.36L475.52,34.41L477,34.64L478.43,31.37L479.91,27.85L481.35,34.93L482.83,28.62L484.31,28.31L485.74,28.43L487.23,31.32L490.14,33.2L491.62,31.37L492.96,26.35L494.44,29.33L495.87,28.32L497.36,24.26L498.79,30.31L500.27,24.58L501.75,23.34L503.19,23.15L504.67,26.21L506.1,26.87L507.58,26.69L509.06,23.81L510.45,21.24L511.93,22.42L513.37,22.05L514.85,17.85L516.28,25.34L517.76,20.22L519.24,19.8L520.68,21.21L525.07,24.64L526.55,21.82L527.89,19.56L529.37,20.05L530.81,19.95L532.29,16.13L533.72,24.53L535.2,17.75L538.12,17.77L539.6,20.27L542.52,25.7L544,21.47L545.34,16.87L546.82,18.47L548.25,17.65L549.73,13.71L551.17,20.95L552.65,15.24L555.56,15.68L557.04,16.77L559.96,21.74L561.44,20.09L562.78,16.64L564.26,18.26L565.69,17.8L567.18,15.45L568.61,21.59L570.09,16.28L571.57,18.2L573.01,17.11L575.92,23.32L577.4,23.34L580.27,20.25L581.75,19.9L583.18,20.76L584.67,16.95L586.1,23.95L587.58,18.8L590.5,17.13L591.98,19.68L593.41,21.64L594.89,22L597.71,17.02L599.19,17.61L600.63,15.98L602.11,12.67L603.54,19.68L605.02,14.99L606.5,15.66L607.94,12.53L612.34,19.26L613.82,14.56L615.15,12.24L616.64,11.33L618.07,13.07L619.55,8.62L620.98,14.46L622.47,8.45L625.38,8.51L626.86,11.04L629.78,14.64L631.26,12.62L632.6,10.31L634.08,12.36L635.51,12.33L636.99,8.25L638.43,15.6L639.91,9.03L642.82,11.33L644.31,12.15L647.22,15.95" style="vector-effect: non-scaling-stroke; fill: none; stroke: rgb(185, 185, 185); stroke-opacity: 1; stroke-width: 1px; opacity: 1;"/></g><g class="points"/><g class="text"/></g><g class="trace scatter trace81b349" style="stroke-miterlimit: 2; opacity: 1;"><g class="fills"/><g class="errorbars"/><g class="lines"><path class="js-line" d="M18.85,147.52L21.72,143.4L23.2,142.55L26.11,141.44L27.55,140.39L29.03,141.4L30.51,141.46L34.86,140.22L36.34,140.44L37.82,140.83L39.16,139.05L40.64,140.21L42.08,139.55L43.56,139.1L44.99,139.68L49.39,139.99L50.87,139.07L52.3,138.16L53.78,135.92L56.6,137.97L58.09,135.78L61,136.86L62.43,136.18L66.83,134.99L68.31,134.14L69.75,132.68L71.23,132.63L72.71,129.93L74.05,129.4L75.53,129.73L76.96,127.52L79.88,125.67L81.36,124.84L82.84,124.46L84.27,121.18L87.19,119.11L88.67,118.75L91.54,117.6L93.02,116.58L97.37,115.79L98.85,116.48L103.25,114.35L104.68,113.85L106.16,111.7L107.64,113.73L108.98,114.99L110.46,112.11L111.9,114.72L113.38,114.66L114.81,116.27L116.29,114.82L120.69,115.6L122.12,115.48L123.6,115.62L125.08,113.54L126.42,112.3L127.9,114.43L129.34,112.08L130.82,111.49L133.73,110.93L135.22,110.96L139.56,116.31L141.05,117.05L143.87,121.24L145.35,118.4L146.78,117.81L148.26,115.99L152.66,113.02L154.09,113.41L157.01,115.19L158.49,115L161.36,111.34L162.84,111.2L165.75,108.88L167.19,107.22L170.15,108.1L171.58,106.53L173.06,105.79L174.5,106.05L177.46,104.02L178.8,104.37L181.71,103.62L183.2,103.8L184.63,102.83L186.11,102.95L187.59,102.36L189.03,100.72L194.9,98.37L196.24,96.01L199.16,93.46L200.64,92.77L202.07,91.96L203.55,90.22L206.47,87.63L207.95,86.38L210.86,84.04L212.35,84.38L213.68,83.74L215.17,85.55L218.08,83.2L219.51,83.44L222.48,79.91L223.91,80.59L226.83,80.08L228.31,81.02L229.79,78.68L231.17,78.56L234.09,76.13L235.57,73.56L238.49,71.44L239.97,69.1L241.4,69.86L242.88,68.52L245.8,66.69L247.28,64.71L250.1,62.09L251.53,62.7L254.45,61.43L255.93,58.56L260.33,51.07L261.76,49.97L264.72,48.92L266.06,49.35L267.54,50.14L268.98,48.88L270.46,51.32L271.89,49.77L273.37,47.33L274.85,47.59L276.29,44.68L277.77,43.78L280.68,41.84L282.17,40.93L286.42,39.69L287.9,40.24L290.81,38.75L292.3,39.2L293.73,35.85L295.21,34.45L298.13,32.55L299.61,32.75L302.48,30.25L303.91,31.29L305.39,30.46L306.82,30.73L308.31,31.9L309.79,30.38L314.14,31.11L315.62,32.92L318.44,33.8L319.92,36.59L321.35,36.33L322.83,37.53L328.66,40.43L330.14,41L334.54,39.13L335.88,38.09L337.36,36.19L338.79,36.41L340.28,34.59L341.71,36.24L344.67,34.08L346.11,34.61L347.59,34.83L349.02,35.81L350.5,33.88L351.98,33.56L353.32,33.07L354.8,34.74L357.72,34.33L359.15,35.71L362.12,31.93L363.55,32.17L365.03,30.66L366.46,31.32L367.95,31.7L369.43,29.19L372.29,29.37L373.73,27.86L375.21,29L376.64,27.68L379.61,26.75L381.04,24.85L382.52,25.04L383.95,24.02L386.92,21.08L388.26,22.25L389.74,19.91L391.17,20.36L392.65,19.82L394.09,20.19L395.57,19.84L397.05,20.88L399.96,17.89L401.4,17.61L402.88,16.3L404.36,16.78L405.7,16.48L407.18,17.21L410.09,15L411.53,15L414.49,13.57L415.92,14.9L417.41,15.01L418.84,12.48L420.32,13.55L421.8,13.1L424.62,9.95L426.06,9.36L428.97,8.33L430.45,8.85L431.93,7.66L433.37,8.99L436.28,8.12L437.76,8.59L440.63,11.26L442.11,11.18L445.03,13.61L446.46,15.01L447.94,18.26L449.42,23.76L450.86,26.05L452.34,30.39L455.25,41.86L456.74,42.75L459.56,47.66L460.99,48.1L462.47,48.41L463.9,44.71L469.78,40.39L471.22,40.43L472.7,38.28L474.18,38.53L478.43,31.84L479.91,31.48L484.31,30.94L485.74,30.8L487.23,31.26L488.66,30.02L490.14,29.16L491.62,29.54L492.96,28L494.44,28.89L497.36,27.92L498.79,26.6L500.27,26.73L501.75,25.91L503.19,25.47L504.67,26.03L507.58,22.63L509.06,22.14L510.45,22.68L511.93,22.17L513.37,22.28L514.85,21.6L519.24,22.26L520.68,23.42L525.07,20.49L526.55,20.24L527.89,20.87L529.37,19.94L532.29,19.91L533.72,20.87L536.69,19.91L538.12,20L541.03,20.45L542.52,21.5L545.34,18.2L546.82,18.38L551.17,17.45L552.65,17.49L554.13,17.3L555.56,17.9L557.04,16.81L558.48,17.08L561.44,18.5L562.78,17.85L567.18,19.03L568.61,18.24L570.09,18.57L571.57,20.09L573.01,19.46L574.49,20.01L575.92,20.71L577.4,19.36L580.27,21.24L581.75,20.05L583.18,20.86L584.67,20.59L587.58,21.07L589.06,20.11L596.37,17.82L597.71,17.96L599.19,17.77L600.63,16.06L606.5,17.3L607.94,14.95L610.85,14.73L612.34,15.08L613.82,13.3L615.15,13.13L616.64,11.61L618.07,12.97L623.95,10.55L625.38,10.78L626.86,11.02L628.3,10.29L632.6,11.3L634.08,12.52L639.91,11.56L641.39,12.43L642.82,13.44L644.31,12.23L647.22,11.85" style="vector-effect: non-scaling-stroke; fill: none; stroke: rgb(0, 0, 200); stroke-opacity: 1; stroke-width: 1px; opacity: 1;"/></g><g class="points"/><g class="text"/></g></g></g><g class="overplot"/><path class="xlines-above crisp" d="M41.06417322834646,204.6312335958005H709.1358267716536M41.06417322834646,47.702099737532805H709.1358267716536" style="fill: none; stroke-width: 1px; stroke: rgb(0, 0, 0); stroke-opacity: 1;"/><path class="ylines-above crisp" d="M41.56417322834646,48.202099737532805V204.1312335958005M708.6358267716536,48.202099737532805V204.1312335958005" style="fill: none; stroke-width: 1px; stroke: rgb(0, 0, 0); stroke-opacity: 1;"/><g class="overlines-above"/><g class="xaxislayer-above"><path class="xtick ticks crisp" d="M0,204.1312335958005v-5" transform="translate(43.47417322834646,0)" style="stroke: rgb(0, 0, 0); stroke-opacity: 1; stroke-width: 1px;"/><path class="xtick ticks crisp" d="M0,204.1312335958005v-5" transform="translate(218.04417322834644,0)" style="stroke: rgb(0, 0, 0); stroke-opacity: 1; stroke-width: 1px;"/><path class="xtick ticks crisp" d="M0,204.1312335958005v-5" transform="translate(392.5641732283465,0)" style="stroke: rgb(0, 0, 0); stroke-opacity: 1; stroke-width: 1px;"/><path class="xtick ticks crisp" d="M0,204.1312335958005v-5" transform="translate(567.1341732283465,0)" style="stroke: rgb(0, 0, 0); stroke-opacity: 1; stroke-width: 1px;"/><g class="xtick"><text text-anchor="middle" x="0" y="218.33123359580048" transform="translate(43.47417322834646,0)" style="font-family: 'Helvetica Neue'; font-size: 11px; fill: rgb(0, 0, 0); fill-opacity: 1; white-space: pre;">1983-01-01</text></g><g class="xtick"><text text-anchor="middle" x="0" y="218.33123359580048" transform="translate(218.04417322834644,0)" style="font-family: 'Helvetica Neue'; font-size: 11px; fill: rgb(0, 0, 0); fill-opacity: 1; white-space: pre;">1993-01-01</text></g><g class="xtick"><text text-anchor="middle" x="0" y="218.33123359580048" transform="translate(392.5641732283465,0)" style="font-family: 'Helvetica Neue'; font-size: 11px; fill: rgb(0, 0, 0); fill-opacity: 1; white-space: pre;">2003-01-01</text></g><g class="xtick"><text text-anchor="middle" x="0" y="218.33123359580048" transform="translate(567.1341732283465,0)" style="font-family: 'Helvetica Neue'; font-size: 11px; fill: rgb(0, 0, 0); fill-opacity: 1; white-space: pre;">2013-01-01</text></g></g><g class="yaxislayer-above"><path class="ytick ticks crisp" d="M42.06417322834646,0h5" transform="translate(0,177.9020997375328)" style="stroke: rgb(0, 0, 0); stroke-opacity: 1; stroke-width: 1px;"/><path class="ytick ticks crisp" d="M42.06417322834646,0h5" transform="translate(0,142.3620997375328)" style="stroke: rgb(0, 0, 0); stroke-opacity: 1; stroke-width: 1px;"/><path class="ytick ticks crisp" d="M42.06417322834646,0h5" transform="translate(0,106.83209973753281)" style="stroke: rgb(0, 0, 0); stroke-opacity: 1; stroke-width: 1px;"/><path class="ytick ticks crisp" d="M42.06417322834646,0h5" transform="translate(0,71.30209973753281)" style="stroke: rgb(0, 0, 0); stroke-opacity: 1; stroke-width: 1px;"/><g class="ytick"><text text-anchor="end" x="38.86417322834646" y="3.8499999999999996" transform="translate(0,177.9020997375328)" style="font-family: 'Helvetica Neue'; font-size: 11px; fill: rgb(0, 0, 0); fill-opacity: 1; white-space: pre;">4.0</text></g><g class="ytick"><text text-anchor="end" x="38.86417322834646" y="3.8499999999999996" transform="translate(0,142.3620997375328)" style="font-family: 'Helvetica Neue'; font-size: 11px; fill: rgb(0, 0, 0); fill-opacity: 1; white-space: pre;">4.2</text></g><g class="ytick"><text text-anchor="end" x="38.86417322834646" y="3.8499999999999996" transform="translate(0,106.83209973753281)" style="font-family: 'Helvetica Neue'; font-size: 11px; fill: rgb(0, 0, 0); fill-opacity: 1; white-space: pre;">4.4</text></g><g class="ytick"><text text-anchor="end" x="38.86417322834646" y="3.8499999999999996" transform="translate(0,71.30209973753281)" style="font-family: 'Helvetica Neue'; font-size: 11px; fill: rgb(0, 0, 0); fill-opacity: 1; white-space: pre;">4.6</text></g></g><g class="overaxes-above"/></g></g><g class="polarlayer"/><g class="ternarylayer"/><g class="geolayer"/><g class="funnelarealayer"/><g class="pielayer"/><g class="treemaplayer"/><g class="sunburstlayer"/><g class="glimages"/><defs id="topdefs-ad2f57"><g class="clips"/><clipPath id="legendad2f57"><rect width="74" height="48" x="0" y="0"/></clipPath></defs><g class="layer-above"><g class="imagelayer"/><g class="shapelayer"/></g><g class="infolayer"><g class="legend" pointer-events="all" transform="translate(726, 101)"><rect class="bg" shape-rendering="crispEdges" style="stroke: rgb(0, 0, 0); stroke-opacity: 1; fill: rgb(255, 255, 255); fill-opacity: 1; stroke-width: 0px;" width="74" height="48" x="0" y="0"/><g class="scrollbox" transform="translate(0, 0)" clip-path="url('#legendad2f57')"><g class="groups" transform="translate(0, 0)"><g class="traces" transform="translate(0, 14.5)" style="opacity: 1;"><text class="legendtext user-select-none" text-anchor="start" x="40" y="4.29" style="font-family: sans-serif; font-size: 11px; fill: rgb(0, 0, 0); fill-opacity: 1; white-space: pre;">Data</text><g class="layers" style="opacity: 1;"><g class="legendfill"/><g class="legendlines"><path class="js-line" d="M5,0h30" style="fill: none; stroke: rgb(185, 185, 185); stroke-opacity: 1; stroke-width: 1px;"/></g><g class="legendsymbols"><g class="legendpoints"/></g></g><rect class="legendtoggle" pointer-events="all" x="0" y="-9.5" width="68.3125" height="19" style="cursor: pointer; fill: rgb(0, 0, 0); fill-opacity: 0;"/></g></g><g class="groups" transform="translate(0, 0)"><g class="traces" transform="translate(0, 33.5)" style="opacity: 1;"><text class="legendtext user-select-none" text-anchor="start" x="40" y="4.29" style="font-family: sans-serif; font-size: 11px; fill: rgb(0, 0, 0); fill-opacity: 1; white-space: pre;">Trend</text><g class="layers" style="opacity: 1;"><g class="legendfill"/><g class="legendlines"><path class="js-line" d="M5,0h30" style="fill: none; stroke: rgb(0, 0, 200); stroke-opacity: 1; stroke-width: 1px;"/></g><g class="legendsymbols"><g class="legendpoints"/></g></g><rect class="legendtoggle" pointer-events="all" x="0" y="-9.5" width="68.3125" height="19" style="cursor: pointer; fill: rgb(0, 0, 0); fill-opacity: 0;"/></g></g></g><rect class="scrollbar" rx="20" ry="3" width="0" height="0" style="fill: rgb(128, 139, 164); fill-opacity: 1;" x="0" y="0"/></g><g class="g-gtitle"/><g class="g-xtitle"/><g class="g-ytitle"/><g class="annotation" data-index="0" style="opacity: 1;"><g class="annotation-text-g" transform="rotate(0,375.1,30.5)"><g class="cursor-pointer" transform="translate(346, 20)"><rect class="bg" x="0.5" y="0.5" width="57" height="20" style="stroke-width: 1px; stroke: rgb(0, 0, 0); stroke-opacity: 0; fill: rgb(0, 0, 0); fill-opacity: 0;"/><text class="annotation-text" text-anchor="middle" x="28.828125" y="15.5" style="font-family: 'Helvetica Neue'; font-size: 14px; fill: rgb(0, 0, 0); fill-opacity: 1; white-space: pre;">IPGMFN</text></g></g></g></g></svg>