<svg class="main-svg" xmlns="http://www.w3.org/2000/svg" xmlns:xlink="http://www.w3.org/1999/xlink" width="800" height="250" viewBox="0 0 800 250"><rect x="0" y="0" width="800" height="250" style="fill: rgb(255, 255, 255); fill-opacity: 1;"/><defs id="defs-2e1368"><g class="clips"><clipPath id="clip2e1368xyplot" class="plotclip"><rect width="681.2587926509186" height="194.0524934383202"/></clipPath><clipPath class="axesclip" id="clip2e1368x"><rect x="27.237270341207353" y="0" width="681.2587926509186" height="250"/></clipPath><clipPath class="axesclip" id="clip2e1368y"><rect x="0" y="23.307086614173222" width="800" height="194.0524934383202"/></clipPath><clipPath class="axesclip" id="clip2e1368xy"><rect x="27.237270341207353" y="23.307086614173222" width="681.2587926509186" height="194.0524934383202"/></clipPath></g><g class="gradients"/></defs><g class="bglayer"/><g class="layer-below"><g class="imagelayer"/><g class="shapelayer"/></g><g class="cartesianlayer"><g class="subplot xy"><g class="layer-subplot"><g class="shapelayer"/><g class="imagelayer"/></g><g class="gridlayer"><g class="x"><path class="xgrid crisp" transform="translate(29.037270341207353,0)" d="M0,23.307086614173222v194.0524934383202" style="stroke: rgb(0, 0, 0); stroke-opacity: 0.1; stroke-width: 0.5px;"/><path class="xgrid crisp" transform="translate(203.94727034120737,0)" d="M0,23.307086614173222v194.0524934383202" style="stroke: rgb(0, 0, 0); stroke-opacity: 0.1; stroke-width: 0.5px;"/><path class="xgrid crisp" transform="translate(378.80727034120736,0)" d="M0,23.307086614173222v194.0524934383202" style="stroke: rgb(0, 0, 0); stroke-opacity: 0.1; stroke-width: 0.5px;"/><path class="xgrid crisp" transform="translate(553.7172703412074,0)" d="M0,23.307086614173222v194.0524934383202" style="stroke: rgb(0, 0, 0); stroke-opacity: 0.1; stroke-width: 0.5px;"/></g><g class="y"><path class="ygrid crisp" transform="translate(0,211.8770866141732)" d="M27.237270341207353,0h681.2587926509186" style="stroke: rgb(0, 0, 0); stroke-opacity: 0.1; stroke-width: 0.5px;"/><path class="ygrid crisp" transform="translate(0,159.9770866141732)" d="M27.237270341207353,0h681.2587926509186" style="stroke: rgb(0, 0, 0); stroke-opacity: 0.1; stroke-width: 0.5px;"/><path class="ygrid crisp" transform="translate(0,108.07708661417323)" d="M27.237270341207353,0h681.2587926509186" style="stroke: rgb(0, 0, 0); stroke-opacity: 0.1; stroke-width: 0.5px;"/><path class="ygrid crisp" transform="translate(0,56.17708661417322)" d="M27.237270341207353,0h681.2587926509186" style="stroke: rgb(0, 0, 0); stroke-opacity: 0.1; stroke-width: 0.5px;"/></g></g><g class="zerolinelayer"/><path class="xlines-below"/><path class="ylines-below"/><g class="overlines-below"/><g class="xaxislayer-below"/><g class="yaxislayer-below"/><g class="overaxes-below"/><g class="plot" transform="translate(27.237270341207353, 23.307086614173222)" clip-path="url('#clip2e1368xyplot')"><g class="scatterlayer mlayer"><g class="trace scatter traceaf683e" style="stroke-miterlimit: 2; opacity: 1;"><g class="fills"/><g class="errorbars"/><g class="lines"><path class="js-line" d="M19.28,188.56L28,181.61L29.48,181.36L32.4,182.24L33.88,181.22L39.63,180.04L41.11,180.75L44.04,180.19L45.47,181.89L48.44,179.7L49.88,180.77L51.36,179.9L52.8,177.19L54.28,175.99L55.77,177.7L57.11,179.5L58.59,179.41L60.03,178.85L61.51,179.7L62.95,178.25L64.43,178.6L67.35,176.86L68.84,175.68L70.27,173.5L71.76,174.3L73.24,170.93L74.58,170.59L83.39,161.48L84.83,157.72L87.75,155.08L89.23,154.97L93.59,151.86L95.03,152.16L99.43,150.31L100.92,151.02L105.27,148.06L106.76,147.28L108.24,148.46L109.58,147.87L111.07,147.7L112.5,149.42L113.99,149.3L115.42,151.69L116.91,149.31L118.39,150.21L119.83,150.38L121.31,149.53L122.75,147.96L124.23,149.69L127.06,145.89L128.54,146.29L131.46,144.9L132.9,145.24L135.87,144.06L137.31,146.02L140.23,150.77L141.71,151.9L144.54,155.08L146.02,154.57L148.94,149.63L150.38,149.32L151.86,149.1L153.35,146.8L157.7,148.59L159.19,150.04L164.98,143.24L166.46,143.2L167.9,140.86L169.39,142.15L170.87,141.54L172.31,139.6L178.2,136L179.54,136.36L181.02,135.45L182.46,136.36L186.86,135.4L188.35,134.16L191.27,131.1L192.7,129.69L195.67,128.63L197.01,126.03L204.34,119.65L205.82,118.67L210.18,112.17L211.66,111.7L214.49,111.75L215.97,111.91L218.89,110.16L220.33,111.19L221.81,107.93L223.3,106.9L224.74,107.22L226.22,106.56L227.66,105.57L229.14,107.28L230.62,103.31L232.01,103.55L236.42,97.11L237.85,97.45L240.82,94.17L242.26,94.32L245.18,90.36L246.66,89.99L249.49,85.14L250.97,85.08L255.33,80.33L256.81,77.63L261.22,70.85L262.66,70.05L265.62,68.38L266.97,68.2L269.89,65.6L271.37,67.23L272.81,68.14L274.29,62.86L275.78,63.37L277.21,61.28L278.7,61.45L280.13,60.48L284.44,57.48L285.93,56.78L287.36,55L288.85,55.43L291.77,52.7L293.25,53.8L294.69,50.36L296.17,49.14L297.61,47.14L299.09,47.1L301.97,45.39L303.45,43.52L306.37,42.83L307.81,43.23L309.29,43.99L310.78,42.99L312.21,43.75L313.7,43.68L315.13,44.41L316.62,46.08L319.44,48.36L320.93,49.11L325.28,53.75L326.77,54.07L331.17,57.47L332.61,57.41L334.09,55.77L335.58,55.84L338.4,52.66L339.84,51.57L341.32,49.11L342.76,49.73L345.73,49.34L347.17,50.12L348.65,48.77L350.09,50.05L351.57,48.08L353.05,47.71L354.39,48.31L355.88,50.17L358.8,49.67L360.24,48.53L361.72,48.9L363.2,47.37L364.64,47.01L366.13,45.02L367.56,45.2L369.05,44.54L370.53,42.97L371.92,44.27L374.84,41.05L376.32,43.2L377.76,41.2L379.24,41.01L380.73,40.79L382.17,38.34L383.65,37.79L385.09,35.89L388.05,32.92L389.4,33.33L393.8,31.56L395.24,32.38L396.72,31.67L398.21,36.56L401.13,30.69L402.56,29.09L406.87,28.24L408.36,27.2L409.79,27.46L411.28,26.46L412.71,26.56L414.2,25.54L418.6,26.46L420.04,23.78L421.52,25.13L423.01,22.53L424.35,21.97L425.83,20.15L431.67,19.47L433.16,18.47L434.59,19.56L436.08,18.04L439,18.71L440.48,19.58L441.87,20.2L443.36,22.17L447.71,25.62L449.2,29.62L450.68,41.13L452.12,38.67L453.6,41.95L455.04,49.65L456.52,55.89L458.01,57.57L459.35,61.72L460.83,63.8L462.27,66.43L463.75,67.44L468.16,59.75L469.59,58.93L472.52,57.1L474,54.11L476.82,51.48L478.31,50.51L479.75,46.75L481.23,46.37L485.63,43.84L487.07,44.53L488.56,44.46L489.99,41.96L491.48,42.29L492.96,43.43L494.3,40.87L495.79,41.8L498.71,40.46L500.14,39.08L501.63,37.63L503.11,37.7L504.55,35.91L506.03,36.12L510.44,32.51L511.83,33.72L513.31,31.78L514.75,31.29L517.67,30.65L519.15,31.9L522.07,31.22L523.56,29.97L524.99,29.06L526.48,29.4L529.3,26.87L530.79,27.31L533.71,26.5L535.14,27.61L538.11,24.57L539.55,25.02L542.47,23.47L543.95,24.56L546.78,19.88L548.26,19.76L552.62,17.34L554.1,17.63L557.02,16.8L558.51,14.78L559.95,15.16L561.43,16.45L568.66,22.05L570.1,20.54L573.06,21.9L574.5,22.85L577.42,26.13L578.91,23.97L581.78,27.88L583.26,27.62L584.7,27.84L586.18,26.7L587.62,26.05L589.1,26.28L593.51,26.26L594.95,24.03L596.43,23.76L597.91,24.74L600.74,20.67L602.18,20.32L605.1,19.99L606.58,21.23L608.06,21.22L609.5,17.31L612.42,15.09L613.91,15.75L616.73,13.36L618.22,11.02L619.65,13.09L621.14,11.14L625.54,7.56L626.98,6.99L628.46,5.6L629.9,5.49L632.87,7.82L634.21,7.54L635.69,9.18L637.13,8.62L640.05,8.88L641.53,6.96L643.02,7.75L644.45,9.94" style="vector-effect: non-scaling-stroke; fill: none; stroke: rgb(0, 0, 200); stroke-opacity: 1; stroke-width: 1px; opacity: 1;"/></g><g class="points"/><g class="text"/></g><g class="trace scatter trace048024" style="stroke-miterlimit: 2; opacity: 1;"><g class="fills"/><g class="errorbars"/><g class="lines"><path class="js-line" d="M645.94,10.14L653.22,10.29L654.65,10.18L661.98,9.23" style="vector-effect: non-scaling-stroke; fill: none; stroke: rgb(0, 0, 200); stroke-opacity: 1; stroke-width: 1px; opacity: 1; stroke-dasharray: 3px, 3px;"/></g><g class="points"/><g class="text"/></g></g></g><g class="overplot"/><path class="xlines-above crisp" d="M26.237270341207353,217.8595800524934H709.496062992126M26.237270341207353,22.807086614173222H709.496062992126" style="fill: none; stroke-width: 1px; stroke: rgb(0, 0, 0); stroke-opacity: 1;"/><path class="ylines-above crisp" d="M26.737270341207353,23.307086614173222V217.3595800524934M708.996062992126,23.307086614173222V217.3595800524934" style="fill: none; stroke-width: 1px; stroke: rgb(0, 0, 0); stroke-opacity: 1;"/><g class="overlines-above"/><g class="xaxislayer-above"><path class="xtick ticks crisp" d="M0,217.3595800524934v-5" transform="translate(29.037270341207353,0)" style="stroke: rgb(0, 0, 0); stroke-opacity: 1; stroke-width: 1px;"/><path class="xtick ticks crisp" d="M0,217.3595800524934v-5" transform="translate(203.94727034120737,0)" style="stroke: rgb(0, 0, 0); stroke-opacity: 1; stroke-width: 1px;"/><path class="xtick ticks crisp" d="M0,217.3595800524934v-5" transform="translate(378.80727034120736,0)" style="stroke: rgb(0, 0, 0); stroke-opacity: 1; stroke-width: 1px;"/><path class="xtick ticks crisp" d="M0,217.3595800524934v-5" transform="translate(553.7172703412074,0)" style="stroke: rgb(0, 0, 0); stroke-opacity: 1; stroke-width: 1px;"/><g class="xtick"><text text-anchor="middle" x="0" y="231.5595800524934" transform="translate(29.037270341207353,0)" style="font-family: 'Helvetica Neue'; font-size: 11px; fill: rgb(0, 0, 0); fill-opacity: 1; white-space: pre;">1983-01-01</text></g><g class="xtick"><text text-anchor="middle" x="0" y="231.5595800524934" transform="translate(203.94727034120737,0)" style="font-family: 'Helvetica Neue'; font-size: 11px; fill: rgb(0, 0, 0); fill-opacity: 1; white-space: pre;">1993-01-01</text></g><g class="xtick"><text text-anchor="middle" x="0" y="231.5595800524934" transform="translate(378.80727034120736,0)" style="font-family: 'Helvetica Neue'; font-size: 11px; fill: rgb(0, 0, 0); fill-opacity: 1; white-space: pre;">2003-01-01</text></g><g class="xtick"><text text-anchor="middle" x="0" y="231.5595800524934" transform="translate(553.7172703412074,0)" style="font-family: 'Helvetica Neue'; font-size: 11px; fill: rgb(0, 0, 0); fill-opacity: 1; white-space: pre;">2013-01-01</text></g></g><g class="yaxislayer-above"><path class="ytick ticks crisp" d="M27.237270341207353,0h5" transform="translate(0,211.8770866141732)" style="stroke: rgb(0, 0, 0); stroke-opacity: 1; stroke-width: 1px;"/><path class="ytick ticks crisp" d="M27.237270341207353,0h5" transform="translate(0,159.9770866141732)" style="stroke: rgb(0, 0, 0); stroke-opacity: 1; stroke-width: 1px;"/><path class="ytick ticks crisp" d="M27.237270341207353,0h5" transform="translate(0,108.07708661417323)" style="stroke: rgb(0, 0, 0); stroke-opacity: 1; stroke-width: 1px;"/><path class="ytick ticks crisp" d="M27.237270341207353,0h5" transform="translate(0,56.17708661417322)" style="stroke: rgb(0, 0, 0); stroke-opacity: 1; stroke-width: 1px;"/><g class="ytick"><text text-anchor="end" x="24.037270341207353" y="3.8499999999999996" transform="translate(0,211.8770866141732)" style="font-family: 'Helvetica Neue'; font-size: 11px; fill: rgb(0, 0, 0); fill-opacity: 1; white-space: pre;">4.0</text></g><g class="ytick"><text text-anchor="end" x="24.037270341207353" y="3.8499999999999996" transform="translate(0,159.9770866141732)" style="font-family: 'Helvetica Neue'; font-size: 11px; fill: rgb(0, 0, 0); fill-opacity: 1; white-space: pre;">4.2</text></g><g class="ytick"><text text-anchor="end" x="24.037270341207353" y="3.8499999999999996" transform="translate(0,108.07708661417323)" style="font-family: 'Helvetica Neue'; font-size: 11px; fill: rgb(0, 0, 0); fill-opacity: 1; white-space: pre;">4.4</text></g><g class="ytick"><text text-anchor="end" x="24.037270341207353" y="3.8499999999999996" transform="translate(0,56.17708661417322)" style="font-family: 'Helvetica Neue'; font-size: 11px; fill: rgb(0, 0, 0); fill-opacity: 1; white-space: pre;">4.6</text></g></g><g class="overaxes-above"/></g></g><g class="polarlayer"/><g class="ternarylayer"/><g class="geolayer"/><g class="funnelarealayer"/><g class="pielayer"/><g class="treemaplayer"/><g class="sunburstlayer"/><g class="glimages"/><defs id="topdefs-2e1368"><g class="clips"/><clipPath id="legend2e1368"><rect width="88" height="48" x="0" y="0"/></clipPath></defs><g class="layer-above"><g class="imagelayer"/><g class="shapelayer"/></g><g class="infolayer"><g class="legend" pointer-events="all" transform="translate(712, 101)"><rect class="bg" shape-rendering="crispEdges" style="stroke: rgb(0, 0, 0); stroke-opacity: 1; fill: rgb(255, 255, 255); fill-opacity: 1; stroke-width: 0px;" width="88" height="48" x="0" y="0"/><g class="scrollbox" transform="translate(0, 0)" clip-path="url('#legend2e1368')"><g class="groups" transform="translate(0, 0)"><g class="traces" transform="translate(0, 14.5)" style="opacity: 1;"><text class="legendtext user-select-none" text-anchor="start" x="40" y="4.29" style="font-family: sans-serif; font-size: 11px; fill: rgb(0, 0, 0); fill-opacity: 1; white-space: pre;">Data</text><g class="layers" style="opacity: 1;"><g class="legendfill"/><g class="legendlines"><path class="js-line" d="M5,0h30" style="fill: none; stroke: rgb(0, 0, 200); stroke-opacity: 1; stroke-width: 1px;"/></g><g class="legendsymbols"><g class="legendpoints"/></g></g><rect class="legendtoggle" pointer-events="all" x="0" y="-9.5" width="82.78125" height="19" style="cursor: pointer; fill: rgb(0, 0, 0); fill-opacity: 0;"/></g></g><g class="groups" transform="translate(0, 0)"><g class="traces" transform="translate(0, 33.5)" style="opacity: 1;"><text class="legendtext user-select-none" text-anchor="start" x="40" y="4.29" style="font-family: sans-serif; font-size: 11px; fill: rgb(0, 0, 0); fill-opacity: 1; white-space: pre;">Forecast</text><g class="layers" style="opacity: 1;"><g class="legendfill"/><g class="legendlines"><path class="js-line" d="M5,0h30" style="fill: none; stroke: rgb(0, 0, 200); stroke-opacity: 1; stroke-dasharray: 3px, 3px; stroke-width: 1px;"/></g><g class="legendsymbols"><g class="legendpoints"/></g></g><rect class="legendtoggle" pointer-events="all" x="0" y="-9.5" width="82.78125" height="19" style="cursor: pointer; fill: rgb(0, 0, 0); fill-opacity: 0;"/></g></g></g><rect class="scrollbar" rx="20" ry="3" width="0" height="0" style="fill: rgb(128, 139, 164); fill-opacity: 1;" x="0" y="0"/></g><g class="g-gtitle"/><g class="g-xtitle"/><g class="g-ytitle"/></g></svg>