<svg class="main-svg" xmlns="http://www.w3.org/2000/svg" xmlns:xlink="http://www.w3.org/1999/xlink" width="800" height="250" viewBox="0 0 800 250"><rect x="0" y="0" width="800" height="250" style="fill: rgb(255, 255, 255); fill-opacity: 1;"/><defs id="defs-e26dd5"><g class="clips"><clipPath id="clipe26dd5xyplot" class="plotclip"><rect width="694.6543307086614" height="194.0524934383202"/></clipPath><clipPath class="axesclip" id="clipe26dd5x"><rect x="27.772834645669295" y="0" width="694.6543307086614" height="250"/></clipPath><clipPath class="axesclip" id="clipe26dd5y"><rect x="0" y="23.307086614173222" width="800" height="194.0524934383202"/></clipPath><clipPath class="axesclip" id="clipe26dd5xy"><rect x="27.772834645669295" y="23.307086614173222" width="694.6543307086614" height="194.0524934383202"/></clipPath></g><g class="gradients"/></defs><g class="bglayer"/><g class="layer-below"><g class="imagelayer"/><g class="shapelayer"/></g><g class="cartesianlayer"><g class="subplot xy"><g class="layer-subplot"><g class="shapelayer"/><g class="imagelayer"/></g><g class="gridlayer"><g class="x"><path class="xgrid crisp" transform="translate(29.072834645669296,0)" d="M0,23.307086614173222v194.0524934383202" style="stroke: rgb(0, 0, 0); stroke-opacity: 0.1; stroke-width: 0.5px;"/><path class="xgrid crisp" transform="translate(194.4228346456693,0)" d="M0,23.307086614173222v194.0524934383202" style="stroke: rgb(0, 0, 0); stroke-opacity: 0.1; stroke-width: 0.5px;"/><path class="xgrid crisp" transform="translate(359.8328346456693,0)" d="M0,23.307086614173222v194.0524934383202" style="stroke: rgb(0, 0, 0); stroke-opacity: 0.1; stroke-width: 0.5px;"/><path class="xgrid crisp" transform="translate(525.1828346456693,0)" d="M0,23.307086614173222v194.0524934383202" style="stroke: rgb(0, 0, 0); stroke-opacity: 0.1; stroke-width: 0.5px;"/><path class="xgrid crisp" transform="translate(690.5428346456692,0)" d="M0,23.307086614173222v194.0524934383202" style="stroke: rgb(0, 0, 0); stroke-opacity: 0.1; stroke-width: 0.5px;"/></g><g class="y"><path class="ygrid crisp" transform="translate(0,184.7170866141732)" d="M27.772834645669295,0h694.6543307086614" style="stroke: rgb(0, 0, 0); stroke-opacity: 0.1; stroke-width: 0.5px;"/><path class="ygrid crisp" transform="translate(0,140.4970866141732)" d="M27.772834645669295,0h694.6543307086614" style="stroke: rgb(0, 0, 0); stroke-opacity: 0.1; stroke-width: 0.5px;"/><path class="ygrid crisp" transform="translate(0,96.26708661417322)" d="M27.772834645669295,0h694.6543307086614" style="stroke: rgb(0, 0, 0); stroke-opacity: 0.1; stroke-width: 0.5px;"/><path class="ygrid crisp" transform="translate(0,52.047086614173224)" d="M27.772834645669295,0h694.6543307086614" style="stroke: rgb(0, 0, 0); stroke-opacity: 0.1; stroke-width: 0.5px;"/></g></g><g class="zerolinelayer"/><path class="xlines-below"/><path class="ylines-below"/><g class="overlines-below"/><g class="xaxislayer-below"/><g class="yaxislayer-below"/><g class="overaxes-below"/><g class="plot" transform="translate(27.772834645669295, 23.307086614173222)" clip-path="url('#clipe26dd5xyplot')"><g class="scatterlayer mlayer"><g class="trace scatter tracea3b37a" style="stroke-miterlimit: 2; opacity: 1;"><g class="fills"/><g class="errorbars"/><g class="lines"><path class="js-line" d="M19.66,188.56L22.68,176.96L24.24,177.05L25.75,176.37L27.31,170.66L28.82,181.56L30.38,175.89L31.93,171.39L33.44,170.91L36.51,179.2L38.07,179.62L41.04,171.61L42.6,174.17L44.11,172.98L45.67,167.71L47.18,180.85L48.74,173.75L50.3,168.66L51.81,169.63L54.87,176.66L56.43,173.91L57.99,170.69L59.4,170.62L60.96,168.49L62.47,169.23L64.03,164.93L65.54,176.68L68.66,163.66L70.17,163.24L73.24,169.72L74.8,170.01L76.35,162.19L77.76,160.01L79.32,161.05L80.83,158.02L82.39,152.56L83.9,163.79L85.46,154.8L87.02,150.47L88.53,145.84L90.09,149.34L91.6,152.87L93.16,152.68L96.18,145.44L97.73,144.57L99.24,144.21L100.8,139.02L102.31,151.73L103.87,144.26L105.43,139.27L106.94,137.92L110.01,146.41L111.57,143.85L113.13,142.13L114.54,142.3L116.1,138.96L117.61,142.32L119.16,136.97L120.67,152.65L122.23,141.9L123.79,138.88L125.3,139.15L126.86,143.8L128.37,148.4L129.93,148.97L132.9,138.64L134.46,142.34L135.97,138.85L137.53,133.11L139.04,145.91L140.6,137.02L142.15,133.27L143.66,135.35L146.73,149.44L148.29,150.81L149.85,148.77L151.26,149.76L154.33,145.97L155.89,138.72L157.4,150.96L158.96,141.11L160.52,135.83L162.03,136.16L165.09,148.01L166.65,148.41L169.67,136.99L171.23,138.67L172.74,135.51L174.3,130.01L175.81,141.54L177.37,132.28L180.44,127.65L182,131.26L183.51,136.52L185.07,135.63L188.03,128.09L189.59,129.62L191.1,128.18L192.66,123.67L194.17,136.37L195.73,126.76L198.8,120.53L200.36,124.08L201.87,128.02L203.43,128.21L206.4,117.39L207.95,117.96L209.46,115.58L211.02,109.82L212.53,123.23L214.09,110.74L215.65,106.23L217.16,104.42L220.23,109.4L221.79,110.34L224.76,101.89L226.32,107.23L227.83,104.66L229.39,97.78L230.89,112.94L232.45,100.32L234.01,94.44L235.52,95.87L240.15,106.9L241.71,98.58L243.17,95.43L244.73,96.65L246.24,94.11L247.8,85.8L249.31,99.41L250.87,87.1L252.43,81.04L253.93,82.68L258.56,89.08L260.12,81.25L261.53,76.37L263.09,78.04L264.6,77.27L266.16,71.56L267.67,85.86L269.23,70.83L270.79,64.55L272.3,63.06L273.86,62.85L275.36,65.75L276.92,67.24L278.48,61.7L279.89,58.76L281.45,63.39L282.96,59.83L284.52,58.46L286.03,71.33L287.59,56.59L289.15,54.99L290.66,51.17L295.29,58.03L296.85,51.9L298.25,47.65L299.81,51.31L302.88,44.5L304.39,58.8L305.95,45.88L307.51,44.71L309.02,40.21L310.58,42.29L313.65,46.37L315.21,41.93L316.67,35.91L318.23,38.64L319.73,38.19L321.29,32.12L322.8,47.36L324.36,37.5L325.92,33.52L327.43,34.01L332.06,46.78L333.62,42.98L335.03,39.08L336.59,46.7L339.66,40.79L341.16,56.83L342.72,46.47L344.28,45.04L345.79,46.31L347.35,50.49L348.86,54.18L350.42,54.55L353.39,44.6L354.95,46.05L356.46,44.72L358.02,36.93L359.53,54.04L361.09,41.01L362.65,38.12L364.15,39.23L365.71,42.76L367.22,48.46L368.78,47.83L370.34,42.93L371.75,38.41L373.31,44.33L374.82,42.71L376.38,36.74L377.89,53.04L379.45,39.89L381.01,35.57L382.52,36.33L384.08,37.59L385.58,42.74L387.14,45.24L388.7,37.39L390.16,33.8L391.72,37.55L394.79,30.37L396.3,42.48L397.86,30.84L399.42,29.49L400.93,27.17L402.49,30.84L404,33.49L405.56,33.21L407.12,27.4L408.52,25.55L411.59,24.82L413.15,18.99L414.66,32.64L416.22,21.82L417.78,22.38L419.29,20.12L420.85,22.02L422.36,25.33L423.92,25.87L425.48,22.4L426.89,18.32L428.45,22.22L429.95,19.32L431.51,13.2L433.02,25.54L434.58,14.96L436.14,13.18L437.65,15.25L439.21,18.56L440.72,18.68L442.28,22.5L443.84,18.08L445.25,11.61L446.81,13.08L448.32,11.19L449.88,5.49L451.38,16.55L452.94,8.25L454.5,5.9L456.01,8.07L457.57,9.95L459.08,13.31L460.64,16.24L462.2,14.83L463.66,11.99L465.22,14.52L466.73,15.67L468.29,12.02L469.8,24.26L471.36,19.82L472.92,26.25L474.42,29.24L479.05,57.66L480.61,55.18L482.02,55.1L483.58,59.97L485.09,59.33L486.65,55.7L488.16,60.68L489.72,51.42L491.28,49.71L492.79,49.18L494.35,50.08L495.86,53.71L497.41,52.79L498.97,50.23L500.38,42.83L501.94,43.11L505.01,34.66L506.52,43.47L508.08,35.62L509.64,35.23L511.15,35.38L512.71,38.98L515.78,41.32L517.34,39.04L518.74,32.79L520.3,36.5L521.81,35.24L523.37,30.19L524.88,37.72L526.44,30.59L528,29.05L529.51,28.82L531.07,32.62L532.58,33.44L534.14,33.22L535.7,29.63L537.16,26.43L538.72,27.9L540.22,27.44L541.78,22.22L543.29,31.53L544.85,25.17L546.41,24.64L547.92,26.4L552.55,30.66L554.11,27.15L555.52,24.34L557.08,24.96L558.59,24.82L560.15,20.08L561.66,30.53L563.21,22.09L566.28,22.12L567.84,25.22L570.91,31.99L572.47,26.72L573.88,21L575.44,22.98L576.95,21.96L578.51,17.07L580.02,26.07L581.58,18.96L584.65,19.52L586.2,20.87L589.27,27.05L590.83,25L592.24,20.7L593.8,22.73L595.31,22.15L596.87,19.23L598.38,26.87L599.94,20.26L601.5,22.65L603.01,21.29L606.08,29.03L607.63,29.05L610.65,25.2L612.21,24.76L613.72,25.83L615.28,21.1L616.79,29.81L618.35,23.4L619.91,22.81L621.42,21.31L624.49,26.93L626.05,27.38L629.01,21.19L630.57,21.92L632.08,19.89L633.64,15.77L635.15,24.5L636.71,18.65L638.27,19.49L639.78,15.59L644.41,23.97L645.97,18.12L647.38,15.23L648.94,14.1L650.45,16.26L652,10.73L653.51,17.99L655.07,10.52L656.63,11.03L658.14,10.59L661.21,15.78L662.77,18.22L665.74,12.83L667.3,15.38L668.81,15.26L670.37,10.2L671.88,19.3L673.43,11.42L674.99,13.01" style="vector-effect: non-scaling-stroke; fill: none; stroke: rgb(185, 185, 185); stroke-opacity: 1; stroke-width: 1px; opacity: 1;"/></g><g class="points"/><g class="text"/></g><g class="trace scatter trace1d798f" style="stroke-miterlimit: 2; opacity: 1;"><g class="fills"/><g class="errorbars"/><g class="lines"><path class="js-line" d="M19.66,183.23L22.68,178.73L24.24,177.52L28.82,175.2L30.38,175.71L35,175.1L36.51,174.78L39.63,174.77L41.04,173.75L44.11,173.69L45.67,173.41L50.3,173.56L51.81,173.74L54.87,171.75L56.43,170.1L59.4,170.8L60.96,169.66L64.03,170.02L65.54,169.51L70.17,167.81L71.73,166.83L77.76,161.32L79.32,160.78L83.9,156.5L85.46,155.33L87.02,154.08L88.53,151.29L91.6,148.45L93.16,147.79L96.18,146.29L97.73,145.26L102.31,144.3L103.87,144.49L111.57,140.17L113.13,141.27L114.54,142.04L116.1,140.82L119.16,142.9L120.67,143.91L122.23,143.36L123.79,143.64L126.86,143.91L128.37,143.73L129.93,143.3L131.49,141.64L132.9,140.63L134.46,141.21L137.53,138.75L139.04,138.11L142.15,138.62L143.66,140.48L148.29,146.1L149.85,148.07L151.26,149.5L152.82,147.76L160.52,141.19L162.03,141.45L165.09,143L166.65,142.64L175.81,133.92L177.37,133.7L178.93,133.86L180.44,132.74L186.63,129.76L188.03,129.68L197.29,127.11L198.8,125.65L204.99,121.84L206.4,119.64L209.46,116.4L211.02,115.33L215.65,110.9L217.16,109.11L221.79,104.91L223.35,104.88L224.76,104.76L226.32,105.71L230.89,103.35L232.45,101.86L234.01,100.24L235.52,100.27L240.15,100.06L241.71,98.42L244.73,95.98L246.24,94.34L249.31,90.18L250.87,88.64L252.43,86.77L253.93,86.51L258.56,82.72L260.12,80.7L263.09,77.87L264.6,77.73L267.67,75.7L269.23,72.76L273.86,64.07L275.36,62.36L278.48,61.09L279.89,61.44L281.45,62L282.96,61.64L284.52,62.75L286.03,61.59L292.22,54.49L293.73,52.94L298.25,50.49L299.81,50.22L307.51,47.8L309.02,45.06L312.09,41.56L313.65,40.67L315.21,40.24L316.67,38.94L318.23,38.17L319.73,38.47L322.8,38.36L324.36,38.91L327.43,38.24L328.99,38.51L330.5,39.11L332.06,40.64L335.03,42.64L336.59,44.82L339.66,46.65L341.16,47.79L347.35,50.73L348.86,50.26L358.02,43.78L359.53,44.34L362.65,42.85L364.15,43.12L367.22,43.75L368.78,42.5L371.75,41.76L373.31,42.87L377.89,43.61L379.45,42.24L381.01,40.41L382.52,39.81L384.08,38.73L385.58,38.84L387.14,38.65L388.7,36.93L397.86,33.67L399.42,32.95L402.49,30.85L404,29.61L407.12,26.75L408.52,26.83L410.08,25.37L411.59,25.2L416.22,24.92L417.78,25.21L422.36,21.76L423.92,20.77L428.45,20.82L429.95,19.86L434.58,17.88L436.14,17.48L437.65,18.16L439.21,18.01L440.72,16.44L442.28,16.51L443.84,15.76L445.25,13.95L448.32,11.62L449.88,10.84L454.5,10.06L456.01,10.63L459.08,10.3L460.64,11L463.66,13.59L465.22,14.19L469.8,19.29L471.36,23.27L480.61,53.75L482.02,56.94L483.58,59.02L485.09,59.7L486.65,59.32L488.16,56.4L492.79,52.06L494.35,50.63L495.86,49.85L497.41,48.1L498.97,47.22L500.38,44.83L503.45,40.16L505.01,39.27L508.08,38.46L509.64,38.45L512.71,38.41L514.22,37.44L518.74,35.42L520.3,35.68L523.37,34.64L524.88,33.5L531.07,31.72L532.58,30.2L535.7,27.87L537.16,27.92L543.29,27.19L544.85,27.75L547.92,28.5L549.48,27.62L552.55,25.62L554.11,25.36L557.08,25.02L558.59,25.03L569.35,25.55L570.91,25.95L575.44,22.74L576.95,22.22L581.58,21.71L583.14,21.66L584.65,21.89L586.2,21.27L589.27,21.97L590.83,22.58L595.31,22.67L596.87,23.26L599.94,23.43L601.5,24.49L609.19,25.12L610.65,25.83L612.21,25.37L613.72,25.77L619.91,25.16L621.42,24.62L624.49,23.6L626.05,22.62L630.57,21.67L632.08,20.52L635.15,20.6L636.71,21.13L638.27,20.89L639.78,19.29L642.85,18.32L644.41,18.15L648.94,15.13L650.45,15.61L656.63,13.31L658.14,13.55L662.77,13.23L664.33,13.87L668.81,15.12L670.37,14.95L674.99,14.94" style="vector-effect: non-scaling-stroke; fill: none; stroke: rgb(0, 0, 200); stroke-opacity: 1; stroke-width: 1px; opacity: 1;"/></g><g class="points"/><g class="text"/></g></g></g><g class="overplot"/><path class="xlines-above crisp" d="M26.772834645669295,217.8595800524934H723.4271653543307M26.772834645669295,22.807086614173222H723.4271653543307" style="fill: none; stroke-width: 1px; stroke: rgb(0, 0, 0); stroke-opacity: 1;"/><path class="ylines-above crisp" d="M27.272834645669295,23.307086614173222V217.3595800524934M722.9271653543307,23.307086614173222V217.3595800524934" style="fill: none; stroke-width: 1px; stroke: rgb(0, 0, 0); stroke-opacity: 1;"/><g class="overlines-above"/><g class="xaxislayer-above"><path class="xtick ticks crisp" d="M0,217.3595800524934v-5" transform="translate(29.072834645669296,0)" style="stroke: rgb(0, 0, 0); stroke-opacity: 1; stroke-width: 1px;"/><path class="xtick ticks crisp" d="M0,217.3595800524934v-5" transform="translate(194.4228346456693,0)" style="stroke: rgb(0, 0, 0); stroke-opacity: 1; stroke-width: 1px;"/><path class="xtick ticks crisp" d="M0,217.3595800524934v-5" transform="translate(359.8328346456693,0)" style="stroke: rgb(0, 0, 0); stroke-opacity: 1; stroke-width: 1px;"/><path class="xtick ticks crisp" d="M0,217.3595800524934v-5" transform="translate(525.1828346456693,0)" style="stroke: rgb(0, 0, 0); stroke-opacity: 1; stroke-width: 1px;"/><path class="xtick ticks crisp" d="M0,217.3595800524934v-5" transform="translate(690.5428346456692,0)" style="stroke: rgb(0, 0, 0); stroke-opacity: 1; stroke-width: 1px;"/><g class="xtick"><text text-anchor="middle" x="0" y="231.5595800524934" transform="translate(29.072834645669296,0)" style="font-family: 'Helvetica Neue'; font-size: 11px; fill: rgb(0, 0, 0); fill-opacity: 1; white-space: pre;">1983-01-01</text></g><g class="xtick"><text text-anchor="middle" x="0" y="231.5595800524934" transform="translate(194.4228346456693,0)" style="font-family: 'Helvetica Neue'; font-size: 11px; fill: rgb(0, 0, 0); fill-opacity: 1; white-space: pre;">1992-01-01</text></g><g class="xtick"><text text-anchor="middle" x="0" y="231.5595800524934" transform="translate(359.8328346456693,0)" style="font-family: 'Helvetica Neue'; font-size: 11px; fill: rgb(0, 0, 0); fill-opacity: 1; white-space: pre;">2001-01-01</text></g><g class="xtick"><text text-anchor="middle" x="0" y="231.5595800524934" transform="translate(525.1828346456693,0)" style="font-family: 'Helvetica Neue'; font-size: 11px; fill: rgb(0, 0, 0); fill-opacity: 1; white-space: pre;">2010-01-01</text></g><g class="xtick"><text text-anchor="middle" x="0" y="231.5595800524934" transform="translate(690.5428346456692,0)" style="font-family: 'Helvetica Neue'; font-size: 11px; fill: rgb(0, 0, 0); fill-opacity: 1; white-space: pre;">2019-01-01</text></g></g><g class="yaxislayer-above"><path class="ytick ticks crisp" d="M27.772834645669295,0h5" transform="translate(0,184.7170866141732)" style="stroke: rgb(0, 0, 0); stroke-opacity: 1; stroke-width: 1px;"/><path class="ytick ticks crisp" d="M27.772834645669295,0h5" transform="translate(0,140.4970866141732)" style="stroke: rgb(0, 0, 0); stroke-opacity: 1; stroke-width: 1px;"/><path class="ytick ticks crisp" d="M27.772834645669295,0h5" transform="translate(0,96.26708661417322)" style="stroke: rgb(0, 0, 0); stroke-opacity: 1; stroke-width: 1px;"/><path class="ytick ticks crisp" d="M27.772834645669295,0h5" transform="translate(0,52.047086614173224)" style="stroke: rgb(0, 0, 0); stroke-opacity: 1; stroke-width: 1px;"/><g class="ytick"><text text-anchor="end" x="24.572834645669296" y="3.8499999999999996" transform="translate(0,184.7170866141732)" style="font-family: 'Helvetica Neue'; font-size: 11px; fill: rgb(0, 0, 0); fill-opacity: 1; white-space: pre;">4.0</text></g><g class="ytick"><text text-anchor="end" x="24.572834645669296" y="3.8499999999999996" transform="translate(0,140.4970866141732)" style="font-family: 'Helvetica Neue'; font-size: 11px; fill: rgb(0, 0, 0); fill-opacity: 1; white-space: pre;">4.2</text></g><g class="ytick"><text text-anchor="end" x="24.572834645669296" y="3.8499999999999996" transform="translate(0,96.26708661417322)" style="font-family: 'Helvetica Neue'; font-size: 11px; fill: rgb(0, 0, 0); fill-opacity: 1; white-space: pre;">4.4</text></g><g class="ytick"><text text-anchor="end" x="24.572834645669296" y="3.8499999999999996" transform="translate(0,52.047086614173224)" style="font-family: 'Helvetica Neue'; font-size: 11px; fill: rgb(0, 0, 0); fill-opacity: 1; white-space: pre;">4.6</text></g></g><g class="overaxes-above"/></g></g><g class="polarlayer"/><g class="ternarylayer"/><g class="geolayer"/><g class="funnelarealayer"/><g class="pielayer"/><g class="treemaplayer"/><g class="sunburstlayer"/><g class="glimages"/><defs id="topdefs-e26dd5"><g class="clips"/><clipPath id="legende26dd5"><rect width="74" height="48" x="0" y="0"/></clipPath></defs><g class="layer-above"><g class="imagelayer"/><g class="shapelayer"/></g><g class="infolayer"><g class="legend" pointer-events="all" transform="translate(726, 101)"><rect class="bg" shape-rendering="crispEdges" width="74" height="48" x="0" y="0" style="stroke: rgb(0, 0, 0); stroke-opacity: 1; fill: rgb(255, 255, 255); fill-opacity: 1; stroke-width: 0px;"/><g class="scrollbox" transform="translate(0, 0)" clip-path="url('#legende26dd5')"><g class="groups" transform="translate(0, 0)"><g class="traces" transform="translate(0, 14.5)" style="opacity: 1;"><text class="legendtext user-select-none" text-anchor="start" x="40" y="4.29" style="font-family: sans-serif; font-size: 11px; fill: rgb(0, 0, 0); fill-opacity: 1; white-space: pre;">Data</text><g class="layers" style="opacity: 1;"><g class="legendfill"/><g class="legendlines"><path class="js-line" d="M5,0h30" style="fill: none; stroke: rgb(185, 185, 185); stroke-opacity: 1; stroke-width: 1px;"/></g><g class="legendsymbols"><g class="legendpoints"/></g></g><rect class="legendtoggle" pointer-events="all" x="0" y="-9.5" width="68.3125" height="19" style="cursor: pointer; fill: rgb(0, 0, 0); fill-opacity: 0;"/></g></g><g class="groups" transform="translate(0, 0)"><g class="traces" transform="translate(0, 33.5)" style="opacity: 1;"><text class="legendtext user-select-none" text-anchor="start" x="40" y="4.29" style="font-family: sans-serif; font-size: 11px; fill: rgb(0, 0, 0); fill-opacity: 1; white-space: pre;">Trend</text><g class="layers" style="opacity: 1;"><g class="legendfill"/><g class="legendlines"><path class="js-line" d="M5,0h30" style="fill: none; stroke: rgb(0, 0, 200); stroke-opacity: 1; stroke-width: 1px;"/></g><g class="legendsymbols"><g class="legendpoints"/></g></g><rect class="legendtoggle" pointer-events="all" x="0" y="-9.5" width="68.3125" height="19" style="cursor: pointer; fill: rgb(0, 0, 0); fill-opacity: 0;"/></g></g></g><rect class="scrollbar" rx="20" ry="3" width="0" height="0" x="0" y="0" style="fill: rgb(128, 139, 164); fill-opacity: 1;"/></g><g class="g-gtitle"/><g class="g-xtitle"/><g class="g-ytitle"/></g></svg>