<svg class="main-svg" xmlns="http://www.w3.org/2000/svg" xmlns:xlink="http://www.w3.org/1999/xlink" width="800" height="250" viewBox="0 0 800 250"><rect x="0" y="0" width="800" height="250" style="fill: rgb(255, 255, 255); fill-opacity: 1;"/><defs id="defs-e226c2"><g class="clips"><clipPath id="clipe226c2xyplot" class="plotclip"><rect width="694.6543307086614" height="194.0524934383202"/></clipPath><clipPath class="axesclip" id="clipe226c2x"><rect x="27.772834645669295" y="0" width="694.6543307086614" height="250"/></clipPath><clipPath class="axesclip" id="clipe226c2y"><rect x="0" y="23.307086614173222" width="800" height="194.0524934383202"/></clipPath><clipPath class="axesclip" id="clipe226c2xy"><rect x="27.772834645669295" y="23.307086614173222" width="694.6543307086614" height="194.0524934383202"/></clipPath></g><g class="gradients"/></defs><g class="bglayer"/><g class="layer-below"><g class="imagelayer"/><g class="shapelayer"/></g><g class="cartesianlayer"><g class="subplot xy"><g class="layer-subplot"><g class="shapelayer"/><g class="imagelayer"/></g><g class="gridlayer"><g class="x"><path class="xgrid crisp" transform="translate(29.112834645669295,0)" d="M0,23.307086614173222v194.0524934383202" style="stroke: rgb(0, 0, 0); stroke-opacity: 0.1; stroke-width: 0.5px;"/><path class="xgrid crisp" transform="translate(194.09283464566929,0)" d="M0,23.307086614173222v194.0524934383202" style="stroke: rgb(0, 0, 0); stroke-opacity: 0.1; stroke-width: 0.5px;"/><path class="xgrid crisp" transform="translate(359.1128346456693,0)" d="M0,23.307086614173222v194.0524934383202" style="stroke: rgb(0, 0, 0); stroke-opacity: 0.1; stroke-width: 0.5px;"/><path class="xgrid crisp" transform="translate(524.0928346456693,0)" d="M0,23.307086614173222v194.0524934383202" style="stroke: rgb(0, 0, 0); stroke-opacity: 0.1; stroke-width: 0.5px;"/><path class="xgrid crisp" transform="translate(689.0628346456692,0)" d="M0,23.307086614173222v194.0524934383202" style="stroke: rgb(0, 0, 0); stroke-opacity: 0.1; stroke-width: 0.5px;"/></g><g class="y"><path class="ygrid crisp" transform="translate(0,184.7170866141732)" d="M27.772834645669295,0h694.6543307086614" style="stroke: rgb(0, 0, 0); stroke-opacity: 0.1; stroke-width: 0.5px;"/><path class="ygrid crisp" transform="translate(0,140.4970866141732)" d="M27.772834645669295,0h694.6543307086614" style="stroke: rgb(0, 0, 0); stroke-opacity: 0.1; stroke-width: 0.5px;"/><path class="ygrid crisp" transform="translate(0,96.26708661417322)" d="M27.772834645669295,0h694.6543307086614" style="stroke: rgb(0, 0, 0); stroke-opacity: 0.1; stroke-width: 0.5px;"/><path class="ygrid crisp" transform="translate(0,52.047086614173224)" d="M27.772834645669295,0h694.6543307086614" style="stroke: rgb(0, 0, 0); stroke-opacity: 0.1; stroke-width: 0.5px;"/></g></g><g class="zerolinelayer"/><path class="xlines-below"/><path class="ylines-below"/><g class="overlines-below"/><g class="xaxislayer-below"/><g class="yaxislayer-below"/><g class="overaxes-below"/><g class="plot" transform="translate(27.772834645669295, 23.307086614173222)" clip-path="url('#clipe226c2xyplot')"><g class="scatterlayer mlayer"><g class="trace scatter trace9ea3cb" style="stroke-miterlimit: 2; opacity: 1;"><g class="fills"/><g class="errorbars"/><g class="lines"><path class="js-line" d="M19.66,188.56L22.67,176.96L24.23,177.05L25.73,176.37L27.29,170.66L28.79,181.56L30.35,175.89L31.91,171.39L33.41,170.91L36.47,179.2L38.03,179.62L40.99,171.61L42.55,174.17L44.05,172.98L45.61,167.71L47.11,180.85L48.67,173.75L50.23,168.66L51.73,169.63L54.79,176.66L56.35,173.91L57.91,170.69L59.31,170.62L60.87,168.49L62.37,169.23L63.93,164.93L65.43,176.68L68.55,163.66L70.05,163.24L73.11,169.72L74.67,170.01L76.22,162.19L77.63,160.01L79.19,161.05L80.69,158.02L82.25,152.56L83.75,163.79L85.31,154.8L86.86,150.47L88.37,145.84L89.93,149.34L91.43,152.87L92.99,152.68L96,145.44L97.56,144.57L99.06,144.21L100.62,139.02L102.12,151.73L103.68,144.26L105.23,139.27L106.74,137.92L109.8,146.41L111.36,143.85L112.91,142.13L114.32,142.3L115.87,138.96L117.38,142.32L118.94,136.97L120.44,152.65L122,141.9L123.55,138.88L125.06,139.15L126.62,143.8L128.12,148.4L129.68,148.97L132.64,138.64L134.19,142.34L135.7,138.85L137.26,133.11L138.76,145.91L140.32,137.02L141.87,133.27L143.38,135.35L146.44,149.44L148,150.81L149.55,148.77L150.96,149.76L154.02,145.97L155.58,138.72L157.08,150.96L158.64,141.11L160.19,135.83L161.7,136.16L164.76,148.01L166.32,148.41L169.33,136.99L170.88,138.67L172.39,135.51L173.94,130.01L175.45,141.54L177.01,132.28L180.07,127.65L181.62,131.26L183.13,136.52L184.69,135.63L187.65,128.09L189.2,129.62L190.71,128.18L192.26,123.67L193.77,136.37L195.33,126.76L198.39,120.53L199.94,124.08L201.45,128.02L203.01,128.21L205.97,117.39L207.52,117.96L209.03,115.58L210.58,109.82L212.09,123.23L213.65,110.74L215.2,106.23L216.71,104.42L219.77,109.4L221.32,110.34L224.29,101.89L225.84,107.23L227.35,104.66L228.9,97.78L230.41,112.94L231.96,100.32L233.52,94.44L235.03,95.87L239.64,106.9L241.2,98.58L242.66,95.43L244.21,96.65L245.72,94.11L247.27,85.8L248.78,99.41L250.33,87.1L251.89,81.04L253.4,82.68L258.01,89.08L259.57,81.25L260.97,76.37L262.53,78.04L264.04,77.27L265.59,71.56L267.1,85.86L268.65,70.83L270.21,64.55L271.72,63.06L273.27,62.85L274.78,65.75L276.33,67.24L277.89,61.7L279.29,58.76L280.85,63.39L282.36,59.83L283.91,58.46L285.42,71.33L286.97,56.59L288.53,54.99L290.03,51.17L294.65,58.03L296.21,51.9L297.61,47.65L299.17,51.31L302.23,44.5L303.74,58.8L305.29,45.88L306.85,44.71L308.35,40.21L309.91,42.29L312.97,46.37L314.53,41.93L315.98,35.91L317.54,38.64L319.04,38.19L320.6,32.12L322.11,47.36L323.66,37.5L325.22,33.52L326.72,34.01L331.34,46.78L332.9,42.98L334.3,39.08L335.86,46.7L338.92,40.79L340.43,56.83L341.98,46.47L343.54,45.04L345.04,46.31L346.6,50.49L348.11,54.18L349.66,54.55L352.62,44.6L354.18,46.05L355.68,44.72L357.24,36.93L358.75,54.04L360.3,41.01L361.86,38.12L363.36,39.23L364.92,42.76L366.42,48.46L367.98,47.83L369.54,42.93L370.94,38.41L372.5,44.33L374,42.71L375.56,36.74L377.06,53.04L378.62,39.89L380.18,35.57L381.68,36.33L383.24,37.59L384.74,42.74L386.3,45.24L387.86,37.39L389.31,33.8L390.87,37.55L393.93,30.37L395.43,42.48L396.99,30.84L398.55,29.49L400.05,27.17L401.61,30.84L403.11,33.49L404.67,33.21L406.23,27.4L407.63,25.55L410.69,24.82L412.25,18.99L413.75,32.64L415.31,21.82L416.87,22.38L418.37,20.12L419.93,22.02L421.43,25.33L422.99,25.87L424.54,22.4L425.95,18.32L427.51,22.22L429.01,19.32L430.57,13.2L432.07,25.54L433.63,14.96L435.19,13.18L436.69,15.25L438.25,18.56L439.75,18.68L441.31,22.5L442.86,18.08L444.27,11.61L445.83,13.08L447.33,11.19L448.89,5.49L450.39,16.55L451.95,8.25L453.5,5.9L455.01,8.07L456.57,9.95L458.07,13.31L459.63,16.24L461.18,14.83L462.64,11.99L464.2,14.52L465.7,15.67L467.26,12.02L468.76,24.26L470.32,19.82L471.87,26.25L473.38,29.24L478,57.66L479.55,55.18L480.96,55.1L482.51,59.97L484.02,59.33L485.58,55.7L487.08,60.68L488.64,51.42L490.19,49.71L491.7,49.18L493.26,50.08L494.76,53.71L496.32,52.79L497.87,50.23L499.28,42.83L500.83,43.11L503.9,34.66L505.4,43.47L506.96,35.62L508.51,35.23L510.02,35.38L511.57,38.98L514.64,41.32L516.19,39.04L517.6,32.79L519.15,36.5L520.66,35.24L522.22,30.19L523.72,37.72L525.28,30.59L526.83,29.05L528.34,28.82L529.89,32.62L531.4,33.44L532.96,33.22L534.51,29.63L535.97,26.43L537.52,27.9L539.03,27.44L540.58,22.22L542.09,31.53L543.65,25.17L545.2,24.64L546.71,26.4L551.33,30.66L552.88,27.15L554.29,24.34L555.84,24.96L557.35,24.82L558.9,20.08L560.41,30.53L561.97,22.09L565.03,22.12L566.58,25.22L569.64,31.99L571.2,26.72L572.61,21L574.16,22.98L575.67,21.96L577.22,17.07L578.73,26.07L580.29,18.96L583.35,19.52L584.9,20.87L587.96,27.05L589.52,25L590.93,20.7L592.48,22.73L593.99,22.15L595.54,19.23L597.05,26.87L598.6,20.26L600.16,22.65L601.67,21.29L604.73,29.03L606.28,29.05L609.3,25.2L610.85,24.76L612.36,25.83L613.91,21.1L615.42,29.81L616.97,23.4L618.53,22.81L620.04,21.31L623.1,26.93L624.65,27.38L627.61,21.19L629.17,21.92L630.68,19.89L632.23,15.77L633.74,24.5L635.29,18.65L636.85,19.49L638.36,15.59L642.97,23.97L644.53,18.12L645.93,15.23L647.49,14.1L649,16.26L650.55,10.73L652.06,17.99L653.61,10.52L655.17,11.03L656.67,10.59L659.74,15.78L661.29,18.22L664.25,12.83L665.81,15.38L667.32,15.34L668.87,10.31L670.38,19.3L671.93,11.29L674.99,13.68" style="vector-effect: non-scaling-stroke; fill: none; stroke: rgb(185, 185, 185); stroke-opacity: 1; stroke-width: 1px; opacity: 1;"/></g><g class="points"/><g class="text"/></g><g class="trace scatter trace625c4b" style="stroke-miterlimit: 2; opacity: 1;"><g class="fills"/><g class="errorbars"/><g class="lines"><path class="js-line" d="M19.66,183.59L22.67,178.46L24.23,177.4L27.29,176.02L28.79,174.72L30.35,175.97L31.91,176.05L36.47,174.51L38.03,174.78L39.59,175.26L40.99,173.05L42.55,174.48L44.05,173.66L45.61,173.1L47.11,173.83L50.23,173.35L51.73,174.21L54.79,171.94L56.35,169.15L59.31,171.7L60.87,168.98L63.93,170.33L65.43,169.48L70.05,168L71.61,166.93L73.11,165.12L74.67,165.06L76.22,161.7L77.63,161.04L79.19,161.44L80.69,158.7L82.25,158.02L83.75,156.39L86.86,154.9L88.37,150.81L91.43,148.23L92.99,147.78L94.54,147.44L96,146.35L99.06,144.78L100.62,144.59L102.12,144.11L103.68,144.96L108.3,142.31L109.8,141.69L111.36,139.01L112.91,141.54L114.32,143.1L115.87,139.52L117.38,142.77L118.94,142.69L120.44,144.7L122,142.89L125.06,144.14L126.62,143.87L129.68,143.89L131.23,141.3L132.64,139.76L134.19,142.41L135.7,139.49L137.26,138.75L138.76,137.98L140.32,138.05L141.87,138.09L143.38,140.35L146.44,144.75L148,145.67L150.96,150.88L152.51,147.35L154.02,146.61L155.58,144.34L160.19,140.65L161.7,141.14L164.76,143.35L166.32,143.11L169.33,138.56L170.88,138.39L172.39,136.28L173.94,135.51L175.45,133.43L177.01,133.54L178.56,134.53L180.07,132.58L181.62,131.65L183.13,131.98L186.24,129.45L187.65,129.88L190.71,128.95L192.26,129.18L193.77,127.98L195.33,128.13L196.88,127.39L198.39,125.35L204.56,122.42L205.97,119.48L209.03,116.3L210.58,115.45L212.09,114.45L213.65,112.28L216.71,109.06L218.26,107.5L219.77,105.43L221.32,104.59L222.88,105.01L224.29,104.21L225.84,106.47L227.35,105.32L228.9,103.55L230.41,103.85L233.52,99.45L235.03,100.3L238.09,99.65L239.64,100.83L241.2,97.91L242.66,97.76L245.72,94.74L247.27,91.55L250.33,88.91L251.89,86L253.4,86.95L254.95,85.27L258.01,82.99L259.57,80.53L262.53,77.27L264.04,78.03L267.1,76.45L268.65,72.88L273.27,63.55L274.78,62.19L277.89,60.87L279.29,61.41L280.85,62.4L282.36,60.83L283.91,63.87L285.42,61.95L286.97,58.91L288.53,59.23L290.03,55.61L291.59,54.48L293.1,52.69L294.65,52.06L297.61,50.41L299.17,50.31L300.68,49.39L302.23,50.08L305.29,48.23L306.85,48.79L308.35,44.62L309.91,42.87L312.97,40.5L314.53,40.76L317.54,37.64L319.04,38.93L320.6,37.91L322.11,38.25L323.66,39.7L325.22,37.81L329.79,38.71L331.34,40.96L334.3,42.06L335.86,45.53L337.36,45.21L338.92,46.71L345.04,50.32L346.6,51.02L348.11,50.41L349.66,48.85L351.22,48.69L352.62,47.4L354.18,45.03L355.68,45.31L357.24,43.04L358.75,45.11L361.86,42.43L363.36,43.08L364.92,43.35L366.42,44.56L367.98,42.16L369.54,41.75L370.94,41.14L372.5,43.23L375.56,42.73L377.06,44.45L380.18,39.75L381.68,40.04L383.24,38.15L384.74,38.97L386.3,39.44L387.86,36.31L390.87,36.55L392.37,34.67L393.93,36.09L395.43,34.46L398.55,33.31L400.05,30.93L401.61,31.17L403.11,29.89L406.23,26.22L407.63,27.67L409.19,24.77L410.69,25.34L412.25,24.66L413.75,25.13L415.31,24.71L416.87,26.01L419.93,22.27L421.43,21.91L422.99,20.27L424.54,20.87L425.95,20.5L427.51,21.4L430.57,18.67L432.07,18.67L435.19,16.91L436.69,18.56L438.25,18.68L439.75,15.52L441.31,16.85L442.86,16.28L445.83,12.37L447.33,11.65L450.39,10.38L451.95,11.03L453.5,9.56L455.01,11.21L456.57,10.16L458.07,10.09L459.63,10.67L461.18,12.88L462.64,13.99L464.2,13.91L465.7,16.08L467.26,16.94L468.76,18.7L470.32,22.75L471.87,29.59L473.38,32.44L476.44,44.83L478,52.08L479.55,53.18L480.96,57.09L482.51,59.29L484.02,59.85L485.58,60.24L487.08,55.65L493.26,50.27L494.76,50.3L496.32,47.61L497.87,47.92L502.34,39.62L503.9,39.17L506.96,38.37L508.51,38.54L511.57,38.91L513.08,37.34L514.64,36.26L516.19,36.73L517.6,34.83L519.15,35.93L522.22,34.74L523.72,33.12L525.28,33.29L526.83,32.29L528.34,31.74L529.89,32.39L532.96,28.14L534.51,27.52L535.97,28.2L537.52,27.57L539.03,27.71L540.58,26.88L542.09,26.98L543.65,27.91L545.2,27.76L546.71,29.19L549.77,25.77L551.33,25.47L552.88,25.15L554.29,25.95L555.84,24.79L557.35,25.04L558.9,24.78L560.41,25.98L561.97,24.94L563.52,24.84L568.09,25.41L569.64,26.72L572.61,22.62L574.16,22.85L577.22,21.65L578.73,21.73L583.35,22.35L584.9,20.9L587.96,21.95L589.52,22.98L590.93,22.18L592.48,22.69L593.99,22.4L595.54,23.68L597.05,22.71L598.6,23.15L600.16,25.09L601.67,24.32L604.73,25.73L606.28,24.04L609.3,26.4L610.85,24.93L612.36,25.94L613.91,25.61L616.97,26.24L618.53,25.13L626.21,22.13L627.61,22.32L629.17,22.09L630.68,19.97L633.74,20.43L635.29,21.57L636.85,21.66L638.36,18.8L639.91,18.1L641.42,18.27L642.97,18.7L644.53,16.5L645.93,16.3L647.49,14.42L649,16.12L650.55,15.29L652.06,13.9L653.61,13.56L656.67,13.69L658.23,13.56L659.74,12.75L661.29,13.01L665.81,15.56L667.32,15.22L671.93,14.42L673.49,15.27L674.99,16.7" style="vector-effect: non-scaling-stroke; fill: none; stroke: rgb(0, 0, 200); stroke-opacity: 1; stroke-width: 1px; opacity: 1;"/></g><g class="points"/><g class="text"/></g></g></g><g class="overplot"/><path class="xlines-above crisp" d="M26.772834645669295,217.8595800524934H723.4271653543307M26.772834645669295,22.807086614173222H723.4271653543307" style="fill: none; stroke-width: 1px; stroke: rgb(0, 0, 0); stroke-opacity: 1;"/><path class="ylines-above crisp" d="M27.272834645669295,23.307086614173222V217.3595800524934M722.9271653543307,23.307086614173222V217.3595800524934" style="fill: none; stroke-width: 1px; stroke: rgb(0, 0, 0); stroke-opacity: 1;"/><g class="overlines-above"/><g class="xaxislayer-above"><path class="xtick ticks crisp" d="M0,217.3595800524934v-5" transform="translate(29.112834645669295,0)" style="stroke: rgb(0, 0, 0); stroke-opacity: 1; stroke-width: 1px;"/><path class="xtick ticks crisp" d="M0,217.3595800524934v-5" transform="translate(194.09283464566929,0)" style="stroke: rgb(0, 0, 0); stroke-opacity: 1; stroke-width: 1px;"/><path class="xtick ticks crisp" d="M0,217.3595800524934v-5" transform="translate(359.1128346456693,0)" style="stroke: rgb(0, 0, 0); stroke-opacity: 1; stroke-width: 1px;"/><path class="xtick ticks crisp" d="M0,217.3595800524934v-5" transform="translate(524.0928346456693,0)" style="stroke: rgb(0, 0, 0); stroke-opacity: 1; stroke-width: 1px;"/><path class="xtick ticks crisp" d="M0,217.3595800524934v-5" transform="translate(689.0628346456692,0)" style="stroke: rgb(0, 0, 0); stroke-opacity: 1; stroke-width: 1px;"/><g class="xtick"><text text-anchor="middle" x="0" y="231.5595800524934" transform="translate(29.112834645669295,0)" style="font-family: 'Helvetica Neue'; font-size: 11px; fill: rgb(0, 0, 0); fill-opacity: 1; white-space: pre;">1983-01-01</text></g><g class="xtick"><text text-anchor="middle" x="0" y="231.5595800524934" transform="translate(194.09283464566929,0)" style="font-family: 'Helvetica Neue'; font-size: 11px; fill: rgb(0, 0, 0); fill-opacity: 1; white-space: pre;">1992-01-01</text></g><g class="xtick"><text text-anchor="middle" x="0" y="231.5595800524934" transform="translate(359.1128346456693,0)" style="font-family: 'Helvetica Neue'; font-size: 11px; fill: rgb(0, 0, 0); fill-opacity: 1; white-space: pre;">2001-01-01</text></g><g class="xtick"><text text-anchor="middle" x="0" y="231.5595800524934" transform="translate(524.0928346456693,0)" style="font-family: 'Helvetica Neue'; font-size: 11px; fill: rgb(0, 0, 0); fill-opacity: 1; white-space: pre;">2010-01-01</text></g><g class="xtick"><text text-anchor="middle" x="0" y="231.5595800524934" transform="translate(689.0628346456692,0)" style="font-family: 'Helvetica Neue'; font-size: 11px; fill: rgb(0, 0, 0); fill-opacity: 1; white-space: pre;">2019-01-01</text></g></g><g class="yaxislayer-above"><path class="ytick ticks crisp" d="M27.772834645669295,0h5" transform="translate(0,184.7170866141732)" style="stroke: rgb(0, 0, 0); stroke-opacity: 1; stroke-width: 1px;"/><path class="ytick ticks crisp" d="M27.772834645669295,0h5" transform="translate(0,140.4970866141732)" style="stroke: rgb(0, 0, 0); stroke-opacity: 1; stroke-width: 1px;"/><path class="ytick ticks crisp" d="M27.772834645669295,0h5" transform="translate(0,96.26708661417322)" style="stroke: rgb(0, 0, 0); stroke-opacity: 1; stroke-width: 1px;"/><path class="ytick ticks crisp" d="M27.772834645669295,0h5" transform="translate(0,52.047086614173224)" style="stroke: rgb(0, 0, 0); stroke-opacity: 1; stroke-width: 1px;"/><g class="ytick"><text text-anchor="end" x="24.572834645669296" y="3.8499999999999996" transform="translate(0,184.7170866141732)" style="font-family: 'Helvetica Neue'; font-size: 11px; fill: rgb(0, 0, 0); fill-opacity: 1; white-space: pre;">4.0</text></g><g class="ytick"><text text-anchor="end" x="24.572834645669296" y="3.8499999999999996" transform="translate(0,140.4970866141732)" style="font-family: 'Helvetica Neue'; font-size: 11px; fill: rgb(0, 0, 0); fill-opacity: 1; white-space: pre;">4.2</text></g><g class="ytick"><text text-anchor="end" x="24.572834645669296" y="3.8499999999999996" transform="translate(0,96.26708661417322)" style="font-family: 'Helvetica Neue'; font-size: 11px; fill: rgb(0, 0, 0); fill-opacity: 1; white-space: pre;">4.4</text></g><g class="ytick"><text text-anchor="end" x="24.572834645669296" y="3.8499999999999996" transform="translate(0,52.047086614173224)" style="font-family: 'Helvetica Neue'; font-size: 11px; fill: rgb(0, 0, 0); fill-opacity: 1; white-space: pre;">4.6</text></g></g><g class="overaxes-above"/></g></g><g class="polarlayer"/><g class="ternarylayer"/><g class="geolayer"/><g class="funnelarealayer"/><g class="pielayer"/><g class="treemaplayer"/><g class="sunburstlayer"/><g class="glimages"/><defs id="topdefs-e226c2"><g class="clips"/><clipPath id="legende226c2"><rect width="74" height="48" x="0" y="0"/></clipPath></defs><g class="layer-above"><g class="imagelayer"/><g class="shapelayer"/></g><g class="infolayer"><g class="legend" pointer-events="all" transform="translate(726, 101)"><rect class="bg" shape-rendering="crispEdges" style="stroke: rgb(0, 0, 0); stroke-opacity: 1; fill: rgb(255, 255, 255); fill-opacity: 1; stroke-width: 0px;" width="74" height="48" x="0" y="0"/><g class="scrollbox" transform="translate(0, 0)" clip-path="url('#legende226c2')"><g class="groups" transform="translate(0, 0)"><g class="traces" transform="translate(0, 14.5)" style="opacity: 1;"><text class="legendtext user-select-none" text-anchor="start" x="40" y="4.29" style="font-family: sans-serif; font-size: 11px; fill: rgb(0, 0, 0); fill-opacity: 1; white-space: pre;">Data</text><g class="layers" style="opacity: 1;"><g class="legendfill"/><g class="legendlines"><path class="js-line" d="M5,0h30" style="fill: none; stroke: rgb(185, 185, 185); stroke-opacity: 1; stroke-width: 1px;"/></g><g class="legendsymbols"><g class="legendpoints"/></g></g><rect class="legendtoggle" pointer-events="all" x="0" y="-9.5" width="68.3125" height="19" style="cursor: pointer; fill: rgb(0, 0, 0); fill-opacity: 0;"/></g></g><g class="groups" transform="translate(0, 0)"><g class="traces" transform="translate(0, 33.5)" style="opacity: 1;"><text class="legendtext user-select-none" text-anchor="start" x="40" y="4.29" style="font-family: sans-serif; font-size: 11px; fill: rgb(0, 0, 0); fill-opacity: 1; white-space: pre;">Trend</text><g class="layers" style="opacity: 1;"><g class="legendfill"/><g class="legendlines"><path class="js-line" d="M5,0h30" style="fill: none; stroke: rgb(0, 0, 200); stroke-opacity: 1; stroke-width: 1px;"/></g><g class="legendsymbols"><g class="legendpoints"/></g></g><rect class="legendtoggle" pointer-events="all" x="0" y="-9.5" width="68.3125" height="19" style="cursor: pointer; fill: rgb(0, 0, 0); fill-opacity: 0;"/></g></g></g><rect class="scrollbar" rx="20" ry="3" width="0" height="0" style="fill: rgb(128, 139, 164); fill-opacity: 1;" x="0" y="0"/></g><g class="g-gtitle"/><g class="g-xtitle"/><g class="g-ytitle"/></g></svg>