<svg class="main-svg" xmlns="http://www.w3.org/2000/svg" xmlns:xlink="http://www.w3.org/1999/xlink" width="800" height="250" viewBox="0 0 800 250"><rect x="0" y="0" width="800" height="250" style="fill: rgb(255, 255, 255); fill-opacity: 1;"/><defs id="defs-dc1376"><g class="clips"><clipPath id="clipdc1376xyplot" class="plotclip"><rect width="678.5209973753281" height="194.0524934383202"/></clipPath><clipPath class="axesclip" id="clipdc1376x"><rect x="43.90616797900262" y="0" width="678.5209973753281" height="250"/></clipPath><clipPath class="axesclip" id="clipdc1376y"><rect x="0" y="23.307086614173222" width="800" height="194.0524934383202"/></clipPath><clipPath class="axesclip" id="clipdc1376xy"><rect x="43.90616797900262" y="23.307086614173222" width="678.5209973753281" height="194.0524934383202"/></clipPath></g><g class="gradients"/></defs><g class="bglayer"/><g class="layer-below"><g class="imagelayer"/><g class="shapelayer"/></g><g class="cartesianlayer"><g class="subplot xy"><g class="layer-subplot"><g class="shapelayer"/><g class="imagelayer"/></g><g class="gridlayer"><g class="x"><path class="xgrid crisp" transform="translate(45.17616797900262,0)" d="M0,23.307086614173222v194.0524934383202" style="stroke: rgb(0, 0, 0); stroke-opacity: 0.1; stroke-width: 0.5px;"/><path class="xgrid crisp" transform="translate(206.68616797900262,0)" d="M0,23.307086614173222v194.0524934383202" style="stroke: rgb(0, 0, 0); stroke-opacity: 0.1; stroke-width: 0.5px;"/><path class="xgrid crisp" transform="translate(368.2561679790026,0)" d="M0,23.307086614173222v194.0524934383202" style="stroke: rgb(0, 0, 0); stroke-opacity: 0.1; stroke-width: 0.5px;"/><path class="xgrid crisp" transform="translate(529.7661679790026,0)" d="M0,23.307086614173222v194.0524934383202" style="stroke: rgb(0, 0, 0); stroke-opacity: 0.1; stroke-width: 0.5px;"/><path class="xgrid crisp" transform="translate(691.2861679790026,0)" d="M0,23.307086614173222v194.0524934383202" style="stroke: rgb(0, 0, 0); stroke-opacity: 0.1; stroke-width: 0.5px;"/></g><g class="y"><path class="ygrid crisp" transform="translate(0,205.32708661417323)" d="M43.90616797900262,0h678.5209973753281" style="stroke: rgb(0, 0, 0); stroke-opacity: 0.1; stroke-width: 0.5px;"/><path class="ygrid crisp" transform="translate(0,146.70708661417322)" d="M43.90616797900262,0h678.5209973753281" style="stroke: rgb(0, 0, 0); stroke-opacity: 0.1; stroke-width: 0.5px;"/><path class="ygrid crisp" transform="translate(0,88.07708661417323)" d="M43.90616797900262,0h678.5209973753281" style="stroke: rgb(0, 0, 0); stroke-opacity: 0.1; stroke-width: 0.5px;"/><path class="ygrid crisp" transform="translate(0,29.447086614173223)" d="M43.90616797900262,0h678.5209973753281" style="stroke: rgb(0, 0, 0); stroke-opacity: 0.1; stroke-width: 0.5px;"/></g></g><g class="zerolinelayer"/><path class="xlines-below"/><path class="ylines-below"/><g class="overlines-below"/><g class="xaxislayer-below"/><g class="yaxislayer-below"/><g class="overaxes-below"/><g class="plot" transform="translate(43.90616797900262, 23.307086614173222)" clip-path="url('#clipdc1376xyplot')"><g class="scatterlayer mlayer"><g class="trace scatter traceaab713" style="stroke-miterlimit: 2; opacity: 1;"><g class="fills"/><g class="errorbars"/><g class="lines"><path class="js-line" d="M19.2,17.75L20.73,22.78L22.15,30.75L28.15,56.83L29.67,58.38L32.67,57.85L34.19,58.32L35.66,59.35L37.19,58.79L38.71,56.84L40.09,59.99L41.61,59.58L43.08,60.53L44.61,62.31L46.08,61.54L49.13,56.74L50.6,51.04L52.13,47.4L53.6,47.4L55.12,54.37L56.65,57.51L58.02,54.92L59.55,57.75L61.02,57.27L62.54,53.71L67.06,44.62L68.54,40.13L71.53,33.86L73.06,30.26L75.96,33.83L77.48,30.55L78.95,30.38L80.48,29.1L81.95,28.24L83.48,25.88L85,22.05L86.47,26.45L90.99,41.78L92.52,43.15L93.94,45.22L95.46,49.36L98.46,54.22L99.94,54.94L102.98,50.13L104.46,50.46L105.98,51.98L107.45,55.8L108.98,66.03L110.5,68.9L111.88,67.45L113.4,75.26L114.87,75.46L116.4,74.34L117.87,68.63L119.39,67.8L120.92,65.82L122.39,61.75L126.91,46.84L128.44,48.32L129.81,52.53L131.34,49.44L132.81,52.79L134.33,59.68L140.33,99.99L141.85,99.63L144.85,89.56L146.37,76.31L147.75,56.08L149.27,45.77L150.74,39.71L152.27,40.1L155.27,49.55L156.79,57.57L158.26,61.91L159.79,59.11L164.31,34.38L165.73,34.47L167.25,33.91L168.73,36.51L170.25,39.66L171.73,45.88L173.25,48.68L174.77,46.15L176.25,46.5L177.77,47.82L179.24,47.04L180.77,49.53L182.29,52.77L183.67,53.35L185.19,53.66L186.66,52.96L191.18,43.44L192.71,38.97L195.71,36.85L197.18,34.54L198.7,31.19L200.23,25.51L201.6,24.84L203.13,27L204.6,28.51L206.12,27.92L207.6,25.94L209.12,25.92L210.64,26.16L212.12,28.75L213.64,33.57L215.11,41.93L218.16,54.59L219.54,57.27L222.53,46.21L224.06,44.62L225.53,41.4L227.06,42.44L228.58,48.93L230.05,51.02L231.58,50.05L233.05,47.1L234.57,38.52L236.1,34.48L239.04,24.08L240.52,20.33L243.52,24.49L245.04,26.98L246.56,32.56L248.04,31.46L251.03,28.14L252.56,25.98L254.08,27.69L255.46,31L256.98,33.81L258.45,29.45L262.97,5.49L264.5,7.43L265.97,11.85L267.5,23.15L272.02,55.12L273.39,58.68L276.39,55.19L277.91,43.34L279.39,33.94L280.91,31.01L282.43,25.97L283.91,27.85L285.43,31.11L286.9,36.38L291.33,48.55L292.85,49.56L294.32,50.27L295.85,46.43L298.84,35.52L300.37,26.72L301.84,27.07L303.37,31.19L306.36,42.16L307.89,44.18L312.31,60.01L313.83,64.32L315.31,66.72L316.83,65.78L319.83,75.69L321.35,82.11L322.82,88.89L324.35,91.39L327.25,96.59L328.77,92.82L330.24,91.73L331.77,89.64L334.76,81.73L336.29,76.46L342.28,46.4L343.81,42.12L345.18,40.82L346.7,44.58L348.18,47.35L349.7,53.76L351.18,53.3L352.7,55.81L354.22,60.44L355.7,62.02L357.22,61L358.69,56.42L360.22,58.43L361.74,62.72L363.12,67.64L364.64,65.57L367.64,57.35L369.11,47.53L370.63,42.71L372.16,44.88L373.63,45.98L375.16,49.67L376.63,48.62L378.15,44.64L381.1,49.25L382.62,48.52L384.1,49.9L385.62,45.97L390.14,38.51L391.62,39.07L393.14,37.06L394.61,36.41L397.66,46.07L399.04,46.08L402.03,54.3L403.56,56.88L405.03,56.14L406.55,53.92L408.08,46.82L409.55,44.77L412.55,48.43L414.07,53.19L415.6,54.87L416.97,54.74L418.49,50.82L419.97,49.91L424.49,55L426.01,57.61L429.01,47.49L430.48,47.89L433.53,38.45L434.91,39.29L437.9,47.86L439.43,53.53L443.95,66.81L445.42,68.94L448.42,82.82L449.94,90.84L452.89,99.9L454.41,109.75L457.41,136.86L458.89,156.71L460.41,173L461.93,179.61L463.41,186.95L464.93,188.56L466.4,177.91L467.93,155.13L470.83,112.56L472.35,87.53L475.35,42.27L476.82,35.3L478.34,33.17L479.87,32.32L481.34,31.03L482.86,30.88L484.34,27.22L485.86,25.89L487.39,20.5L488.76,20.11L490.28,24.76L491.76,34.75L494.76,49.61L496.28,53.8L497.8,55.13L499.28,54.36L500.8,50.72L502.27,50.17L503.8,51.77L505.32,51.37L506.7,54.12L508.22,52.27L511.22,46.98L512.69,48.19L517.21,46.6L518.74,42.04L520.21,42.16L521.73,47.67L524.68,56.19L526.2,58.72L527.68,60.33L529.2,63.55L530.68,65.88L532.2,64.6L533.72,61.87L535.2,54.53L536.72,50.68L538.19,53.04L541.24,59.26L542.62,59.43L545.61,63.48L547.14,64.75L548.61,62.71L550.13,63.15L553.13,64.45L554.65,63.1L556.13,59.1L557.65,50.78L559.18,47.75L560.55,50.66L563.55,55.65L565.07,58.94L568.07,62.81L569.59,64.12L571.07,63.64L572.59,67.19L574.06,70.31L575.59,71.04L577.11,69.18L578.49,69.78L580.01,70.29L581.48,71.76L583.01,70.93L584.48,73.5L586,75.43L587.53,72.74L590.53,70.13L592,67.31L593.52,69.58L595.05,69.83L596.47,66.41L597.99,66.62L602.47,60.16L603.99,55.84L608.51,50.88L609.98,50.07L613.03,53.67L614.41,52.91L615.93,52.37L617.4,56.6L618.93,59.25L620.4,59.33L623.45,48.08L624.92,48.68L626.44,50.61L627.92,50.02L629.44,46.74L630.97,47.97L632.34,49.55L633.86,54.19L636.86,51.85L638.34,54.51L641.38,61.76L642.86,62.83L644.38,64.21L645.85,68.18L647.38,71.71L648.9,72.63L650.28,72.75L651.8,69.11L653.27,66.62L654.8,65.79L656.27,65.05L657.79,66.31L659.32,66.31" style="vector-effect: non-scaling-stroke; fill: none; stroke: rgb(0, 0, 200); stroke-opacity: 1; stroke-width: 1px; opacity: 1;"/></g><g class="points"/><g class="text"/></g></g></g><g class="overplot"/><path class="xlines-above crisp" d="M42.90616797900262,217.8595800524934H723.4271653543307M42.90616797900262,22.807086614173222H723.4271653543307" style="fill: none; stroke-width: 1px; stroke: rgb(0, 0, 0); stroke-opacity: 1;"/><path class="ylines-above crisp" d="M43.40616797900262,23.307086614173222V217.3595800524934M722.9271653543307,23.307086614173222V217.3595800524934" style="fill: none; stroke-width: 1px; stroke: rgb(0, 0, 0); stroke-opacity: 1;"/><g class="overlines-above"/><g class="xaxislayer-above"><path class="xtick ticks crisp" d="M0,217.3595800524934v-5" transform="translate(45.17616797900262,0)" style="stroke: rgb(0, 0, 0); stroke-opacity: 1; stroke-width: 1px;"/><path class="xtick ticks crisp" d="M0,217.3595800524934v-5" transform="translate(206.68616797900262,0)" style="stroke: rgb(0, 0, 0); stroke-opacity: 1; stroke-width: 1px;"/><path class="xtick ticks crisp" d="M0,217.3595800524934v-5" transform="translate(368.2561679790026,0)" style="stroke: rgb(0, 0, 0); stroke-opacity: 1; stroke-width: 1px;"/><path class="xtick ticks crisp" d="M0,217.3595800524934v-5" transform="translate(529.7661679790026,0)" style="stroke: rgb(0, 0, 0); stroke-opacity: 1; stroke-width: 1px;"/><path class="xtick ticks crisp" d="M0,217.3595800524934v-5" transform="translate(691.2861679790026,0)" style="stroke: rgb(0, 0, 0); stroke-opacity: 1; stroke-width: 1px;"/><g class="xtick"><text text-anchor="middle" x="0" y="231.5595800524934" transform="translate(45.17616797900262,0)" style="font-family: 'Helvetica Neue'; font-size: 11px; fill: rgb(0, 0, 0); fill-opacity: 1; white-space: pre;">1983-01-01</text></g><g class="xtick"><text text-anchor="middle" x="0" y="231.5595800524934" transform="translate(206.68616797900262,0)" style="font-family: 'Helvetica Neue'; font-size: 11px; fill: rgb(0, 0, 0); fill-opacity: 1; white-space: pre;">1992-01-01</text></g><g class="xtick"><text text-anchor="middle" x="0" y="231.5595800524934" transform="translate(368.2561679790026,0)" style="font-family: 'Helvetica Neue'; font-size: 11px; fill: rgb(0, 0, 0); fill-opacity: 1; white-space: pre;">2001-01-01</text></g><g class="xtick"><text text-anchor="middle" x="0" y="231.5595800524934" transform="translate(529.7661679790026,0)" style="font-family: 'Helvetica Neue'; font-size: 11px; fill: rgb(0, 0, 0); fill-opacity: 1; white-space: pre;">2010-01-01</text></g><g class="xtick"><text text-anchor="middle" x="0" y="231.5595800524934" transform="translate(691.2861679790026,0)" style="font-family: 'Helvetica Neue'; font-size: 11px; fill: rgb(0, 0, 0); fill-opacity: 1; white-space: pre;">2019-01-01</text></g></g><g class="yaxislayer-above"><path class="ytick ticks crisp" d="M43.90616797900262,0h5" transform="translate(0,205.32708661417323)" style="stroke: rgb(0, 0, 0); stroke-opacity: 1; stroke-width: 1px;"/><path class="ytick ticks crisp" d="M43.90616797900262,0h5" transform="translate(0,146.70708661417322)" style="stroke: rgb(0, 0, 0); stroke-opacity: 1; stroke-width: 1px;"/><path class="ytick ticks crisp" d="M43.90616797900262,0h5" transform="translate(0,88.07708661417323)" style="stroke: rgb(0, 0, 0); stroke-opacity: 1; stroke-width: 1px;"/><path class="ytick ticks crisp" d="M43.90616797900262,0h5" transform="translate(0,29.447086614173223)" style="stroke: rgb(0, 0, 0); stroke-opacity: 1; stroke-width: 1px;"/><g class="ytick"><text text-anchor="end" x="40.706167979002615" y="3.8499999999999996" transform="translate(0,205.32708661417323)" style="font-family: 'Helvetica Neue'; font-size: 11px; fill: rgb(0, 0, 0); fill-opacity: 1; white-space: pre;">-0.02</text></g><g class="ytick"><text text-anchor="end" x="40.706167979002615" y="3.8499999999999996" transform="translate(0,146.70708661417322)" style="font-family: 'Helvetica Neue'; font-size: 11px; fill: rgb(0, 0, 0); fill-opacity: 1; white-space: pre;">-0.01</text></g><g class="ytick"><text text-anchor="end" x="40.706167979002615" y="3.8499999999999996" transform="translate(0,88.07708661417323)" style="font-family: 'Helvetica Neue'; font-size: 11px; fill: rgb(0, 0, 0); fill-opacity: 1; white-space: pre;">0.00</text></g><g class="ytick"><text text-anchor="end" x="40.706167979002615" y="3.8499999999999996" transform="translate(0,29.447086614173223)" style="font-family: 'Helvetica Neue'; font-size: 11px; fill: rgb(0, 0, 0); fill-opacity: 1; white-space: pre;">0.01</text></g></g><g class="overaxes-above"/></g></g><g class="polarlayer"/><g class="ternarylayer"/><g class="geolayer"/><g class="funnelarealayer"/><g class="pielayer"/><g class="treemaplayer"/><g class="sunburstlayer"/><g class="glimages"/><defs id="topdefs-dc1376"><g class="clips"/><clipPath id="legenddc1376"><rect width="74" height="29" x="0" y="0"/></clipPath></defs><g class="layer-above"><g class="imagelayer"/><g class="shapelayer"/></g><g class="infolayer"><g class="legend" pointer-events="all" transform="translate(726, 110.5)"><rect class="bg" shape-rendering="crispEdges" width="74" height="29" x="0" y="0" style="stroke: rgb(0, 0, 0); stroke-opacity: 1; fill: rgb(255, 255, 255); fill-opacity: 1; stroke-width: 0px;"/><g class="scrollbox" transform="translate(0, 0)" clip-path="url('#legenddc1376')"><g class="groups" transform="translate(0, 0)"><g class="traces" transform="translate(0, 14.5)" style="opacity: 1;"><text class="legendtext user-select-none" text-anchor="start" x="40" y="4.29" style="font-family: sans-serif; font-size: 11px; fill: rgb(0, 0, 0); fill-opacity: 1; white-space: pre;">Slope</text><g class="layers" style="opacity: 1;"><g class="legendfill"/><g class="legendlines"><path class="js-line" d="M5,0h30" style="fill: none; stroke: rgb(0, 0, 200); stroke-opacity: 1; stroke-width: 1px;"/></g><g class="legendsymbols"><g class="legendpoints"/></g></g><rect class="legendtoggle" pointer-events="all" x="0" y="-9.5" width="68.125" height="19" style="cursor: pointer; fill: rgb(0, 0, 0); fill-opacity: 0;"/></g></g></g><rect class="scrollbar" rx="20" ry="3" width="0" height="0" x="0" y="0" style="fill: rgb(128, 139, 164); fill-opacity: 1;"/></g><g class="g-gtitle"/><g class="g-xtitle"/><g class="g-ytitle"/></g></svg>