<svg class="main-svg" xmlns="http://www.w3.org/2000/svg" xmlns:xlink="http://www.w3.org/1999/xlink" width="800" height="250" viewBox="0 0 800 250"><rect x="0" y="0" width="800" height="250" style="fill: rgb(255, 255, 255); fill-opacity: 1;"/><defs id="defs-e5ead7"><g class="clips"><clipPath id="clipe5ead7xyplot" class="plotclip"><rect width="670.4543307086614" height="194.0524934383202"/></clipPath><clipPath class="axesclip" id="clipe5ead7x"><rect x="51.972834645669295" y="0" width="670.4543307086614" height="250"/></clipPath><clipPath class="axesclip" id="clipe5ead7y"><rect x="0" y="23.307086614173222" width="800" height="194.0524934383202"/></clipPath><clipPath class="axesclip" id="clipe5ead7xy"><rect x="51.972834645669295" y="23.307086614173222" width="670.4543307086614" height="194.0524934383202"/></clipPath></g><g class="gradients"/></defs><g class="bglayer"/><g class="layer-below"><g class="imagelayer"/><g class="shapelayer"/></g><g class="cartesianlayer"><g class="subplot xy"><g class="layer-subplot"><g class="shapelayer"/><g class="imagelayer"/></g><g class="gridlayer"><g class="x"><path class="xgrid crisp" transform="translate(53.262834645669294,0)" d="M0,23.307086614173222v194.0524934383202" style="stroke: rgb(0, 0, 0); stroke-opacity: 0.1; stroke-width: 0.5px;"/><path class="xgrid crisp" transform="translate(212.4928346456693,0)" d="M0,23.307086614173222v194.0524934383202" style="stroke: rgb(0, 0, 0); stroke-opacity: 0.1; stroke-width: 0.5px;"/><path class="xgrid crisp" transform="translate(371.7728346456693,0)" d="M0,23.307086614173222v194.0524934383202" style="stroke: rgb(0, 0, 0); stroke-opacity: 0.1; stroke-width: 0.5px;"/><path class="xgrid crisp" transform="translate(531.0028346456693,0)" d="M0,23.307086614173222v194.0524934383202" style="stroke: rgb(0, 0, 0); stroke-opacity: 0.1; stroke-width: 0.5px;"/><path class="xgrid crisp" transform="translate(690.2228346456693,0)" d="M0,23.307086614173222v194.0524934383202" style="stroke: rgb(0, 0, 0); stroke-opacity: 0.1; stroke-width: 0.5px;"/></g><g class="y"><path class="ygrid crisp" transform="translate(0,188.0070866141732)" d="M51.972834645669295,0h670.4543307086614" style="stroke: rgb(0, 0, 0); stroke-opacity: 0.1; stroke-width: 0.5px;"/><path class="ygrid crisp" transform="translate(0,141.72708661417323)" d="M51.972834645669295,0h670.4543307086614" style="stroke: rgb(0, 0, 0); stroke-opacity: 0.1; stroke-width: 0.5px;"/><path class="ygrid crisp" transform="translate(0,95.45708661417322)" d="M51.972834645669295,0h670.4543307086614" style="stroke: rgb(0, 0, 0); stroke-opacity: 0.1; stroke-width: 0.5px;"/><path class="ygrid crisp" transform="translate(0,49.17708661417322)" d="M51.972834645669295,0h670.4543307086614" style="stroke: rgb(0, 0, 0); stroke-opacity: 0.1; stroke-width: 0.5px;"/></g></g><g class="zerolinelayer"/><path class="xlines-below"/><path class="ylines-below"/><g class="overlines-below"/><g class="xaxislayer-below"/><g class="yaxislayer-below"/><g class="overaxes-below"/><g class="plot" transform="translate(51.972834645669295, 23.307086614173222)" clip-path="url('#clipe5ead7xyplot')"><g class="scatterlayer mlayer"><g class="trace scatter trace0dbea0" style="stroke-miterlimit: 2; opacity: 1;"><g class="fills"/><g class="errorbars"/><g class="lines"><path class="js-line" d="M18.98,23.46L20.48,26.42L21.88,30.89L27.79,48.57L29.29,50.85L36.7,57.56L38.21,56.99L39.56,59.29L41.06,58.88L44.02,60.02L45.47,59.2L48.48,56.65L49.93,53.64L52.88,50.8L54.39,53.43L55.89,53.92L57.24,51.21L58.75,51.95L60.2,50.53L72.07,27.59L73.57,27.86L74.93,27.52L76.43,24.89L80.84,23.87L82.34,23.59L83.84,22.23L85.29,25.39L89.75,36L91.25,38.25L98.56,51.99L100.07,52.15L103.02,55.24L104.52,57.47L105.98,60.11L107.48,66.47L108.98,68.69L110.34,68.34L111.84,73.43L113.29,73.5L114.79,73.75L116.25,70.92L117.75,70.87L119.25,69.75L125.16,61.42L126.66,62.6L128.02,65.83L129.52,64.68L132.47,71.94L133.93,77.27L138.38,91.2L139.89,90.46L142.84,84.31L144.34,77.46L145.7,66.49L147.2,60.8L148.65,55.84L150.16,53.81L153.11,53.14L154.61,54.77L156.07,54.98L157.57,52.52L162.02,39.44L163.43,39.11L164.93,37.82L166.38,38.53L167.89,39.19L169.34,41.85L170.84,43.22L172.34,41.97L175.3,43.65L176.75,43.1L179.75,45.41L181.11,45L184.06,43.63L185.57,41.22L187.02,39.53L188.52,36.39L191.48,31.48L192.98,29.68L198.79,20.93L200.29,21.43L203.25,21.55L204.7,21.01L207.7,22.89L209.16,25.15L210.66,28.08L212.11,32.6L215.12,39.36L216.47,41.78L219.43,37.88L220.93,37.72L222.38,35.8L223.88,35.45L225.39,37.67L226.84,37.28L229.79,33.62L231.3,28.32L232.8,25.92L234.2,22.04L237.16,16.14L238.66,16.02L241.61,15.79L243.12,18.03L249.03,13.76L250.53,14.07L253.38,15.91L254.84,13.73L257.79,6.56L259.29,5.49L262.25,10.36L263.75,16.65L268.21,33.98L269.56,36.68L271.07,36.53L272.52,37.49L275.47,28.89L276.98,28.46L278.48,25.92L279.93,27.3L281.43,28.77L282.89,31.4L287.25,37.82L288.75,38.59L290.2,39.55L291.7,38.21L294.66,35.45L296.16,32.16L297.61,33.89L299.11,36.93L304.98,53.25L306.48,59.37L313.89,78.94L315.34,83.55L318.3,93.05L319.8,95.13L322.66,99.03L324.16,96.77L325.61,95.94L327.11,93.65L331.57,81.97L333.02,76.44L335.98,64.35L337.48,60.89L340.34,55.1L341.84,56L343.29,55.85L344.79,58.62L346.25,57.67L347.75,58.71L349.25,60.91L350.7,61.66L352.21,61.61L353.66,59.28L356.66,61.34L358.02,63.01L362.48,56.51L363.93,51.17L365.43,48.15L366.93,48.47L368.39,47.46L369.89,48.48L371.34,47.34L372.84,44.54L375.75,45.76L377.25,44.48L378.7,45.08L380.21,42.46L384.66,38.57L386.12,39.3L389.07,38.33L390.57,40.65L392.07,43.82L393.43,43.66L396.38,48.47L397.89,50.13L400.84,50.19L402.34,47.31L403.8,47.09L405.3,48.17L406.75,48.92L408.25,51.36L411.11,52.65L412.61,51.08L414.07,51.17L415.57,52.28L418.52,53.68L420.02,55.38L422.98,51.55L424.43,53.36L427.44,51.57L428.79,53.94L431.75,62.2L433.25,67.75L440.66,99.08L442.11,107.93L450.98,162.85L452.43,174.46L453.93,183.57L455.44,186.16L456.89,188.56L458.39,186.89L459.84,178.58L461.35,162.94L464.2,131.74L465.71,113.31L470.11,67.89L471.61,59.8L476.07,42.94L477.52,37.79L479.03,35.55L480.53,31.47L481.88,30.58L483.39,31.99L487.79,43.18L489.3,45.81L492.25,47.94L493.75,46.92L496.71,48.66L498.21,48.3L499.57,50.02L501.07,49.2L504.02,47.22L505.48,48.1L508.48,48.18L509.93,48.52L511.43,46.95L512.89,47.77L517.3,56.07L518.8,58.13L521.75,61.59L523.21,63.18L526.21,62.7L527.66,59.82L529.16,58.6L530.62,60.09L533.62,63.22L534.98,63.26L537.93,65.61L539.43,66.63L540.89,65.55L542.39,65.86L545.34,65.92L546.85,65.25L548.3,63.88L549.8,60.16L551.3,59.12L552.66,60.85L555.61,63.39L557.11,65.51L561.57,70.35L563.02,70.76L565.98,75.54L567.48,76.7L568.98,76.4L570.34,77.52L573.29,79.24L574.8,78.7L577.75,80.74L579.25,78.87L582.21,77.38L583.66,75.18L585.16,75.72L586.66,74.96L588.07,72.06L589.57,71.46L596.98,60.25L598.44,59.02L601.39,56.25L602.89,56.76L604.39,56.93L605.75,56.25L607.25,55.33L608.71,57.09L611.66,57.72L613.16,55.35L614.66,52.22L616.12,52.79L617.62,53.74L619.07,53.74L620.57,52.38L622.08,53.72L623.43,54.67L624.93,57.91L626.39,57.97L627.89,58.81L639.76,78.15L641.11,79.82L644.07,79.73L645.57,80.88L647.02,81.95L648.52,84.52L650.03,86.23L651.48,86.23" style="vector-effect: non-scaling-stroke; fill: none; stroke: rgb(0, 0, 200); stroke-opacity: 1; stroke-width: 1px; opacity: 1;"/></g><g class="points"/><g class="text"/></g></g></g><g class="overplot"/><path class="xlines-above crisp" d="M50.972834645669295,217.8595800524934H723.4271653543307M50.972834645669295,22.807086614173222H723.4271653543307" style="fill: none; stroke-width: 1px; stroke: rgb(0, 0, 0); stroke-opacity: 1;"/><path class="ylines-above crisp" d="M51.472834645669295,23.307086614173222V217.3595800524934M722.9271653543307,23.307086614173222V217.3595800524934" style="fill: none; stroke-width: 1px; stroke: rgb(0, 0, 0); stroke-opacity: 1;"/><g class="overlines-above"/><g class="xaxislayer-above"><path class="xtick ticks crisp" d="M0,217.3595800524934v-5" transform="translate(53.262834645669294,0)" style="stroke: rgb(0, 0, 0); stroke-opacity: 1; stroke-width: 1px;"/><path class="xtick ticks crisp" d="M0,217.3595800524934v-5" transform="translate(212.4928346456693,0)" style="stroke: rgb(0, 0, 0); stroke-opacity: 1; stroke-width: 1px;"/><path class="xtick ticks crisp" d="M0,217.3595800524934v-5" transform="translate(371.7728346456693,0)" style="stroke: rgb(0, 0, 0); stroke-opacity: 1; stroke-width: 1px;"/><path class="xtick ticks crisp" d="M0,217.3595800524934v-5" transform="translate(531.0028346456693,0)" style="stroke: rgb(0, 0, 0); stroke-opacity: 1; stroke-width: 1px;"/><path class="xtick ticks crisp" d="M0,217.3595800524934v-5" transform="translate(690.2228346456693,0)" style="stroke: rgb(0, 0, 0); stroke-opacity: 1; stroke-width: 1px;"/><g class="xtick"><text text-anchor="middle" x="0" y="231.5595800524934" transform="translate(53.262834645669294,0)" style="font-family: 'Helvetica Neue'; font-size: 11px; fill: rgb(0, 0, 0); fill-opacity: 1; white-space: pre;">1983-01-01</text></g><g class="xtick"><text text-anchor="middle" x="0" y="231.5595800524934" transform="translate(212.4928346456693,0)" style="font-family: 'Helvetica Neue'; font-size: 11px; fill: rgb(0, 0, 0); fill-opacity: 1; white-space: pre;">1992-01-01</text></g><g class="xtick"><text text-anchor="middle" x="0" y="231.5595800524934" transform="translate(371.7728346456693,0)" style="font-family: 'Helvetica Neue'; font-size: 11px; fill: rgb(0, 0, 0); fill-opacity: 1; white-space: pre;">2001-01-01</text></g><g class="xtick"><text text-anchor="middle" x="0" y="231.5595800524934" transform="translate(531.0028346456693,0)" style="font-family: 'Helvetica Neue'; font-size: 11px; fill: rgb(0, 0, 0); fill-opacity: 1; white-space: pre;">2010-01-01</text></g><g class="xtick"><text text-anchor="middle" x="0" y="231.5595800524934" transform="translate(690.2228346456693,0)" style="font-family: 'Helvetica Neue'; font-size: 11px; fill: rgb(0, 0, 0); fill-opacity: 1; white-space: pre;">2019-01-01</text></g></g><g class="yaxislayer-above"><path class="ytick ticks crisp" d="M51.972834645669295,0h5" transform="translate(0,188.0070866141732)" style="stroke: rgb(0, 0, 0); stroke-opacity: 1; stroke-width: 1px;"/><path class="ytick ticks crisp" d="M51.972834645669295,0h5" transform="translate(0,141.72708661417323)" style="stroke: rgb(0, 0, 0); stroke-opacity: 1; stroke-width: 1px;"/><path class="ytick ticks crisp" d="M51.972834645669295,0h5" transform="translate(0,95.45708661417322)" style="stroke: rgb(0, 0, 0); stroke-opacity: 1; stroke-width: 1px;"/><path class="ytick ticks crisp" d="M51.972834645669295,0h5" transform="translate(0,49.17708661417322)" style="stroke: rgb(0, 0, 0); stroke-opacity: 1; stroke-width: 1px;"/><g class="ytick"><text text-anchor="end" x="48.77283464566929" y="3.8499999999999996" transform="translate(0,188.0070866141732)" style="font-family: 'Helvetica Neue'; font-size: 11px; fill: rgb(0, 0, 0); fill-opacity: 1; white-space: pre;">-0.010</text></g><g class="ytick"><text text-anchor="end" x="48.77283464566929" y="3.8499999999999996" transform="translate(0,141.72708661417323)" style="font-family: 'Helvetica Neue'; font-size: 11px; fill: rgb(0, 0, 0); fill-opacity: 1; white-space: pre;">-0.005</text></g><g class="ytick"><text text-anchor="end" x="48.77283464566929" y="3.8499999999999996" transform="translate(0,95.45708661417322)" style="font-family: 'Helvetica Neue'; font-size: 11px; fill: rgb(0, 0, 0); fill-opacity: 1; white-space: pre;">0.000</text></g><g class="ytick"><text text-anchor="end" x="48.77283464566929" y="3.8499999999999996" transform="translate(0,49.17708661417322)" style="font-family: 'Helvetica Neue'; font-size: 11px; fill: rgb(0, 0, 0); fill-opacity: 1; white-space: pre;">0.005</text></g></g><g class="overaxes-above"/></g></g><g class="polarlayer"/><g class="ternarylayer"/><g class="geolayer"/><g class="funnelarealayer"/><g class="pielayer"/><g class="treemaplayer"/><g class="sunburstlayer"/><g class="glimages"/><defs id="topdefs-e5ead7"><g class="clips"/><clipPath id="legende5ead7"><rect width="74" height="29" x="0" y="0"/></clipPath></defs><g class="layer-above"><g class="imagelayer"/><g class="shapelayer"/></g><g class="infolayer"><g class="legend" pointer-events="all" transform="translate(726, 110.5)"><rect class="bg" shape-rendering="crispEdges" style="stroke: rgb(0, 0, 0); stroke-opacity: 1; fill: rgb(255, 255, 255); fill-opacity: 1; stroke-width: 0px;" width="74" height="29" x="0" y="0"/><g class="scrollbox" transform="translate(0, 0)" clip-path="url('#legende5ead7')"><g class="groups" transform="translate(0, 0)"><g class="traces" transform="translate(0, 14.5)" style="opacity: 1;"><text class="legendtext user-select-none" text-anchor="start" x="40" y="4.29" style="font-family: sans-serif; font-size: 11px; fill: rgb(0, 0, 0); fill-opacity: 1; white-space: pre;">Slope</text><g class="layers" style="opacity: 1;"><g class="legendfill"/><g class="legendlines"><path class="js-line" d="M5,0h30" style="fill: none; stroke: rgb(0, 0, 200); stroke-opacity: 1; stroke-width: 1px;"/></g><g class="legendsymbols"><g class="legendpoints"/></g></g><rect class="legendtoggle" pointer-events="all" x="0" y="-9.5" width="68.125" height="19" style="cursor: pointer; fill: rgb(0, 0, 0); fill-opacity: 0;"/></g></g></g><rect class="scrollbar" rx="20" ry="3" width="0" height="0" style="fill: rgb(128, 139, 164); fill-opacity: 1;" x="0" y="0"/></g><g class="g-gtitle"/><g class="g-xtitle"/><g class="g-ytitle"/></g></svg>