<svg class="main-svg" xmlns="http://www.w3.org/2000/svg" xmlns:xlink="http://www.w3.org/1999/xlink" width="800" height="250" viewBox="0 0 800 250"><rect x="0" y="0" width="800" height="250" style="fill: rgb(255, 255, 255); fill-opacity: 1;"/><defs id="defs-0570e8"><g class="clips"><clipPath id="clip0570e8xyplot" class="plotclip"><rect width="653.2272965879265" height="155.9291338582677"/></clipPath><clipPath class="axesclip" id="clip0570e8x"><rect x="41.253018372703416" y="0" width="653.2272965879265" height="250"/></clipPath><clipPath class="axesclip" id="clip0570e8y"><rect x="0" y="48.202099737532805" width="800" height="155.9291338582677"/></clipPath><clipPath class="axesclip" id="clip0570e8xy"><rect x="41.253018372703416" y="48.202099737532805" width="653.2272965879265" height="155.9291338582677"/></clipPath></g><g class="gradients"/></defs><g class="bglayer"/><g class="layer-below"><g class="imagelayer"/><g class="shapelayer"/></g><g class="cartesianlayer"><g class="subplot xy"><g class="layer-subplot"><g class="shapelayer"/><g class="imagelayer"/></g><g class="gridlayer"><g class="x"><path class="xgrid crisp" transform="translate(43.13301837270342,0)" d="M0,48.202099737532805v155.9291338582677" style="stroke: rgb(0, 0, 0); stroke-opacity: 0.1; stroke-width: 0.5px;"/><path class="xgrid crisp" transform="translate(209.32301837270342,0)" d="M0,48.202099737532805v155.9291338582677" style="stroke: rgb(0, 0, 0); stroke-opacity: 0.1; stroke-width: 0.5px;"/><path class="xgrid crisp" transform="translate(375.4630183727034,0)" d="M0,48.202099737532805v155.9291338582677" style="stroke: rgb(0, 0, 0); stroke-opacity: 0.1; stroke-width: 0.5px;"/><path class="xgrid crisp" transform="translate(541.6530183727034,0)" d="M0,48.202099737532805v155.9291338582677" style="stroke: rgb(0, 0, 0); stroke-opacity: 0.1; stroke-width: 0.5px;"/></g><g class="y"><path class="ygrid crisp" transform="translate(0,172.2820997375328)" d="M41.253018372703416,0h653.2272965879265" style="stroke: rgb(0, 0, 0); stroke-opacity: 0.1; stroke-width: 0.5px;"/><path class="ygrid crisp" transform="translate(0,140.76209973753282)" d="M41.253018372703416,0h653.2272965879265" style="stroke: rgb(0, 0, 0); stroke-opacity: 0.1; stroke-width: 0.5px;"/><path class="ygrid crisp" transform="translate(0,109.2320997375328)" d="M41.253018372703416,0h653.2272965879265" style="stroke: rgb(0, 0, 0); stroke-opacity: 0.1; stroke-width: 0.5px;"/><path class="ygrid crisp" transform="translate(0,77.71209973753281)" d="M41.253018372703416,0h653.2272965879265" style="stroke: rgb(0, 0, 0); stroke-opacity: 0.1; stroke-width: 0.5px;"/></g></g><g class="zerolinelayer"/><path class="xlines-below"/><path class="ylines-below"/><g class="overlines-below"/><g class="xaxislayer-below"/><g class="yaxislayer-below"/><g class="overaxes-below"/><g class="plot" transform="translate(41.253018372703416, 48.202099737532805)" clip-path="url('#clip0570e8xyplot')"><g class="scatterlayer mlayer"><g class="trace scatter tracecefb02" style="stroke-miterlimit: 2; opacity: 1;"><g class="fills"/><g class="errorbars"/><g class="lines"><path class="js-line" d="M18.49,151.52L23.99,149.37L25.4,149.06L32.36,146.65L33.73,146.35L36.55,145.16L37.82,144.42L47.56,141.93L48.97,141.21L51.74,139.91L53.15,140.2L55.84,141.64L57.2,141.21L59.98,140.49L61.39,140.34L84.95,131.4L86.36,131.13L91.87,128.7L93.23,128.04L109.84,120.25L111.25,120.25L116.8,117.99L118.21,116.5L126.44,112.83L127.85,111.51L132.04,109.01L133.4,108.42L136.22,107.72L137.5,107.72L148.64,104.25L150.01,103.8L154.15,102.77L155.56,102.43L172.16,97.53L173.53,97.1L179.12,96.22L180.49,95.57L187.36,93.96L188.77,93.85L203.96,89.62L205.37,89L220.61,85.2L222.02,84.6L239.99,80.81L241.4,80.51L270.43,76.05L271.84,75L275.98,74.24L277.39,73.86L281.58,72.64L282.94,72.27L296.82,67.58L298.23,67.31L309.24,64.43L310.65,64.43L312.06,63.81L313.42,64.26L319.02,63.9L320.29,63.46L323.07,62.58L324.48,62.49L334.21,59.88L335.62,59.02L336.9,58.76L338.31,59.36L341.08,59.45L342.45,58.94L345.27,57.74L346.63,57.91L349.41,57.4L350.82,56.72L361.92,53.79L363.28,52.96L366.06,52.22L367.47,52.3L371.56,50.58L372.93,50.66L374.34,50.58L375.7,49.61L377.11,48.64L378.52,46.48L379.89,46.25L381.3,47.04L382.66,47.04L384.07,46.09L386.76,45.77L388.17,44.98L393.72,42.57L395.13,43.34L397.9,43.97L399.27,43.11L402.09,42.24L403.36,41.42L413.1,38.45L414.51,37.22L422.79,33.98L424.2,32.34L425.56,31.22L426.97,31.45L428.38,31.32L429.75,32.68L432.52,36.8L433.93,36.4L436.62,35.98L438.03,35.82L439.39,35.59L440.8,34.29L443.58,33.81L444.99,33.51L449.13,32.42L450.54,32.32L457.41,32.53L458.77,32.24L464.37,30.81L465.73,30.17L478.2,25.85L479.56,25.75L489.25,24.39L490.66,24.52L492.03,24.47L493.44,23.56L496.21,22.39L497.62,22.65L500.4,22.36L501.81,21.5L505.86,22.21L507.27,21.84L525.24,18.45L526.65,18.47L530.83,18.79L532.2,19.28L533.61,20.28L535.02,19.89L541.84,18.09L543.25,18.09L546.03,18.29L547.44,18.1L552.94,18.12L554.35,17.56L562.68,15.72L564.09,15.49L568.27,14.17L569.55,14.37L576.51,13.35L577.92,12.62L582.06,11.73L583.47,11.11L591.7,9.43L593.11,9.17L598.66,8.7L600.07,8.76L609.72,6.44L611.13,6.26L618.09,4.76" style="vector-effect: non-scaling-stroke; fill: none; stroke: rgb(0, 0, 200); stroke-opacity: 1; stroke-width: 1px; opacity: 1;"/></g><g class="points"/><g class="text"/></g><g class="trace scatter trace1ab8ee" style="stroke-miterlimit: 2; opacity: 1;"><g class="fills"/><g class="errorbars"/><g class="lines"><path class="js-line" d="M619.41,4.41L634.74,4.42" style="vector-effect: non-scaling-stroke; fill: none; stroke: rgb(0, 0, 200); stroke-opacity: 1; stroke-width: 1px; opacity: 1; stroke-dasharray: 3px, 3px;"/></g><g class="points"/><g class="text"/></g></g></g><g class="overplot"/><path class="xlines-above crisp" d="M40.253018372703416,204.6312335958005H695.4803149606299M40.253018372703416,47.702099737532805H695.4803149606299" style="fill: none; stroke-width: 1px; stroke: rgb(0, 0, 0); stroke-opacity: 1;"/><path class="ylines-above crisp" d="M40.753018372703416,48.202099737532805V204.1312335958005M694.9803149606299,48.202099737532805V204.1312335958005" style="fill: none; stroke-width: 1px; stroke: rgb(0, 0, 0); stroke-opacity: 1;"/><g class="overlines-above"/><g class="xaxislayer-above"><path class="xtick ticks crisp" d="M0,204.1312335958005v-5" transform="translate(43.13301837270342,0)" style="stroke: rgb(0, 0, 0); stroke-opacity: 1; stroke-width: 1px;"/><path class="xtick ticks crisp" d="M0,204.1312335958005v-5" transform="translate(209.32301837270342,0)" style="stroke: rgb(0, 0, 0); stroke-opacity: 1; stroke-width: 1px;"/><path class="xtick ticks crisp" d="M0,204.1312335958005v-5" transform="translate(375.4630183727034,0)" style="stroke: rgb(0, 0, 0); stroke-opacity: 1; stroke-width: 1px;"/><path class="xtick ticks crisp" d="M0,204.1312335958005v-5" transform="translate(541.6530183727034,0)" style="stroke: rgb(0, 0, 0); stroke-opacity: 1; stroke-width: 1px;"/><g class="xtick"><text text-anchor="middle" x="0" y="218.33123359580048" transform="translate(43.13301837270342,0)" style="font-family: 'Helvetica Neue'; font-size: 11px; fill: rgb(0, 0, 0); fill-opacity: 1; white-space: pre;">1983-01-01</text></g><g class="xtick"><text text-anchor="middle" x="0" y="218.33123359580048" transform="translate(209.32301837270342,0)" style="font-family: 'Helvetica Neue'; font-size: 11px; fill: rgb(0, 0, 0); fill-opacity: 1; white-space: pre;">1993-01-01</text></g><g class="xtick"><text text-anchor="middle" x="0" y="218.33123359580048" transform="translate(375.4630183727034,0)" style="font-family: 'Helvetica Neue'; font-size: 11px; fill: rgb(0, 0, 0); fill-opacity: 1; white-space: pre;">2003-01-01</text></g><g class="xtick"><text text-anchor="middle" x="0" y="218.33123359580048" transform="translate(541.6530183727034,0)" style="font-family: 'Helvetica Neue'; font-size: 11px; fill: rgb(0, 0, 0); fill-opacity: 1; white-space: pre;">2013-01-01</text></g></g><g class="yaxislayer-above"><path class="ytick ticks crisp" d="M41.253018372703416,0h5" transform="translate(0,172.2820997375328)" style="stroke: rgb(0, 0, 0); stroke-opacity: 1; stroke-width: 1px;"/><path class="ytick ticks crisp" d="M41.253018372703416,0h5" transform="translate(0,140.76209973753282)" style="stroke: rgb(0, 0, 0); stroke-opacity: 1; stroke-width: 1px;"/><path class="ytick ticks crisp" d="M41.253018372703416,0h5" transform="translate(0,109.2320997375328)" style="stroke: rgb(0, 0, 0); stroke-opacity: 1; stroke-width: 1px;"/><path class="ytick ticks crisp" d="M41.253018372703416,0h5" transform="translate(0,77.71209973753281)" style="stroke: rgb(0, 0, 0); stroke-opacity: 1; stroke-width: 1px;"/><g class="ytick"><text text-anchor="end" x="38.05301837270341" y="3.8499999999999996" transform="translate(0,203.81209973753283)" style="font-family: 'Helvetica Neue'; font-size: 11px; fill: rgb(0, 0, 0); fill-opacity: 1; white-space: pre;">4.6</text></g><g class="ytick"><text text-anchor="end" x="38.05301837270341" y="3.8499999999999996" transform="translate(0,172.2820997375328)" style="font-family: 'Helvetica Neue'; font-size: 11px; fill: rgb(0, 0, 0); fill-opacity: 1; white-space: pre;">4.8</text></g><g class="ytick"><text text-anchor="end" x="38.05301837270341" y="3.8499999999999996" transform="translate(0,140.76209973753282)" style="font-family: 'Helvetica Neue'; font-size: 11px; fill: rgb(0, 0, 0); fill-opacity: 1; white-space: pre;">5.0</text></g><g class="ytick"><text text-anchor="end" x="38.05301837270341" y="3.8499999999999996" transform="translate(0,109.2320997375328)" style="font-family: 'Helvetica Neue'; font-size: 11px; fill: rgb(0, 0, 0); fill-opacity: 1; white-space: pre;">5.2</text></g><g class="ytick"><text text-anchor="end" x="38.05301837270341" y="3.8499999999999996" transform="translate(0,77.71209973753281)" style="font-family: 'Helvetica Neue'; font-size: 11px; fill: rgb(0, 0, 0); fill-opacity: 1; white-space: pre;">5.4</text></g></g><g class="overaxes-above"/></g></g><g class="polarlayer"/><g class="ternarylayer"/><g class="geolayer"/><g class="funnelarealayer"/><g class="pielayer"/><g class="treemaplayer"/><g class="sunburstlayer"/><g class="glimages"/><defs id="topdefs-0570e8"><g class="clips"/><clipPath id="legend0570e8"><rect width="88" height="48" x="0" y="0"/></clipPath></defs><g class="layer-above"><g class="imagelayer"/><g class="shapelayer"/></g><g class="infolayer"><g class="legend" pointer-events="all" transform="translate(712, 101)"><rect class="bg" shape-rendering="crispEdges" width="88" height="48" x="0" y="0" style="stroke: rgb(0, 0, 0); stroke-opacity: 1; fill: rgb(255, 255, 255); fill-opacity: 1; stroke-width: 0px;"/><g class="scrollbox" transform="translate(0, 0)" clip-path="url('#legend0570e8')"><g class="groups" transform="translate(0, 0)"><g class="traces" transform="translate(0, 14.5)" style="opacity: 1;"><text class="legendtext user-select-none" text-anchor="start" x="40" y="4.29" style="font-family: sans-serif; font-size: 11px; fill: rgb(0, 0, 0); fill-opacity: 1; white-space: pre;">Data</text><g class="layers" style="opacity: 1;"><g class="legendfill"/><g class="legendlines"><path class="js-line" d="M5,0h30" style="fill: none; stroke: rgb(0, 0, 200); stroke-opacity: 1; stroke-width: 1px;"/></g><g class="legendsymbols"><g class="legendpoints"/></g></g><rect class="legendtoggle" pointer-events="all" x="0" y="-9.5" width="82.78125" height="19" style="cursor: pointer; fill: rgb(0, 0, 0); fill-opacity: 0;"/></g></g><g class="groups" transform="translate(0, 0)"><g class="traces" transform="translate(0, 33.5)" style="opacity: 1;"><text class="legendtext user-select-none" text-anchor="start" x="40" y="4.29" style="font-family: sans-serif; font-size: 11px; fill: rgb(0, 0, 0); fill-opacity: 1; white-space: pre;">Forecast</text><g class="layers" style="opacity: 1;"><g class="legendfill"/><g class="legendlines"><path class="js-line" d="M5,0h30" style="fill: none; stroke: rgb(0, 0, 200); stroke-opacity: 1; stroke-dasharray: 3px, 3px; stroke-width: 1px;"/></g><g class="legendsymbols"><g class="legendpoints"/></g></g><rect class="legendtoggle" pointer-events="all" x="0" y="-9.5" width="82.78125" height="19" style="cursor: pointer; fill: rgb(0, 0, 0); fill-opacity: 0;"/></g></g></g><rect class="scrollbar" rx="20" ry="3" width="0" height="0" x="0" y="0" style="fill: rgb(128, 139, 164); fill-opacity: 1;"/></g><g class="g-gtitle"/><g class="g-xtitle"/><g class="g-ytitle"/><g class="annotation" data-index="0" style="opacity: 1;"><g class="annotation-text-g" transform="rotate(0,367.86666666666673,30.5)"><g class="cursor-pointer" transform="translate(331, 20)"><rect class="bg" x="0.5" y="0.5" width="72" height="20" style="stroke-width: 1px; stroke: rgb(0, 0, 0); stroke-opacity: 0; fill: rgb(0, 0, 0); fill-opacity: 0;"/><text class="annotation-text" text-anchor="middle" x="36.46875" y="15.5" style="font-family: 'Helvetica Neue'; font-size: 14px; fill: rgb(0, 0, 0); fill-opacity: 1; white-space: pre;">CPIAUCSL</text></g></g></g></g></svg>