<svg class="main-svg" xmlns="http://www.w3.org/2000/svg" xmlns:xlink="http://www.w3.org/1999/xlink" width="800" height="250" viewBox="0 0 800 250"><rect x="0" y="0" width="800" height="250" style="fill: rgb(255, 255, 255); fill-opacity: 1;"/><defs id="defs-a3ae5e"><g class="clips"><clipPath id="clipa3ae5exyplot" class="plotclip"><rect width="645.3161854768155" height="155.9291338582677"/></clipPath><clipPath class="axesclip" id="clipa3ae5ex"><rect x="49.16412948381453" y="0" width="645.3161854768155" height="250"/></clipPath><clipPath class="axesclip" id="clipa3ae5ey"><rect x="0" y="48.202099737532805" width="800" height="155.9291338582677"/></clipPath><clipPath class="axesclip" id="clipa3ae5exy"><rect x="49.16412948381453" y="48.202099737532805" width="645.3161854768155" height="155.9291338582677"/></clipPath></g><g class="gradients"/></defs><g class="bglayer"/><g class="layer-below"><g class="imagelayer"/><g class="shapelayer"/></g><g class="cartesianlayer"><g class="subplot xy"><g class="layer-subplot"><g class="shapelayer"/><g class="imagelayer"/></g><g class="gridlayer"><g class="x"><path class="xgrid crisp" transform="translate(51.02412948381453,0)" d="M0,48.202099737532805v155.9291338582677" style="stroke: rgb(0, 0, 0); stroke-opacity: 0.1; stroke-width: 0.5px;"/><path class="xgrid crisp" transform="translate(215.19412948381452,0)" d="M0,48.202099737532805v155.9291338582677" style="stroke: rgb(0, 0, 0); stroke-opacity: 0.1; stroke-width: 0.5px;"/><path class="xgrid crisp" transform="translate(379.32412948381454,0)" d="M0,48.202099737532805v155.9291338582677" style="stroke: rgb(0, 0, 0); stroke-opacity: 0.1; stroke-width: 0.5px;"/><path class="xgrid crisp" transform="translate(543.5041294838145,0)" d="M0,48.202099737532805v155.9291338582677" style="stroke: rgb(0, 0, 0); stroke-opacity: 0.1; stroke-width: 0.5px;"/></g><g class="y"><path class="ygrid crisp" transform="translate(0,181.12209973753278)" d="M49.16412948381453,0h645.3161854768155" style="stroke: rgb(0, 0, 0); stroke-opacity: 0.1; stroke-width: 0.5px;"/><path class="ygrid crisp" transform="translate(0,151.6820997375328)" d="M49.16412948381453,0h645.3161854768155" style="stroke: rgb(0, 0, 0); stroke-opacity: 0.1; stroke-width: 0.5px;"/><path class="ygrid crisp" transform="translate(0,122.24209973753281)" d="M49.16412948381453,0h645.3161854768155" style="stroke: rgb(0, 0, 0); stroke-opacity: 0.1; stroke-width: 0.5px;"/><path class="ygrid crisp" transform="translate(0,92.80209973753281)" d="M49.16412948381453,0h645.3161854768155" style="stroke: rgb(0, 0, 0); stroke-opacity: 0.1; stroke-width: 0.5px;"/><path class="ygrid crisp" transform="translate(0,63.3620997375328)" d="M49.16412948381453,0h645.3161854768155" style="stroke: rgb(0, 0, 0); stroke-opacity: 0.1; stroke-width: 0.5px;"/></g></g><g class="zerolinelayer"/><path class="xlines-below"/><path class="ylines-below"/><g class="overlines-below"/><g class="xaxislayer-below"/><g class="yaxislayer-below"/><g class="overaxes-below"/><g class="plot" transform="translate(49.16412948381453, 48.202099737532805)" clip-path="url('#clipa3ae5exyplot')"><g class="scatterlayer mlayer"><g class="trace scatter trace73baa0" style="stroke-miterlimit: 2; opacity: 1;"><g class="fills"/><g class="errorbars"/><g class="lines"><path class="js-line" d="M18.26,151.52L22.35,147.98L23.7,147.02L29.23,143.15L30.58,142.27L34.71,139.99L36.11,139.59L40.11,137.13L41.5,136.69L52.51,132.53L53.77,132.27L56.51,131.34L57.9,131.61L62.04,129.31L63.39,128.76L71.57,124.73L72.91,124.07L78.44,121.42L79.79,120.02L89.36,114.86L90.76,113.84L98.98,109.48L100.37,108.75L105.77,106.69L107.16,106.38L111.29,105.45L112.64,105.16L119.43,102.01L120.82,101.9L123.56,101.44L124.91,101.53L130.44,103.17L131.79,103.3L135.83,104.9L137.23,105.47L141.32,105.66L142.71,105.61L155.02,104.69L156.42,104.51L163.29,103.01L164.64,102.41L167.43,100.94L168.69,101.07L175.56,97.84L176.96,97.21L189.22,89.93L190.57,88.97L202.89,82.72L204.24,82.77L212.5,79.95L213.85,79.59L215.25,79.6L216.64,78.55L230.3,72.65L231.69,72.11L239.83,67.9L241.22,67.95L245.36,65.23L246.71,64.49L286.34,47.15L287.74,47.24L291.87,46.59L293.22,46.6L297.36,45.83L298.75,45.63L304.14,46.71L305.49,46.99L309.62,48.6L311.02,49.3L317.8,50.47L319.15,50.44L327.42,50.49L328.77,50.81L331.56,50.87L332.82,51.35L339.69,51.54L341.08,51.3L346.57,50.14L347.96,50.01L353.4,47.84L354.75,47.72L361.62,45.99L363.02,45.66L373.94,41.71L375.29,41.52L382.07,38.49L383.47,38.15L388.95,37.09L390.34,36.77L393.08,36.3L394.43,35.9L399.87,34.63L401.22,34.31L413.62,33.61L414.92,33.71L423.19,36.97L424.54,38L434.07,48.55L435.46,49.6L439.6,51.32L440.95,51.77L445.08,52.35L446.47,52.56L449.13,51.62L450.47,50.41L456,51.07L457.35,50.46L464.14,48.97L465.53,48.27L472.41,46.58L473.75,46.13L477.89,44.61L479.28,44.03L483.33,43.1L484.72,42.94L499.73,38.39L501.12,38L506.61,36.35L508,35.78L512.13,34.91L513.39,34.36L523.01,30.44L524.4,29.83L535.28,25.88L536.67,25.62L543.55,23.47L544.94,22.93L557.26,19.3L558.61,18.83L610.6,4.8" style="vector-effect: non-scaling-stroke; fill: none; stroke: rgb(0, 0, 200); stroke-opacity: 1; stroke-width: 1px; opacity: 1;"/></g><g class="points"/><g class="text"/></g><g class="trace scatter trace5b2658" style="stroke-miterlimit: 2; opacity: 1;"><g class="fills"/><g class="errorbars"/><g class="lines"><path class="js-line" d="M611.91,4.41L627.05,4.46" style="vector-effect: non-scaling-stroke; fill: none; stroke: rgb(0, 0, 200); stroke-opacity: 1; stroke-width: 1px; opacity: 1; stroke-dasharray: 3px, 3px;"/></g><g class="points"/><g class="text"/></g></g></g><g class="overplot"/><path class="xlines-above crisp" d="M48.16412948381453,204.6312335958005H695.48031496063M48.16412948381453,47.702099737532805H695.48031496063" style="fill: none; stroke-width: 1px; stroke: rgb(0, 0, 0); stroke-opacity: 1;"/><path class="ylines-above crisp" d="M48.66412948381453,48.202099737532805V204.1312335958005M694.98031496063,48.202099737532805V204.1312335958005" style="fill: none; stroke-width: 1px; stroke: rgb(0, 0, 0); stroke-opacity: 1;"/><g class="overlines-above"/><g class="xaxislayer-above"><path class="xtick ticks crisp" d="M0,204.1312335958005v-5" transform="translate(51.02412948381453,0)" style="stroke: rgb(0, 0, 0); stroke-opacity: 1; stroke-width: 1px;"/><path class="xtick ticks crisp" d="M0,204.1312335958005v-5" transform="translate(215.19412948381452,0)" style="stroke: rgb(0, 0, 0); stroke-opacity: 1; stroke-width: 1px;"/><path class="xtick ticks crisp" d="M0,204.1312335958005v-5" transform="translate(379.32412948381454,0)" style="stroke: rgb(0, 0, 0); stroke-opacity: 1; stroke-width: 1px;"/><path class="xtick ticks crisp" d="M0,204.1312335958005v-5" transform="translate(543.5041294838145,0)" style="stroke: rgb(0, 0, 0); stroke-opacity: 1; stroke-width: 1px;"/><g class="xtick"><text text-anchor="middle" x="0" y="218.33123359580048" transform="translate(51.02412948381453,0)" style="font-family: 'Helvetica Neue'; font-size: 11px; fill: rgb(0, 0, 0); fill-opacity: 1; white-space: pre;">1983-01-01</text></g><g class="xtick"><text text-anchor="middle" x="0" y="218.33123359580048" transform="translate(215.19412948381452,0)" style="font-family: 'Helvetica Neue'; font-size: 11px; fill: rgb(0, 0, 0); fill-opacity: 1; white-space: pre;">1993-01-01</text></g><g class="xtick"><text text-anchor="middle" x="0" y="218.33123359580048" transform="translate(379.32412948381454,0)" style="font-family: 'Helvetica Neue'; font-size: 11px; fill: rgb(0, 0, 0); fill-opacity: 1; white-space: pre;">2003-01-01</text></g><g class="xtick"><text text-anchor="middle" x="0" y="218.33123359580048" transform="translate(543.5041294838145,0)" style="font-family: 'Helvetica Neue'; font-size: 11px; fill: rgb(0, 0, 0); fill-opacity: 1; white-space: pre;">2013-01-01</text></g></g><g class="yaxislayer-above"><path class="ytick ticks crisp" d="M49.16412948381453,0h5" transform="translate(0,181.12209973753278)" style="stroke: rgb(0, 0, 0); stroke-opacity: 1; stroke-width: 1px;"/><path class="ytick ticks crisp" d="M49.16412948381453,0h5" transform="translate(0,151.6820997375328)" style="stroke: rgb(0, 0, 0); stroke-opacity: 1; stroke-width: 1px;"/><path class="ytick ticks crisp" d="M49.16412948381453,0h5" transform="translate(0,122.24209973753281)" style="stroke: rgb(0, 0, 0); stroke-opacity: 1; stroke-width: 1px;"/><path class="ytick ticks crisp" d="M49.16412948381453,0h5" transform="translate(0,92.80209973753281)" style="stroke: rgb(0, 0, 0); stroke-opacity: 1; stroke-width: 1px;"/><path class="ytick ticks crisp" d="M49.16412948381453,0h5" transform="translate(0,63.3620997375328)" style="stroke: rgb(0, 0, 0); stroke-opacity: 1; stroke-width: 1px;"/><g class="ytick"><text text-anchor="end" x="45.964129483814524" y="3.8499999999999996" transform="translate(0,181.12209973753278)" style="font-family: 'Helvetica Neue'; font-size: 11px; fill: rgb(0, 0, 0); fill-opacity: 1; white-space: pre;">11.5</text></g><g class="ytick"><text text-anchor="end" x="45.964129483814524" y="3.8499999999999996" transform="translate(0,151.6820997375328)" style="font-family: 'Helvetica Neue'; font-size: 11px; fill: rgb(0, 0, 0); fill-opacity: 1; white-space: pre;">11.6</text></g><g class="ytick"><text text-anchor="end" x="45.964129483814524" y="3.8499999999999996" transform="translate(0,122.24209973753281)" style="font-family: 'Helvetica Neue'; font-size: 11px; fill: rgb(0, 0, 0); fill-opacity: 1; white-space: pre;">11.7</text></g><g class="ytick"><text text-anchor="end" x="45.964129483814524" y="3.8499999999999996" transform="translate(0,92.80209973753281)" style="font-family: 'Helvetica Neue'; font-size: 11px; fill: rgb(0, 0, 0); fill-opacity: 1; white-space: pre;">11.8</text></g><g class="ytick"><text text-anchor="end" x="45.964129483814524" y="3.8499999999999996" transform="translate(0,63.3620997375328)" style="font-family: 'Helvetica Neue'; font-size: 11px; fill: rgb(0, 0, 0); fill-opacity: 1; white-space: pre;">11.9</text></g></g><g class="overaxes-above"/></g></g><g class="polarlayer"/><g class="ternarylayer"/><g class="geolayer"/><g class="funnelarealayer"/><g class="pielayer"/><g class="treemaplayer"/><g class="sunburstlayer"/><g class="glimages"/><defs id="topdefs-a3ae5e"><g class="clips"/><clipPath id="legenda3ae5e"><rect width="88" height="48" x="0" y="0"/></clipPath></defs><g class="layer-above"><g class="imagelayer"/><g class="shapelayer"/></g><g class="infolayer"><g class="legend" pointer-events="all" transform="translate(712, 101)"><rect class="bg" shape-rendering="crispEdges" width="88" height="48" x="0" y="0" style="stroke: rgb(0, 0, 0); stroke-opacity: 1; fill: rgb(255, 255, 255); fill-opacity: 1; stroke-width: 0px;"/><g class="scrollbox" transform="translate(0, 0)" clip-path="url('#legenda3ae5e')"><g class="groups" transform="translate(0, 0)"><g class="traces" transform="translate(0, 14.5)" style="opacity: 1;"><text class="legendtext user-select-none" text-anchor="start" x="40" y="4.29" style="font-family: sans-serif; font-size: 11px; fill: rgb(0, 0, 0); fill-opacity: 1; white-space: pre;">Data</text><g class="layers" style="opacity: 1;"><g class="legendfill"/><g class="legendlines"><path class="js-line" d="M5,0h30" style="fill: none; stroke: rgb(0, 0, 200); stroke-opacity: 1; stroke-width: 1px;"/></g><g class="legendsymbols"><g class="legendpoints"/></g></g><rect class="legendtoggle" pointer-events="all" x="0" y="-9.5" width="82.78125" height="19" style="cursor: pointer; fill: rgb(0, 0, 0); fill-opacity: 0;"/></g></g><g class="groups" transform="translate(0, 0)"><g class="traces" transform="translate(0, 33.5)" style="opacity: 1;"><text class="legendtext user-select-none" text-anchor="start" x="40" y="4.29" style="font-family: sans-serif; font-size: 11px; fill: rgb(0, 0, 0); fill-opacity: 1; white-space: pre;">Forecast</text><g class="layers" style="opacity: 1;"><g class="legendfill"/><g class="legendlines"><path class="js-line" d="M5,0h30" style="fill: none; stroke: rgb(0, 0, 200); stroke-opacity: 1; stroke-dasharray: 3px, 3px; stroke-width: 1px;"/></g><g class="legendsymbols"><g class="legendpoints"/></g></g><rect class="legendtoggle" pointer-events="all" x="0" y="-9.5" width="82.78125" height="19" style="cursor: pointer; fill: rgb(0, 0, 0); fill-opacity: 0;"/></g></g></g><rect class="scrollbar" rx="20" ry="3" width="0" height="0" x="0" y="0" style="fill: rgb(128, 139, 164); fill-opacity: 1;"/></g><g class="g-gtitle"/><g class="g-xtitle"/><g class="g-ytitle"/><g class="annotation" data-index="0" style="opacity: 1;"><g class="annotation-text-g" transform="rotate(0,371.82222222222225,30.5)"><g class="cursor-pointer" transform="translate(342, 20)"><rect class="bg" x="0.5" y="0.5" width="58" height="20" style="stroke-width: 1px; stroke: rgb(0, 0, 0); stroke-opacity: 0; fill: rgb(0, 0, 0); fill-opacity: 0;"/><text class="annotation-text" text-anchor="middle" x="29.46875" y="15.5" style="font-family: 'Helvetica Neue'; font-size: 14px; fill: rgb(0, 0, 0); fill-opacity: 1; white-space: pre;">PAYEMS</text></g></g></g></g></svg>