<svg class="main-svg" xmlns="http://www.w3.org/2000/svg" xmlns:xlink="http://www.w3.org/1999/xlink" width="800" height="250" viewBox="0 0 800 250"><rect x="0" y="0" width="800" height="250" style="fill: rgb(255, 255, 255); fill-opacity: 1;"/><defs id="defs-37845c"><g class="clips"><clipPath id="clip37845cxyplot" class="plotclip"><rect width="653.2272965879265" height="155.9291338582677"/></clipPath><clipPath class="axesclip" id="clip37845cx"><rect x="41.253018372703416" y="0" width="653.2272965879265" height="250"/></clipPath><clipPath class="axesclip" id="clip37845cy"><rect x="0" y="48.202099737532805" width="800" height="155.9291338582677"/></clipPath><clipPath class="axesclip" id="clip37845cxy"><rect x="41.253018372703416" y="48.202099737532805" width="653.2272965879265" height="155.9291338582677"/></clipPath></g><g class="gradients"/></defs><g class="bglayer"/><g class="layer-below"><g class="imagelayer"/><g class="shapelayer"/></g><g class="cartesianlayer"><g class="subplot xy"><g class="layer-subplot"><g class="shapelayer"/><g class="imagelayer"/></g><g class="gridlayer"><g class="x"><path class="xgrid crisp" transform="translate(43.13301837270342,0)" d="M0,48.202099737532805v155.9291338582677" style="stroke: rgb(0, 0, 0); stroke-opacity: 0.1; stroke-width: 0.5px;"/><path class="xgrid crisp" transform="translate(209.32301837270342,0)" d="M0,48.202099737532805v155.9291338582677" style="stroke: rgb(0, 0, 0); stroke-opacity: 0.1; stroke-width: 0.5px;"/><path class="xgrid crisp" transform="translate(375.4630183727034,0)" d="M0,48.202099737532805v155.9291338582677" style="stroke: rgb(0, 0, 0); stroke-opacity: 0.1; stroke-width: 0.5px;"/><path class="xgrid crisp" transform="translate(541.6530183727034,0)" d="M0,48.202099737532805v155.9291338582677" style="stroke: rgb(0, 0, 0); stroke-opacity: 0.1; stroke-width: 0.5px;"/></g><g class="y"><path class="ygrid crisp" transform="translate(0,199.7320997375328)" d="M41.253018372703416,0h653.2272965879265" style="stroke: rgb(0, 0, 0); stroke-opacity: 0.1; stroke-width: 0.5px;"/><path class="ygrid crisp" transform="translate(0,158.0220997375328)" d="M41.253018372703416,0h653.2272965879265" style="stroke: rgb(0, 0, 0); stroke-opacity: 0.1; stroke-width: 0.5px;"/><path class="ygrid crisp" transform="translate(0,116.3120997375328)" d="M41.253018372703416,0h653.2272965879265" style="stroke: rgb(0, 0, 0); stroke-opacity: 0.1; stroke-width: 0.5px;"/><path class="ygrid crisp" transform="translate(0,74.6120997375328)" d="M41.253018372703416,0h653.2272965879265" style="stroke: rgb(0, 0, 0); stroke-opacity: 0.1; stroke-width: 0.5px;"/></g></g><g class="zerolinelayer"/><path class="xlines-below"/><path class="ylines-below"/><g class="overlines-below"/><g class="xaxislayer-below"/><g class="yaxislayer-below"/><g class="overaxes-below"/><g class="plot" transform="translate(41.253018372703416, 48.202099737532805)" clip-path="url('#clip37845cxyplot')"><g class="scatterlayer mlayer"><g class="trace scatter trace1aaa1a" style="stroke-miterlimit: 2; opacity: 1;"><g class="fills"/><g class="errorbars"/><g class="lines"><path class="js-line" d="M18.49,151.52L26.77,145.93L28.18,145.73L30.95,146.44L32.36,145.62L37.82,144.67L39.23,145.24L42.01,144.79L43.37,146.15L46.19,144.39L47.56,145.26L48.97,144.55L50.33,142.38L51.74,141.42L53.15,142.79L54.43,144.23L55.84,144.17L57.2,143.71L58.61,144.39L59.98,143.23L61.39,143.51L64.16,142.11L65.57,141.17L66.94,139.42L68.35,140.06L69.76,137.35L71.03,137.08L79.4,129.75L80.77,126.73L83.54,124.62L84.95,124.52L89.09,122.02L90.46,122.27L94.64,120.78L96.05,121.35L100.19,118.97L101.6,118.35L103.01,119.3L104.29,118.82L105.7,118.68L107.06,120.07L108.47,119.97L109.84,121.89L111.25,119.98L112.66,120.7L114.02,120.84L115.43,120.16L116.8,118.9L118.21,120.28L120.89,117.23L122.3,117.55L129.26,115.76L130.63,117.33L133.4,121.15L134.81,122.06L137.5,124.62L138.91,124.2L141.68,120.24L143.05,119.99L144.46,119.81L145.87,117.96L150.01,119.39L151.42,120.56L156.92,115.1L158.33,115.07L159.7,113.19L161.11,114.22L162.52,113.73L163.88,112.18L169.48,109.28L170.75,109.57L172.16,108.84L173.53,109.57L179.12,107.8L180.49,106.21L186.08,103.36L187.36,101.27L194.32,96.15L195.73,95.35L199.87,90.14L201.28,89.76L203.96,89.8L205.37,89.93L208.15,88.52L209.51,89.35L210.92,86.73L212.33,85.9L213.7,86.15L215.11,85.63L216.47,84.83L217.88,86.2L219.29,83.01L220.61,83.21L224.8,78.03L226.16,78.31L228.99,75.67L230.35,75.79L233.12,72.61L234.54,72.31L237.22,68.41L238.63,68.36L242.77,64.55L244.18,62.38L249.73,56.29L251.14,55.22L255.23,54.03L256.6,52.71L259.37,54.75L260.78,50.51L262.2,50.92L263.56,49.24L264.97,49.37L266.34,48.6L270.43,46.19L271.84,45.62L273.2,44.19L274.61,44.54L277.39,42.35L278.8,43.23L280.16,40.47L281.58,39.49L282.94,37.88L284.35,37.84L287.08,36.47L288.49,34.97L291.27,34.42L292.63,34.74L294.04,35.34L295.45,34.54L301,37.03L302.41,38.37L305.1,39.46L306.46,40.74L309.24,43.19L310.65,43.45L316.2,46.13L317.61,44.82L319.02,44.87L320.29,43.18L323.07,41.44L324.48,39.46L327.25,39.94L328.66,39.65L330.03,40.28L331.44,39.19L332.8,40.22L334.21,38.63L336.9,38.82L338.31,40.32L341.08,39.91L342.45,38.99L343.86,39.29L345.27,38.07L346.63,37.77L348.04,36.17L350.82,35.79L352.23,34.53L353.55,35.57L354.96,34.63L356.32,32.98L357.73,34.71L359.1,33.11L360.51,32.96L361.92,32.78L363.28,30.8L364.69,30.37L366.06,28.84L368.88,26.45L370.15,26.78L374.34,25.36L375.7,26.02L377.11,25.45L378.52,29.38L381.3,24.66L382.66,23.37L386.76,22.69L388.17,21.85L389.53,22.06L390.94,21.26L392.31,21.34L393.72,20.52L397.9,21.26L399.27,19.11L400.68,20.19L402.09,18.1L403.36,17.65L404.77,16.19L410.32,15.64L411.73,14.84L413.1,15.72L414.51,14.5L417.28,15.03L418.69,15.73L420.01,16.23L421.42,17.81L425.56,20.59L426.97,23.8L428.38,33.05L429.75,31.07L431.16,33.71L432.52,39.9L433.93,44.91L435.34,46.26L438.03,51.27L439.39,53.38L440.8,54.19L442.17,51.91L444.99,48.01L446.35,47.35L449.13,45.89L450.54,43.48L454.63,40.59L456,37.57L458.77,36.35L460.18,35.71L461.59,35.23L462.96,35.78L464.37,35.72L465.73,33.71L468.55,34.9L469.83,32.84L471.24,33.59L472.6,33.11L475.38,31.41L476.79,30.24L478.2,30.29L479.56,28.86L480.97,29.03L482.34,27.87L485.16,26.12L486.48,27.1L489.25,25.14L490.66,25.18L492.03,24.63L493.44,25.63L496.21,25.09L497.62,24.09L498.99,23.35L500.4,23.63L503.08,21.59L504.49,21.95L507.27,21.29L508.63,22.18L511.45,19.74L512.82,20.11L515.59,18.86L517,19.73L519.69,15.97L521.1,15.88L525.24,13.94L526.65,14.17L529.42,13.5L530.83,11.88L533.61,13.22L535.02,14.28L537.7,16.1L539.07,17L540.48,17.72L541.84,16.5L544.66,17.6L546.03,18.36L548.8,20.99L550.21,19.26L552.94,22.4L554.35,22.19L555.72,22.37L557.13,21.46L559.9,21.12L561.31,21.1L562.68,20.69L564.09,21.1L565.45,19.31L566.86,19.09L568.27,19.88L569.55,18.47L570.96,16.61L572.32,16.33L575.1,16.07L576.51,17.06L577.92,17.05L579.28,13.91L582.06,12.13L583.47,12.66L586.15,10.73L587.56,8.85L588.93,10.51L590.34,8.95L594.52,6.07L595.89,5.61L597.3,4.5L598.66,4.41L601.48,6.29L602.76,6.06L604.17,7.38L605.53,6.93L608.31,7.2L609.72,5.73L612.49,7.34L613.9,5.51L616.68,6.97" style="vector-effect: non-scaling-stroke; fill: none; stroke: rgb(0, 0, 200); stroke-opacity: 1; stroke-width: 1px; opacity: 1;"/></g><g class="points"/><g class="text"/></g><g class="trace scatter tracea69149" style="stroke-miterlimit: 2; opacity: 1;"><g class="fills"/><g class="errorbars"/><g class="lines"><path class="js-line" d="M618.09,6.71L634.74,6.64" style="vector-effect: non-scaling-stroke; fill: none; stroke: rgb(0, 0, 200); stroke-opacity: 1; stroke-width: 1px; opacity: 1; stroke-dasharray: 3px, 3px;"/></g><g class="points"/><g class="text"/></g></g></g><g class="overplot"/><path class="xlines-above crisp" d="M40.253018372703416,204.6312335958005H695.4803149606299M40.253018372703416,47.702099737532805H695.4803149606299" style="fill: none; stroke-width: 1px; stroke: rgb(0, 0, 0); stroke-opacity: 1;"/><path class="ylines-above crisp" d="M40.753018372703416,48.202099737532805V204.1312335958005M694.9803149606299,48.202099737532805V204.1312335958005" style="fill: none; stroke-width: 1px; stroke: rgb(0, 0, 0); stroke-opacity: 1;"/><g class="overlines-above"/><g class="xaxislayer-above"><path class="xtick ticks crisp" d="M0,204.1312335958005v-5" transform="translate(43.13301837270342,0)" style="stroke: rgb(0, 0, 0); stroke-opacity: 1; stroke-width: 1px;"/><path class="xtick ticks crisp" d="M0,204.1312335958005v-5" transform="translate(209.32301837270342,0)" style="stroke: rgb(0, 0, 0); stroke-opacity: 1; stroke-width: 1px;"/><path class="xtick ticks crisp" d="M0,204.1312335958005v-5" transform="translate(375.4630183727034,0)" style="stroke: rgb(0, 0, 0); stroke-opacity: 1; stroke-width: 1px;"/><path class="xtick ticks crisp" d="M0,204.1312335958005v-5" transform="translate(541.6530183727034,0)" style="stroke: rgb(0, 0, 0); stroke-opacity: 1; stroke-width: 1px;"/><g class="xtick"><text text-anchor="middle" x="0" y="218.33123359580048" transform="translate(43.13301837270342,0)" style="font-family: 'Helvetica Neue'; font-size: 11px; fill: rgb(0, 0, 0); fill-opacity: 1; white-space: pre;">1983-01-01</text></g><g class="xtick"><text text-anchor="middle" x="0" y="218.33123359580048" transform="translate(209.32301837270342,0)" style="font-family: 'Helvetica Neue'; font-size: 11px; fill: rgb(0, 0, 0); fill-opacity: 1; white-space: pre;">1993-01-01</text></g><g class="xtick"><text text-anchor="middle" x="0" y="218.33123359580048" transform="translate(375.4630183727034,0)" style="font-family: 'Helvetica Neue'; font-size: 11px; fill: rgb(0, 0, 0); fill-opacity: 1; white-space: pre;">2003-01-01</text></g><g class="xtick"><text text-anchor="middle" x="0" y="218.33123359580048" transform="translate(541.6530183727034,0)" style="font-family: 'Helvetica Neue'; font-size: 11px; fill: rgb(0, 0, 0); fill-opacity: 1; white-space: pre;">2013-01-01</text></g></g><g class="yaxislayer-above"><path class="ytick ticks crisp" d="M41.253018372703416,0h5" transform="translate(0,199.7320997375328)" style="stroke: rgb(0, 0, 0); stroke-opacity: 1; stroke-width: 1px;"/><path class="ytick ticks crisp" d="M41.253018372703416,0h5" transform="translate(0,158.0220997375328)" style="stroke: rgb(0, 0, 0); stroke-opacity: 1; stroke-width: 1px;"/><path class="ytick ticks crisp" d="M41.253018372703416,0h5" transform="translate(0,116.3120997375328)" style="stroke: rgb(0, 0, 0); stroke-opacity: 1; stroke-width: 1px;"/><path class="ytick ticks crisp" d="M41.253018372703416,0h5" transform="translate(0,74.6120997375328)" style="stroke: rgb(0, 0, 0); stroke-opacity: 1; stroke-width: 1px;"/><g class="ytick"><text text-anchor="end" x="38.05301837270341" y="3.8499999999999996" transform="translate(0,199.7320997375328)" style="font-family: 'Helvetica Neue'; font-size: 11px; fill: rgb(0, 0, 0); fill-opacity: 1; white-space: pre;">4.0</text></g><g class="ytick"><text text-anchor="end" x="38.05301837270341" y="3.8499999999999996" transform="translate(0,158.0220997375328)" style="font-family: 'Helvetica Neue'; font-size: 11px; fill: rgb(0, 0, 0); fill-opacity: 1; white-space: pre;">4.2</text></g><g class="ytick"><text text-anchor="end" x="38.05301837270341" y="3.8499999999999996" transform="translate(0,116.3120997375328)" style="font-family: 'Helvetica Neue'; font-size: 11px; fill: rgb(0, 0, 0); fill-opacity: 1; white-space: pre;">4.4</text></g><g class="ytick"><text text-anchor="end" x="38.05301837270341" y="3.8499999999999996" transform="translate(0,74.6120997375328)" style="font-family: 'Helvetica Neue'; font-size: 11px; fill: rgb(0, 0, 0); fill-opacity: 1; white-space: pre;">4.6</text></g></g><g class="overaxes-above"/></g></g><g class="polarlayer"/><g class="ternarylayer"/><g class="geolayer"/><g class="funnelarealayer"/><g class="pielayer"/><g class="treemaplayer"/><g class="sunburstlayer"/><g class="glimages"/><defs id="topdefs-37845c"><g class="clips"/><clipPath id="legend37845c"><rect width="88" height="48" x="0" y="0"/></clipPath></defs><g class="layer-above"><g class="imagelayer"/><g class="shapelayer"/></g><g class="infolayer"><g class="legend" pointer-events="all" transform="translate(712, 101)"><rect class="bg" shape-rendering="crispEdges" style="stroke: rgb(0, 0, 0); stroke-opacity: 1; fill: rgb(255, 255, 255); fill-opacity: 1; stroke-width: 0px;" width="88" height="48" x="0" y="0"/><g class="scrollbox" transform="translate(0, 0)" clip-path="url('#legend37845c')"><g class="groups" transform="translate(0, 0)"><g class="traces" transform="translate(0, 14.5)" style="opacity: 1;"><text class="legendtext user-select-none" text-anchor="start" x="40" y="4.29" style="font-family: sans-serif; font-size: 11px; fill: rgb(0, 0, 0); fill-opacity: 1; white-space: pre;">Data</text><g class="layers" style="opacity: 1;"><g class="legendfill"/><g class="legendlines"><path class="js-line" d="M5,0h30" style="fill: none; stroke: rgb(0, 0, 200); stroke-opacity: 1; stroke-width: 1px;"/></g><g class="legendsymbols"><g class="legendpoints"/></g></g><rect class="legendtoggle" pointer-events="all" x="0" y="-9.5" width="82.78125" height="19" style="cursor: pointer; fill: rgb(0, 0, 0); fill-opacity: 0;"/></g></g><g class="groups" transform="translate(0, 0)"><g class="traces" transform="translate(0, 33.5)" style="opacity: 1;"><text class="legendtext user-select-none" text-anchor="start" x="40" y="4.29" style="font-family: sans-serif; font-size: 11px; fill: rgb(0, 0, 0); fill-opacity: 1; white-space: pre;">Forecast</text><g class="layers" style="opacity: 1;"><g class="legendfill"/><g class="legendlines"><path class="js-line" d="M5,0h30" style="fill: none; stroke: rgb(0, 0, 200); stroke-opacity: 1; stroke-dasharray: 3px, 3px; stroke-width: 1px;"/></g><g class="legendsymbols"><g class="legendpoints"/></g></g><rect class="legendtoggle" pointer-events="all" x="0" y="-9.5" width="82.78125" height="19" style="cursor: pointer; fill: rgb(0, 0, 0); fill-opacity: 0;"/></g></g></g><rect class="scrollbar" rx="20" ry="3" width="0" height="0" style="fill: rgb(128, 139, 164); fill-opacity: 1;" x="0" y="0"/></g><g class="g-gtitle"/><g class="g-xtitle"/><g class="g-ytitle"/><g class="annotation" data-index="0" style="opacity: 1;"><g class="annotation-text-g" transform="rotate(0,367.86666666666673,30.5)"><g class="cursor-pointer" transform="translate(339, 20)"><rect class="bg" x="0.5" y="0.5" width="56" height="20" style="stroke-width: 1px; stroke: rgb(0, 0, 0); stroke-opacity: 0; fill: rgb(0, 0, 0); fill-opacity: 0;"/><text class="annotation-text" text-anchor="middle" x="28.4375" y="15.5" style="font-family: 'Helvetica Neue'; font-size: 14px; fill: rgb(0, 0, 0); fill-opacity: 1; white-space: pre;">INDPRO</text></g></g></g></g></svg>